<?xml version="1.0" encoding="UTF-8"?>
<!DOCTYPE svg PUBLIC "-//W3C//DTD SVG 1.1//EN" "http://www.w3.org/Graphics/SVG/1.1/DTD/svg11.dtd">
<!-- Creator: CorelDRAW -->
<svg xmlns="http://www.w3.org/2000/svg" xml:space="preserve" width="261.019mm" height="230.731mm" version="1.1" style="shape-rendering:geometricPrecision; text-rendering:geometricPrecision; image-rendering:optimizeQuality; fill-rule:evenodd; clip-rule:evenodd"
viewBox="0 0 2648.72 2341.37"
 xmlns:xlink="http://www.w3.org/1999/xlink"
 xmlns:xodm="http://www.corel.com/coreldraw/odm/2003">
 <defs>
  <style type="text/css">
   <![CDATA[
    .str0 {stroke:#95C49D;stroke-width:2.68;stroke-miterlimit:22.9256}
    .fil0 {fill:none}
    .fil1 {fill:#95C49D}
    .fil2 {fill:white;fill-rule:nonzero}
   ]]>
  </style>
 </defs>
 <g id="Layer_x0020_1">
  <metadata id="CorelCorpID_0Corel-Layer"/>
  <g id="_2284805781936">
   <g>
    <rect class="fil0" width="2648.72" height="2341.37"/>
    <g>
     <path class="fil0" d="M1416.3 904.18c-0.25,-0.7 -0.49,-1.41 -0.72,-2.13 -1.48,-4.73 -2.05,-9.93 -3.75,-14.46 -3.82,-10.2 -3.01,-14.96 -2.64,-25.51 0.14,-4.19 -7.89,-13 -10.8,-16.02 -2.88,-2.99 -5.9,-5.83 -8.96,-8.63 -1.82,-1.66 -4.21,-3.61 -5.81,-5.44l-5.99 -6.85 27.99 -6.08 1.38 0.45c7.35,2.4 14.69,4.82 22.03,7.23 8.94,2.94 18.01,5.81 26.88,8.95 10.44,3.68 9.77,19.71 9.34,28.76 -0.34,7.07 9.72,29.52 14.22,35.22 2.91,3.68 13.12,16.21 17,18.67 2.88,-0.55 15.55,-9.19 17.71,-10.61 7.37,-4.85 13.72,-6.15 20.98,-0.66 5.76,4.35 8.47,7.8 15.72,10.48 9.38,3.47 16.94,10.21 23.29,17.77 2.44,2.91 4.68,5.93 6.94,8.98 0.86,1.17 2.54,3.61 3.62,4.51 6.1,5.08 1.77,14.16 -2.04,19.19 -4.55,5.99 -11.55,11.21 -19.17,12.16 -6.24,0.78 -11.7,0.02 -17.78,-1.22 -3.39,-0.69 -7.67,-1.76 -11.13,-1.13 -3.69,0.67 -8.05,0.79 -11.8,0.88 -5.84,0.14 -11.71,0.05 -17.55,-0.22 -11.26,-0.52 -25.57,-1.69 -36.07,-5.51 -18.99,-6.91 -27.76,-33.82 -40.66,-48.8 -3.1,-3.61 -5.88,-7.34 -8.19,-11.34 0.02,0.05 0.04,0.1 0.05,0.14 1.55,4.06 3.09,8.1 4.8,12.1 4.85,11.29 10.82,21.93 18.55,31.51 3.84,4.76 10.91,13.38 16.72,15.91 1.55,0.68 3.12,0.96 4.76,1.26 2.65,0.48 5.02,1.02 7.54,2.03 25.62,10.25 51.18,20.63 76.82,30.81 8.19,3.25 15.84,6.65 23.63,10.74 3.82,2.01 5.71,2.63 10.09,3.36 14.47,2.41 31.99,11.04 45.38,17.23 5.61,2.59 11.24,5.93 16.58,9.05 7.03,4.11 14.01,8.32 21.02,12.46 5.11,3.02 25.67,15.43 30.82,16.05 7.49,0.9 18.85,2.98 20.63,11.88 1.47,7.33 2.63,14.98 6.54,21.5 2.3,3.83 4.31,8.57 3.95,13.14 -0.38,4.8 -3.36,8.47 -8.05,9.64 -5.67,1.46 -32.12,16.14 -35.33,20.7 -1.91,2.7 -4.6,5.43 -6.25,8.15 -0.9,1.48 -0.98,2.37 -0.33,4.02 1.88,4.55 21.49,17.96 26.3,21.03l5.1 3.25 -3.83 4.68c-7.38,9.01 -14.78,18 -22.2,26.98 -9.81,11.87 -19.71,24.18 -29.98,35.63 -0.85,0.95 -4.99,5.74 -4.89,7.17 0.02,0.36 0.41,1.24 0.54,1.57 0.7,1.78 1.18,3.4 1.31,5.33 0.2,2.95 2.16,6.89 3.66,9.35 5.51,9 14.78,16.29 23.73,21.6 7.06,4.19 17.2,7.27 25.08,9.52 11.84,3.38 23.98,6.09 36.06,8.5 11.82,2.36 23.71,4.43 35.63,6.23 7.94,1.2 16.16,2.41 24.17,3.04 9.71,0.76 24.86,4.1 32.41,10.99l1.25 1.14 0.37 1.66c5.07,22.67 9.32,46.31 12.1,69.35 1.34,11.13 2.79,22.36 4.96,33.37 1.2,6.11 2.63,12.17 3.79,18.29 2.54,13.44 41.34,46.86 52.64,56.55 6.67,5.71 12.7,12.28 16.59,20.23 2.31,4.73 3.17,9 4.94,13.73 2.29,6.1 9.91,12.89 14.9,17.05 2.71,1.48 11.72,3.38 14.76,4.07 9.63,2.2 19.34,4.14 29.02,6.11 10.31,2.09 20.63,4.16 30.89,6.43 7.08,1.57 15.25,3.26 22.04,5.76 5.26,1.94 11.1,3.61 16.2,5.76 4.21,1.78 7.11,4.28 10.5,7.29 4.76,4.23 6.05,7.29 7.05,13.31 1.23,7.39 3.15,13.06 6.3,19.93 3.42,7.47 7.2,14.76 12.22,21.3 3.86,5.03 8.26,9.63 12.14,14.69 4.56,5.93 15.55,12.3 21.96,16.31 7.64,4.77 18.95,11.59 23.71,19.33 2.72,4.42 5.54,8.9 3.76,14.23 -0.42,1.27 -0.97,2.43 -1.32,3.74 -0.59,2.25 -0.72,4.75 -0.72,7.06 0,15.56 -31.23,62.44 -41.98,78.04 -1.07,5.71 -1.01,13.24 -0.61,18.76 0.68,9.47 15.67,33.46 21.31,41.81l1.8 2.67 -1.51 2.85c-3.77,7.11 -7.88,15.11 -12.31,21.75 -4.61,6.91 -8.88,13.71 -12.14,21.39 -1.6,3.77 -2.96,7.76 -3.71,11.79 -2.44,13.01 7.26,33.33 13.33,44.6 7.2,13.37 5.42,27.38 2.37,41.62 -0.99,4.63 -1.41,9.95 -1.84,14.66 -0.7,7.65 -1.23,15.33 -1.75,22.99 -1.13,16.54 -2.07,33.19 -3.72,49.69 -1.08,10.83 -1.83,21.87 -3.38,32.63 -1.41,9.74 -3.72,18.64 -7.09,27.91 -2.33,6.42 -3.8,14.14 -5.06,20.85 -1.71,9.17 -3.11,18.43 -4.38,27.67 -1.57,11.43 -2.99,22.94 -4.16,34.42l-0.63 6.17 -6.02 -1.5c-4.45,-1.11 -9,-2.37 -13.35,-3.82 -3.32,-1.11 -9.93,-6.79 -12.71,-9.08 -6.4,-5.28 -12.67,-10.73 -18.9,-16.2 -7.35,-6.45 -14.66,-12.95 -21.92,-19.5 -5.36,5.67 -10.84,11.26 -16.38,16.73 -4.92,4.86 -9.96,9.73 -15.22,14.22 -3.15,2.69 -8.81,7.62 -13.14,7.62 -9.2,0 -27.29,-15.52 -34.82,-21.54 -2.94,-2.36 -10.3,-5.33 -13.85,-6.83 -7.92,-3.34 -16,-6.41 -24.06,-9.39 -6.73,-2.49 -13.49,-4.94 -20.28,-7.32 1.09,1.63 2.14,3.08 2.9,4.09 8.1,10.8 11.33,47.03 12.17,61.22l0.52 8.75 -8.02 -3.51c-5,-2.17 -9.67,-6.78 -11.91,-11.75 -1.68,-2.11 -8.44,-6.77 -10.61,-8.33 -7.13,-5.11 -14.34,-10.1 -21.41,-15.3 -11.48,-8.44 -31.81,-23.67 -37.53,-36.83 -2.6,-5.99 -13.57,-17.42 -18.16,-22.26 -11.37,-11.99 -23.36,-23.55 -35.37,-34.9 -20.56,-19.44 -41.58,-38.49 -62.79,-57.22 -0.71,-0.62 -1.41,-1.25 -2.12,-1.87 -8.58,-0.66 -18.16,-5.16 -24.46,-10.42 -3.29,-2.74 -6.22,-4.99 -9.95,-7.08 -5.18,-2.9 -9.84,-5.89 -14.7,-9.32 -5.92,-4.18 -11.67,-8.96 -14.74,-15.69 -2.09,-4.58 -2.92,-9.77 -4.76,-14.54 -0.28,-0.73 -1.05,-2.82 -1.58,-3.58 -0.48,-0.2 -1.3,-0.4 -1.74,-0.52 -1.81,-0.51 -3.57,-1.06 -5.33,-1.72 -7.2,-2.71 -14.28,-6.88 -20.71,-11.03 -5.16,-3.33 -10.37,-6.7 -15.37,-10.26 -2.33,-1.66 -4.75,-3.43 -6.82,-5.4 -1.16,-1.11 -2.13,-2.28 -3.2,-3.45 -1.46,-1.59 -3.09,-3.03 -4.75,-4.41 -3.98,-3.32 -9.3,-6.5 -13.72,-9.23 -6.78,-4.18 -13.68,-8.21 -20.59,-12.17 -8.88,-5.1 -17.83,-10.14 -26.83,-15.03l-0.59 -0.32 -64.81 -60.04 -0.28 -1.85c-1.52,-9.86 -2.98,-19.72 -4.62,-29.55 -0.74,-4.45 -5.19,-8.71 -8.38,-11.6 -5.25,-4.76 -10.96,-9.06 -15.47,-14.58 -2.34,-2.86 -9.53,-7.25 -12.74,-9.24 -7.63,-4.75 -15.49,-9.2 -23.28,-13.69 -7.93,-4.57 -15.92,-9.16 -23.64,-14.08 -4.69,-3 -12.13,-7.78 -15.46,-12.22 -4.07,-5.42 -8.37,-10.66 -12.55,-16 -7.52,-9.63 -14.71,-19.51 -21.78,-29.47 -3.71,-5.23 -7.53,-10.37 -11.54,-15.37 -2.17,-2.7 -4.47,-5.36 -6.54,-8.12 -4.54,-6.06 -6.41,-12.54 -8.59,-19.71 -5.07,-16.66 -55.4,-59.36 -70.39,-71.58 -0.3,-0.24 -0.59,-0.48 -0.89,-0.72l-0.8 -0.6 -0.55 -0.94c-7.34,-12.66 -14.65,-25.34 -22.17,-37.88 -4.93,-8.21 -7.45,-19.71 -9.34,-29.13 -0.9,-4.51 -1.7,-9.04 -2.64,-13.53 -0.45,-2.13 -1.14,-5.75 -2.11,-7.68 -1.84,-3.68 -3.21,-10.37 -4.17,-14.45 -1.85,-7.83 -3.57,-15.69 -5.4,-23.53 -2,-8.59 -4.1,-17.2 -6.54,-25.68 -1.85,-6.42 -4.04,-13.67 -7.03,-19.65 -4.93,-9.86 -11.86,-18.43 -18.55,-27.13 -8.88,-11.55 -16.56,-22.72 -23.11,-35.81 -7.87,-15.74 -15.78,-31.5 -23.21,-47.46 -3.2,-6.88 -12.53,-26.33 -12.53,-33.52 -1.03,-6.78 -26.88,-41.2 -33.56,-49.86 -9.04,-6.38 -17.98,-13.17 -26.65,-20.04 -7.53,-5.97 -14.97,-12.13 -22.07,-18.61 -6.11,-5.58 -12.64,-11.88 -17.56,-18.55 -4.41,-5.97 -9.67,-13.16 -11.91,-20.33 -0.59,-1.87 -1.01,-3.79 -1.62,-5.65 -0.91,-2.77 -2.18,-5.44 -3.55,-8.02 -3.88,-7.32 -5.16,-13.47 -7.26,-21.24 -1.18,-4.37 -2.35,-7.58 -6.43,-9.96 -10.47,-6.11 -20.94,-13.06 -30.97,-19.86 -6.2,-4.21 -12.36,-8.52 -18.36,-13.02 -4.66,-3.5 -9.65,-7.34 -13.78,-11.46 -9.06,-9.06 -8.19,-2.05 -19.01,-2.86 -0.74,-0.06 -1.48,-0.15 -2.22,-0.29 -4.34,-0.79 -7.62,-6.51 -9.67,-10.01 -3.56,-6.09 -6.71,-12.62 -9.71,-19 -8.74,-18.58 -16.71,-37.72 -24.44,-56.74 -7.93,-19.51 -15.63,-39.15 -22.99,-58.88 -2.67,-7.14 -5.3,-14.31 -7.79,-21.52 -1.28,-3.71 -2.99,-8.26 -3.75,-12.09 -2.98,-14.92 -1.96,-30.36 -1.96,-45.48 0,-8.43 -2.11,-15.07 -4.9,-22.97 -5.11,-14.44 -10.06,-28.34 -14.33,-43.11 -9,-31.16 -72.32,-60.69 -101.58,-71.12l-0.22 -0.08 -0.21 -0.1c-10.57,-4.83 -21.08,-9.94 -31.46,-15.15 -9.04,-4.53 -18.02,-9.2 -26.86,-14.1 -8.04,-4.46 -16.21,-9.19 -23.75,-14.45 -3.49,-2.44 -13.8,-9.03 -15.13,-13.31 -1.13,-3.66 1.1,-6.57 4.38,-7.46 -0.73,-3.08 -1.39,-6.22 -2.09,-9.27 -1.78,-7.86 -3.54,-15.72 -5.3,-23.59 -1.73,-7.72 -3.46,-15.43 -5.2,-23.15 -0.8,-3.51 -1.54,-7.44 -2.51,-10.94 -0.95,-0.74 -2.67,-1.71 -3.52,-2.27 -3.34,-2.19 -6.47,-4.58 -9.49,-7.21 -8.56,-7.45 -11.84,-11.26 -17.2,-21.09 -1.13,-2.04 -3.67,-5.04 -5.14,-6.91 -3.84,-4.89 -7.78,-9.71 -11.72,-14.52 -11.1,-13.54 -22.35,-26.96 -33.6,-40.37 -10.98,-13.08 -22,-26.13 -33.02,-39.18 -3.68,-4.36 -7.36,-8.72 -11.02,-13.09 -1.49,-1.77 -3.63,-4.07 -4.89,-5.97 -1.17,-1.72 -4.97,-4.87 -6.99,-6.54 -4.95,-2.79 -9.96,-5.52 -14.99,-8.16 -3.52,-1.85 -15.11,-8.06 -18.64,-8.56 -2.82,-0.35 -6.24,-0.31 -9.09,-0.36 -4.99,-0.08 -9.98,-0.09 -14.97,-0.09 -6.67,0.01 -13.34,0.04 -20.01,0.12l-2.49 0.03 -222.89 -256.85 -21.08 -92.76 6.36 -0.34c12.19,-0.66 24.39,-1.23 36.58,-1.74 9.03,-0.38 18.07,-0.73 27.11,-0.93 5.26,-0.12 12.19,-0.49 17.37,0.16 7.44,0.93 16.19,3.65 23.39,5.81 8.82,2.65 17.59,5.51 26.32,8.42 9.03,3.01 16.54,11.39 22.65,18.37 5.06,5.78 11.78,14.18 18.46,17.96 9.8,5.54 22.94,9.2 33.88,11.43 19.76,4.03 40.42,4.95 60.52,3.71 15.19,-0.94 30.94,-2.11 45.94,-4.8 5.89,-1.05 12.02,-2.77 17.97,-3.12 6.09,-0.36 12.18,-0.93 18.27,-1.36 5.72,-0.4 12.01,-0.86 17.72,-0.46 6.65,0.47 19.27,6.45 25.51,9.3 4.61,2.11 9.2,4.28 13.79,6.43 2.96,1.39 6.07,2.92 9.11,4.09 16.91,6.5 33.67,13.49 50.54,20.1 14.91,5.83 18.44,10.46 29.74,21.19 6.69,6.35 11.08,13.68 15.35,21.77 5.24,9.91 10.05,19.62 15.95,29.21 16.69,27.12 33.99,53.99 51.15,80.83 0.74,1.16 1.54,2.34 2.26,3.52 7.72,9.75 20.76,24.01 31.15,30.08 7.68,4.48 13.64,10.66 19.04,17.63 4.29,5.53 8.15,11.71 12.73,16.95 8.52,9.74 14.31,13.84 26.52,18.62 3.17,1.24 6.64,3.31 9.58,5.04 5.03,2.94 9.98,6.05 14.89,9.17 13.45,8.56 26.73,17.45 39.9,26.45 13.88,9.49 27.69,19.15 41.26,29.07 9.31,6.81 19.6,14.21 28.11,21.99 8.58,7.85 17.22,14.6 26.89,21.02 10.71,7.11 21.57,13.82 32.18,21.12 4.79,3.3 9.65,6.65 14.27,10.19 2.03,1.56 4.13,3.23 5.87,5.11 0.91,0.98 1.69,2.05 2.59,3.03 1.67,1.81 3.72,3.51 5.62,5.06 6.66,5.45 13.81,10.65 20.7,15.81 10.93,8.18 21.9,16.31 32.88,24.42 14.65,10.82 29.33,21.62 44.03,32.38l2.68 1.96 -0.56 3.27c-1.36,7.98 -2.49,16.64 -2.63,24.73 -0.04,2.4 -0.04,5.55 0.54,7.88 1.28,4.74 17.85,23.26 21.68,27.51 6.49,7.21 13.14,14.38 19.9,21.35 2.83,-0.3 8.57,-2.55 10.4,-3.31 4.8,-1.98 9.49,-4.28 13.73,-7.31 3.01,-2.15 5.63,-4.61 8.43,-7.01 9.7,-8.31 30.08,-7.41 41.93,-6.48 11.92,0.94 22.38,9.5 30.34,17.85 3.51,3.69 6.75,7.58 9.96,11.52 1.19,1.46 3.73,4.88 5.1,5.95 1.78,1.18 4.44,1.57 6.54,1.89 5.03,0.76 9.85,1.4 14.84,2.52 11.92,2.69 25.55,-0.13 37.63,-0.13 9.01,0 17.82,1.26 26.72,2.45 11.3,1.51 11.14,21.69 11.85,30.5 0.47,5.82 3.74,14.33 5.86,19.79 3.31,8.52 7.05,16.91 10.87,25.2 7.1,15.38 10.66,22.59 22.93,34.87 10.55,10.55 20.93,21.39 31.21,32.21 5.18,5.45 10.35,10.92 15.43,16.46 2.36,2.57 5.76,6.02 7.91,8.99zm-956.47 -19.67l-12.25 -15.84 2.46 -3.27c6.19,-8.23 18.13,-13.66 28.06,-15 19.36,-2.62 22.71,5.91 34.79,18 5.11,5.11 10.14,7.44 16.68,10.05 9.1,3.64 16.59,6.89 24.83,12.44 20.23,13.65 24.67,29.96 31.93,51.74 4.43,13.31 -1.96,38.76 -5.65,52.06 -2.39,8.62 -5.11,17.19 -8.09,25.63 -1.63,4.62 -3.51,10.21 -5.69,14.58 -1.97,3.94 -6.19,6.72 -10.29,3.63 -2.07,-1.56 -3,-4.21 -3.72,-6.6 -1.43,-4.76 -2.33,-9.7 -4.22,-14.32 -2.33,-5.7 -3.5,-12.07 -4.84,-18.07 -1.58,-7.1 -3.39,-13.88 -6.26,-20.59 -2.45,-5.73 -6.28,-10.44 -11.19,-14.23 -1.67,-1.29 -3.41,-2.42 -5.23,-3.49 -1.43,-0.84 -3.23,-1.73 -4.2,-2.9 -0.71,-0.68 -1.64,-1.44 -2.47,-2.21 -1.94,-1.81 -3.79,-3.72 -5.55,-5.7 -6.57,-7.38 -12.29,-15.85 -17.35,-24.31 -2.52,-4.21 -8.18,-13.11 -13,-15.17 -0.87,-0.37 -1.55,-0.43 -2.47,-0.52 -2.69,-0.27 -4.87,-1.2 -6.28,-3.66 -1.43,-2.5 -2.46,-5.96 -3.52,-8.68 -1.83,-4.71 -3.97,-9.18 -6.47,-13.57zm-259.4 -257.05c-0.23,-0.39 -0.51,-0.79 -0.68,-1.01 -5.77,-7.89 -14.21,-15.98 -21.77,-22.17l-2.94 -2.4 6.67 -18.53 4.06 0.29c4.72,0.34 9.44,0.76 14.15,1.25 6.81,0.71 15.12,1.52 21.67,3.4 6.32,1.8 11.51,6.76 16.15,11.19 6.31,6.03 12.21,11.65 19.35,16.77 12.55,9.01 25.31,19.04 35.61,30.63 4.78,5.37 10.15,10.58 15.29,15.61 3.39,3.32 6.79,6.62 10.22,9.89l12.21 11.62 -16.68 -2.42c-13.72,-1.99 -42.5,-7.06 -53.38,-14.18 -4.81,-3.14 -8.8,-4.94 -14.06,-7.09 -9.9,-4.04 -19.41,-8.34 -29.01,-13.07 -4.26,-2.1 -14.01,-6.65 -17.14,-10.26 -2.05,-2.37 -2.52,-5.46 -0.85,-8.16 0.37,-0.6 0.73,-0.98 1.11,-1.37zm1434.4 329.88c2.9,2.03 5.85,4.01 8.8,5.97 3.55,2.35 8.26,5.64 12.09,7.38 7.5,3.41 9.16,18.45 9.56,25.84l0.1 1.82 -1.04 1.51c-1.54,2.25 -3.46,4.59 -5.36,6.54 -1.57,1.6 -3.43,3.23 -5.51,4.12 -3.79,1.63 -7.84,0.39 -9.73,-3.39 -3.47,-6.95 -8.23,-13.38 -15.81,-16.13 -8.6,-3.13 -9.41,-11.33 -6.92,-19 0.9,-2.78 2.15,-5.46 3.5,-8.05 0.71,-1.36 1.7,-2.95 2.29,-4.32l2.6 -6.07 5.41 3.78zm-908.49 141.68c4.51,-2.26 32.31,-4.06 38.59,-4.06 7.43,0 12.47,3.12 15.05,10.02 1.81,4.82 -2.21,7.95 -6.14,9.47 -2.98,1.16 -6.34,1.94 -9.47,2.62 -6.46,1.4 -13.03,2.4 -19.57,3.39 -8.16,1.22 -21.98,-3.6 -29.55,-6.93l-11.71 -5.15 11.87 -4.75c3.55,-1.42 7.53,-2.92 10.93,-4.61zm-51.76 51.39c3.28,-3.73 8.98,-8.98 14.28,-8.32 4.09,0.51 5.85,3.35 7.91,6.46 1.71,2.6 3.4,4.41 6.07,6.1 10.2,6.44 11.6,13.93 12.09,25.23 0.36,8.26 -7.92,30.54 -10.96,38.72 -2.54,6.87 -5.23,13.77 -8.2,20.46 -1.82,4.11 -4.83,12.71 -10.63,11.74 -6.3,-1.05 -6.36,-10.23 -6.61,-15.11 -0.28,-5.65 -0.23,-11.32 -0.49,-16.97 -0.51,-11.27 5.84,-26.81 9.94,-37.48 1.41,-3.68 0.41,-5.99 -1.8,-9.05 -3.83,-5.3 -8.36,-9.63 -12.07,-15.29l-2.25 -3.43 2.71 -3.06zm1782.18 473.09c33.23,-4.79 68.1,-1.34 95.86,18.97 9.69,7.08 21.3,19 26.36,30.19l0.9 2 -0.75 2.06c-4.28,11.72 -11.64,24.77 -18.59,34.99 -1.19,1.74 -5.06,7.11 -3.87,9.51 1.01,2.02 1.89,3.3 2.36,5.64 0.73,3.62 -0.18,7.21 -1.59,10.54 -5.24,12.44 -19.72,24.53 -30.75,31.88 -4.73,3.15 -9.26,-0.22 -10.19,-5.13 -0.48,-2.53 -0.52,-5.43 -0.67,-8.01 -0.32,-5.41 -0.93,-12.55 -3.87,-17.26 -1.91,-3.05 -2.61,-4.19 -6.09,-3.31 -3.03,0.77 -6.34,2.27 -9.23,3.49 -5.2,2.2 -10.38,4.36 -15.68,6.33 -4.73,1.76 -9.44,3.58 -14.18,5.31 -2.42,0.88 -5.46,2.03 -8.03,2.29 -3.36,0.33 -6.24,-1.01 -7.75,-4.08 -0.75,-1.51 -1.04,-3.24 -1.52,-4.85 -0.61,-2.05 -0.83,-4.87 -1.02,-7.01 -0.35,-3.86 -0.58,-7.75 -0.77,-11.63 -0.55,-11.07 -0.77,-22.19 -0.77,-33.27 0,-12.19 0.26,-24.47 1.14,-36.63 0.64,-8.88 1.6,-19.87 4.34,-28.34l1.03 -3.18 3.31 -0.48zm-272.59 -42.09c5.19,2.97 11.75,6.26 13.91,7.37 22.56,11.63 46.37,21.01 69.94,30.36 9.24,3.66 18.6,7.31 27.66,11.41 4.79,2.17 12.86,5.86 16.28,9.9 9.01,10.65 17.65,22.19 26.08,33.32l7.53 9.94 -12.39 -1.36c-4.95,-0.54 -9.95,-1.25 -14.87,-2.02 -8.16,-1.27 -17.3,-2.82 -25.1,-5.42 -5.49,-1.83 -12.14,-4.81 -17.78,-5.63 -3.29,-0.48 -5.22,-0.29 -6.4,3.04 -1.75,4.97 -4.4,10.06 -5.84,15.01 -0.82,2.83 -0.99,4.93 0.81,7.39 2.11,2.91 4.58,4.57 7.49,6.54 3.96,2.69 7.23,6.06 5.5,11.27 -1.48,4.45 -4.62,8.75 -8.38,11.53 -6.57,4.85 -14.51,5.1 -22.08,2.69 -8.86,-2.82 -14.3,-8.28 -21.54,-13.67 -10.56,-7.86 -21.66,-12.35 -34.35,-15.76 -17.42,-4.69 -35.78,-8.9 -52.7,-15.07 -6.17,-2.25 -13.16,-5.14 -18.44,-9.09 -4.81,-3.6 -8.56,-8.58 -7.61,-14.92 1.13,-7.54 4.45,-12.18 6.69,-18.89 2.41,-7.22 0.75,-13.87 -2.04,-20.75 -2.26,-5.55 -3.43,-10.95 -4.37,-16.83 -0.67,-4.18 -1.22,-8.56 -2.7,-12.55 -4.37,-11.77 -18.63,-19.48 -29.17,-24.66 -13.65,-6.71 -29,-14.42 -43.51,-19.04 -8.21,-2.61 -14.69,-3.43 -23.2,-3.43 -15.83,0 -28.26,-1.67 -38.15,-15.14 -2.64,-3.61 -5.33,-7.2 -7.94,-10.83l-4.09 -5.67 6.53 -2.49c9.39,-3.58 19.71,-9.21 27.99,-14.95 2.92,-2.03 14.71,-10.85 13.97,-15.07 -0.85,-4.79 -6.56,-10.47 -8.22,-15.92 -3.89,-12.81 11.14,-18.3 20.61,-21.1 25.28,-7.47 79.09,-25.2 103.48,-19.51 10.47,2.44 16.59,6.44 19.43,16.96 1.09,4.02 1.75,8.2 2.77,12.26 1.41,5.62 3.34,10.9 5.87,16.12 4.02,8.26 7.44,17.03 10.66,25.63 3.78,10.12 7.3,20.36 10.66,30.63 3.06,9.34 5.99,18.73 8.75,28.16 1.74,5.95 3.61,12.21 4.89,18.28 1.19,5.64 -1.63,9.93 -6.63,11.99zm-1159.02 101.52c-1.23,-0.98 -3.84,-2.25 -5.19,-2.96 -3.31,-1.76 -6.65,-3.46 -9.94,-5.26 -5.14,-2.81 -15.36,-8.16 -16.68,-14.34 -1.26,-5.89 -1.85,-12.82 -2.53,-18.84 -0.52,-4.66 -1.02,-9.33 -1.49,-14l-1.4 -13.81 10.33 9.28c3.66,3.28 7.34,6.54 11.04,9.78 2.78,2.44 5.56,4.86 8.38,7.25 1.69,1.43 3.56,3.1 5.36,4.36 2.35,1.64 5.25,5.32 7.1,7.55 3.38,4.09 6.67,8.26 9.98,12.41 6.46,8.09 13.63,17.46 21.06,24.61 8.19,7.89 16.46,15.73 24.78,23.48l8.15 7.57 -10.99 1.67c-3.56,0.56 -12.6,2.86 -14.83,5.76 -1.55,3.19 3.17,16.64 4.58,19.99l1.32 3.14 -2.28 2.53c-0.93,1.04 -2.12,2.09 -3.26,2.87 -4.15,2.83 -9.59,2.1 -11.12,-3.23 -0.67,-2.05 -3.39,-6.23 -4.55,-8.19 -2.9,-4.88 -5.82,-9.74 -8.53,-14.73 -2.12,-3.91 -4.56,-7.07 -6.96,-10.73 -3.16,-4.82 -5.01,-9.69 -6.56,-15.22 -1.48,-5.25 -2.68,-10.5 -4.01,-15.77 -0.28,-1.11 -1,-4.07 -1.76,-5.15zm-108.2 -159.88c4.51,1.87 9.43,4.79 13.5,7.43 5.95,3.85 15.66,19.55 19.57,25.81 3.08,4.93 6.07,9.92 8.97,14.96 1.31,2.28 3.78,6.25 4.6,8.69 1.66,4.97 -3.1,8.43 -7.85,6.86 -1.39,-0.46 -2.81,-1.13 -4.13,-1.77 -4.02,-1.94 -7.98,-4.12 -11.89,-6.27 -8.19,-4.52 -16.27,-9.21 -24.41,-13.81 -13.43,-7.59 -7.41,-25.89 -5.73,-37.7l0.98 -6.85 6.39 2.65zm-175.33 -219.22c13.54,1.73 29.09,9.78 38.48,19.46 6.01,6.19 12.61,18.58 16.76,26.22 7.33,13.49 14.18,27.34 20.8,41.2 6.33,13.24 12.5,26.6 18.38,40.05 2.09,4.77 4.15,9.56 6.09,14.39 1.02,2.55 2.4,5.76 3.01,8.43 1.68,7.41 -3.1,15.84 -7.58,21.44 -3.75,4.69 -10.82,11.72 -17.27,11.72 -5.19,0 -14.13,-9.55 -17.59,-13 -8.59,-8.56 -16.85,-17.61 -24.9,-26.67 -8.65,-9.74 -17.17,-19.67 -25.33,-29.82 -5.13,-6.38 -11.95,-14.64 -15.82,-21.82 -6.07,-11.27 -5.03,-36.04 -4.3,-49.04 0.47,-8.27 1.18,-16.53 2,-24.77 0.28,-2.84 0.58,-5.67 0.87,-8.51 0.13,-1.24 0.33,-2.7 0.35,-3.94l0 -6.09 6.05 0.77z"/>
     <path class="fil0" d="M962 563.04c13.39,10.95 97.84,72.78 97.84,72.78 0,0 -2.51,14.37 -2.7,25.54 -0.06,3.63 0.12,6.92 0.7,9.27 2.4,9.6 44.02,52.42 44.02,52.42 0,0 1.6,2.4 15.21,-3.2 13.6,-5.6 18.01,-10.4 23.61,-15.21 5.6,-4.8 17.61,-6.8 38.02,-5.2 20.41,1.6 38.02,31.21 42.82,34.41 4.8,3.2 10.8,2.4 23.21,5.2 12.41,2.8 29.21,0 38.82,0 9.6,0 20.01,1.6 26.01,2.4 6,0.8 6.4,15.61 7.2,25.61 0.8,10 10,31.21 17.21,46.82 7.2,15.61 10.4,22.81 24.01,36.42 13.6,13.61 51.22,52.82 54.42,57.62 3.2,4.8 8.8,29.21 27.21,52.02 18.41,22.81 21.21,16.81 31.21,20.81 10,4 49.62,20.01 76.83,30.81 27.21,10.8 22.81,12.4 34.81,14.41 12,2 28.41,9.6 44.02,16.81 15.61,7.2 60.03,36.82 70.03,38.02 10,1.2 15.21,3.6 16.01,7.6 0.8,4 2.4,15.21 7.2,23.21 4.8,8 4,13.61 -0.8,14.81 -4.8,1.2 -33.61,16.01 -38.42,22.81 -4.8,6.8 -10,10 -7.2,17.21 2.8,7.2 28.41,23.61 28.41,23.61 0,0 -41.62,50.82 -52.02,62.43 -10.4,11.6 -4.8,12 -4.4,18.01 0.17,2.54 1.35,6.74 4.44,11.8 4.21,6.88 11.97,15.35 25.57,23.42 23.61,14.01 102.84,26.41 123.25,28.01 20.41,1.6 29.21,9.6 29.21,9.6 0,0 8,35.62 12.01,68.83 2.08,17.29 3.62,26.66 5.02,33.77 1.28,6.54 2.44,11.16 3.79,18.26 2.8,14.81 37.62,45.22 54.42,59.62 16.81,14.41 17.22,24.37 19.99,31.78 2.78,7.4 11.11,14.81 16.66,19.44 5.55,4.63 80.53,16.66 98.11,23.14 17.59,6.48 16.66,4.63 24.99,12.03 8.33,7.4 1.85,9.26 12.03,31.47 10.18,22.21 15.73,24.99 24.99,37.02 9.26,12.03 37.95,23.14 45.35,35.17 7.4,12.03 0.93,6.48 0.93,22.21 0,15.74 -41.65,75.9 -41.65,75.9 0,0 -1.85,8.33 -0.93,21.29 0.93,12.96 22.21,44.43 22.21,44.43 0,0 -8.33,15.73 -12.03,21.29 -2.61,3.91 -8.43,12.41 -12.61,22.27 -1.76,4.14 -3.23,8.52 -4.05,12.9 -2.78,14.81 7.4,36.1 13.88,48.13 6.48,12.03 4.63,24.99 1.85,37.95 -2.78,12.96 -4.63,60.17 -7.4,87.93 -2.78,27.77 -2.78,38.87 -10.18,59.24 -7.4,20.36 -13.88,84.23 -13.88,84.23 0,0 -7.4,-1.85 -12.96,-3.7 -5.55,-1.85 -55.54,-47.2 -55.54,-47.2 0,0 -37.95,40.73 -44.43,40.73 -6.48,0 -22.21,-12.96 -31.47,-20.36 -9.26,-7.4 -72.2,-28.69 -72.2,-28.69 0,0 0.93,5.55 9.25,16.66 8.33,11.11 11.11,58.31 11.11,58.31 0,0 -6.48,-2.78 -9.26,-9.26 -2.78,-6.48 -60.16,-38.87 -69.42,-60.16 -8.27,-19.02 -98.55,-99.36 -117.7,-116.27 -2.28,-2.02 -3.56,-3.13 -3.56,-3.13 0,0 -12.03,0 -23.14,-9.26 -11.11,-9.26 -9.26,-5.55 -24.99,-16.66 -15.73,-11.11 -12.96,-15.73 -17.59,-27.77 -4.63,-12.03 -2.78,-0.93 -31.47,-19.44 -28.69,-18.51 -18.51,-13.88 -29.62,-23.14 -11.11,-9.26 -62.01,-37.02 -62.01,-37.02l-62.94 -58.31c0,0 -2.78,-18.51 -4.63,-29.62 -1.85,-11.11 -16.66,-18.51 -24.99,-28.69 -8.33,-10.18 -66.64,-37.95 -74.97,-49.06 -8.33,-11.11 -13.88,-16.66 -34.25,-45.35 -20.36,-28.69 -19.44,-20.36 -25.92,-41.65 -6.01,-19.76 -63.86,-67.43 -72.14,-74.17 -0.64,-0.52 -0.98,-0.8 -0.98,-0.8 0,0 -13.88,-24.07 -22.22,-37.95 -8.33,-13.88 -10.18,-42.58 -13.88,-49.98 -3.7,-7.4 -12.96,-62.94 -23.14,-83.3 -10.18,-20.36 -26.84,-33.32 -41.65,-62.94 -14.81,-29.62 -35.17,-70.35 -35.17,-78.68 0,-8.33 -35.17,-53.68 -35.17,-53.68 0,0 -49.98,-35.17 -65.72,-56.46 -15.73,-21.29 -8.33,-17.59 -16.66,-33.32 -8.33,-15.73 -4.63,-26.84 -15.74,-33.32 -11.11,-6.48 -49.98,-31.47 -62.01,-43.5 -11.35,-11.35 -13.64,-3.76 -22.41,-4.41 -0.53,-0.04 -1.08,-0.11 -1.66,-0.21 -10.18,-1.85 -71.27,-160.13 -74.05,-174.01 -2.78,-13.88 -1.85,-26.84 -1.85,-44.43 0,-17.59 -7.4,-25.92 -19.44,-67.57 -12.03,-41.65 -104.94,-74.68 -104.94,-74.68 0,0 -56.02,-25.61 -81.23,-43.22 -25.21,-17.61 -6,-7.6 -7.6,-13.6 -1.6,-6 -15.61,-69.63 -16.41,-72.03 -0.8,-2.4 -5.2,-3.2 -14.41,-11.2 -9.2,-8 -11.21,-10.8 -16.01,-19.61 -4.8,-8.8 -98.04,-118.05 -99.64,-120.45 -1.6,-2.4 -8.4,-8 -8.4,-8 0,0 -29.61,-16.81 -36.01,-17.61 -6.4,-0.8 -44.8,-0.37 -44.8,-0.37l-220.38 -253.96 -19.37 -85.24c0,0 70.37,-3.76 80.11,-2.54 9.74,1.22 34.08,9.13 48.69,14 14.61,4.87 26.17,28 40.17,35.91 14,7.91 48.08,18.87 97.38,15.82 49.3,-3.04 53.56,-7.3 63.9,-7.91 10.35,-0.61 26.78,-2.43 35.3,-1.83 8.52,0.61 38.95,16.43 46.86,19.48 7.91,3.04 36.52,14.61 50.51,20.08 14,5.48 15.82,8.52 28,20.08 12.17,11.56 15.82,26.17 30.43,49.91 12.44,20.22 42.54,67.37 51.2,80.9 1.5,2.36 2.36,3.69 2.36,3.69 0,0 18.26,23.13 32.87,31.65 14.61,8.52 21.91,23.74 30.43,33.47 8.52,9.74 14.61,14.61 28.61,20.08 14,5.48 110.77,71.21 132.07,90.68 21.3,19.48 32.26,23.74 59.64,42.6 27.39,18.87 14.61,12.17 28,23.13zm-452.89 309.16c12.02,12.02 23.16,10.24 42.3,23.15 19.15,12.91 23.16,28.94 29.83,48.98 6.68,20.04 -15.58,81.04 -19.15,88.17 -3.56,7.12 -4.45,-7.13 -8.46,-16.92 -4.01,-9.8 -4.45,-23.15 -11.13,-38.74 -6.68,-15.59 -20.41,-20.71 -21.52,-22.04 -1.11,-1.33 -10.63,-7.75 -24.8,-31.44 -14.17,-23.69 -19.92,-16.16 -21.69,-19.26 -1.77,-3.1 -3.32,-10.63 -10.18,-22.58l-9.97 -12.89c0,0 8.01,-10.69 24.49,-12.91 16.48,-2.23 18.26,4.45 30.28,16.48zm-323.72 -283.2c0,0 25.38,1.78 34.73,4.45 9.35,2.67 16.48,14.69 33.84,27.16 17.37,12.47 27.61,21.82 34.73,29.83 7.13,8.01 25.83,25.83 25.83,25.83 0,0 -39.63,-5.79 -51.21,-13.36 -11.58,-7.57 -13.8,-5.79 -43.64,-20.48 -29.83,-14.69 -7.12,-7.57 -15.58,-19.15 -8.46,-11.58 -22.71,-23.15 -22.71,-23.15l4.01 -11.13zm1219.96 235.62c0,0 42.26,13.83 48.8,16.14 6.53,2.31 6.15,15.37 5.76,23.44 -0.38,8.07 9.61,31.51 15.37,38.81 5.76,7.3 15.75,18.83 19.21,20.36 3.46,1.54 8.07,-1.54 22.67,-11.14 14.6,-9.6 14.22,3.84 31.89,10.37 17.67,6.53 27.66,26.51 32.28,30.35 4.61,3.84 -6.15,20.36 -18.44,21.9 -12.29,1.54 -20.75,-3.84 -29.2,-2.31 -8.45,1.54 -45.72,1.54 -62.63,-4.61 -16.91,-6.15 -24.21,-30.74 -38.42,-47.26 -14.22,-16.52 -12.3,-25.74 -15.75,-34.96 -3.46,-9.22 -2.69,-12.29 -2.3,-23.44 0.38,-11.14 -24.21,-30.74 -26.9,-33.81l17.67 -3.84zm226.41 137.14c0,0 16.31,11.37 21.74,13.84 5.44,2.47 6.42,21.25 6.42,21.25 0,0 -8.9,12.85 -11.37,7.91 -2.47,-4.94 -7.91,-14.82 -18.78,-18.78 -10.87,-3.95 0.49,-20.75 1.98,-24.21zm-903.02 142.08c2.62,-1.31 29.65,-3.49 36.19,-3.49 6.54,0 8.72,3.05 10.03,6.54 1.31,3.49 -22.23,6.98 -30.95,8.28 -8.72,1.31 -26.59,-6.54 -26.59,-6.54 0,0 8.72,-3.49 11.33,-4.8zm-40.54 43.6c3.49,0.44 3.49,6.54 11.77,11.77 8.28,5.23 9.16,10.9 9.59,20.93 0.44,10.03 -20.93,65.83 -23.54,65.39 -2.62,-0.44 -2.18,-17.44 -2.62,-27.03 -0.44,-9.59 5.23,-23.98 9.59,-35.31 4.36,-11.34 -6.1,-16.57 -14.39,-29.21 0,0 6.1,-6.98 9.59,-6.54zm1769.33 481.39c89.94,-12.95 116.56,46.05 116.56,46.05 0,0 -5.76,15.83 -17.99,33.82 -12.23,17.99 2.16,12.95 -3.6,26.62 -5.76,13.67 -24.46,26.62 -28.78,29.5 -4.32,2.88 0,-17.27 -7.2,-28.78 -7.2,-11.51 -12.23,-5.04 -37.42,4.32 -25.18,9.35 -22.31,9.35 -24.46,2.16 -2.16,-7.2 -5.04,-89.22 2.88,-113.68zm-261.91 -35.26c46.05,23.74 104.33,41.01 112.25,50.37 7.92,9.35 25.9,33.1 25.9,33.1 0,0 -25.9,-2.88 -38.86,-7.2 -12.95,-4.32 -26.62,-11.51 -30.94,0.72 -4.32,12.23 -10.07,19.43 -4.32,27.34 5.76,7.92 13.67,8.63 12.23,12.95 -1.44,4.32 -7.92,15.83 -23.74,10.79 -15.83,-5.04 -18.71,-19.43 -56.12,-29.5 -37.42,-10.07 -76.99,-18.71 -74.83,-33.1 2.16,-14.39 13.67,-19.43 4.32,-42.45 -9.35,-23.02 3.6,-35.98 -38.85,-56.84 -42.45,-20.87 -52.53,-23.03 -69.07,-23.03 -16.55,0 -25.9,-2.16 -33.82,-12.95 -7.91,-10.79 -7.91,-10.79 -7.91,-10.79 15.11,-5.76 47.49,-23.75 45.33,-35.98 -2.16,-12.23 -23.03,-21.59 8.63,-30.94 31.66,-9.35 79.15,-24.46 100.73,-19.43 21.59,5.04 11.51,15.83 24.46,42.45 12.95,26.62 31.66,87.78 34.54,101.45 2.88,13.67 -35.98,-0.72 10.07,23.02zm-1200.94 33.42c0,0 20.93,18.75 25.29,21.8 4.36,3.05 25.72,32.7 37.49,44.03 11.77,11.33 24.85,23.54 24.85,23.54 0,0 -13.95,2.18 -18.31,7.85 -4.36,5.67 3.92,25.29 3.92,25.29 0,0 -4.36,4.8 -5.23,1.74 -0.87,-3.05 -7.85,-13.51 -13.51,-23.98 -5.67,-10.46 -9.16,-10.9 -13.08,-24.85 -3.92,-13.95 -4.36,-20.05 -6.98,-23.11 -2.62,-3.05 -29.21,-13.95 -30.52,-20.05 -1.31,-6.1 -3.92,-32.26 -3.92,-32.26zm-79.78 -98.96c0,0 5.23,2.18 12.64,6.98 7.41,4.79 30.08,44.03 30.95,46.65 0.87,2.62 -30.52,-15.69 -40.54,-21.36 -10.03,-5.67 -4.36,-23.11 -3.05,-32.26zm-173.95 -218.85c0,0 20.49,2.62 35.31,17.87 14.82,15.26 61.47,118.15 63.65,127.74 2.18,9.59 -13.08,26.59 -19.62,26.59 -6.54,0 -69.75,-71.5 -78.91,-88.5 -9.15,-17 -0.44,-78.91 -0.44,-83.7z"/>
    </g>
   </g>
   <g>
    <path class="fil1 str0" d="M1339.94 1320.33c0.61,4.26 1.2,13.72 0.87,16.59 -0.38,3.3 -1.26,16.06 -2.94,20.88 -1.67,4.82 -13.54,16.18 -16.26,28.03 -2.72,11.85 -2.92,22.73 -3.63,28.94 -0.71,6.21 -13.02,12.06 -18.51,16.63 -5.49,4.57 -14.54,9.87 -19.82,13.22 -5.28,3.35 -18.04,8.33 -21,12.07 -2.96,3.74 -2.3,5.39 -14.86,7.33 -12.56,1.94 -14.85,0.77 -22.7,-0.37 -7.85,-1.15 -16.75,-5.51 -21.07,-1.71 -4.32,3.8 -7,7.52 -4.08,10.49 2.92,2.96 7.74,22.17 8.27,26.12 0.53,3.95 1.12,9.95 2.57,11.02 1.46,1.07 11.53,10.84 14.99,17.07 3.46,6.23 7.97,12.63 8.54,17.21 0.43,3.48 2,18.03 2.73,24.84l1.38 0.68 0 0 40.35 19.77 10.53 26.33 28.67 4.68c0,0 38.04,34.53 41.55,34.53 1.94,0 12.95,-0.89 22.44,-1.69 7.72,-0.65 14.43,-1.24 14.43,-1.24 0,0 31.6,-15.22 40.96,-12.29 9.36,2.93 28.09,2.34 37.45,1.76 9.36,-0.59 52.67,-21.65 52.67,-21.65l16.97 -37.45c0,0 56.76,-0.58 57.35,-4.1 0.58,-3.51 3.51,-39.21 8.19,-37.45 4.68,1.76 22.82,22.82 22.82,22.82 0,0 13.46,15.21 23.99,4.68 10.53,-10.53 18.14,-19.9 18.14,-19.9l-5.85 -26.92 9.36 -16.38 49.16 -21.07 32.18 -19.31 67.88 5.85 21.09 -24.43c-1.39,-7.1 -2.93,-16.48 -5.02,-33.77 -4,-33.21 -12.01,-68.83 -12.01,-68.83 0,0 -8.8,-8 -29.21,-9.6 -20.41,-1.6 -99.64,-14.01 -123.25,-28.01 -13.6,-8.07 -21.36,-16.54 -25.57,-23.42 -0.64,-1.05 -1.21,-2.07 -1.69,-3.04 0,0 -7.15,-1.71 -11.02,-3.37 -3.87,-1.66 -62.11,0.39 -70.15,-0.26 -8.04,-0.65 -2.86,14.09 -3.41,26.81 -0.55,12.72 -46.46,32.64 -61.4,37.06 -14.93,4.43 -30.42,-12.72 -55.87,-22.13 -25.44,-9.4 -29.31,-7.74 -50.84,-8.22 -21.53,-0.48 -24.38,6.01 -48.3,10.19 -2.6,0.45 -4.95,0.78 -7.08,1.01z"/>
    <path class="fil2" d="M1502.94 1432.72c0.27,-5.37 2.16,-9.51 5.67,-12.43 3.52,-2.92 8.14,-4.39 13.88,-4.39 3.92,0 7.27,0.68 10.06,2.05 2.79,1.37 4.9,3.22 6.32,5.55 1.42,2.33 2.13,4.98 2.13,7.93 0,3.38 -0.87,6.24 -2.62,8.57 -1.74,2.33 -3.82,3.9 -6.24,4.71l0 0.32c3.11,0.97 5.54,2.68 7.28,5.15 1.74,2.47 2.62,5.63 2.62,9.5 0,3.22 -0.74,6.09 -2.21,8.61 -1.48,2.52 -3.65,4.49 -6.52,5.92 -2.87,1.42 -6.32,2.13 -10.34,2.13 -6.06,0 -11,-1.53 -14.81,-4.59 -3.81,-3.06 -5.82,-7.57 -6.04,-13.52l10.95 0c0.11,2.63 1.01,4.74 2.7,6.32 1.69,1.58 4.01,2.37 6.96,2.37 2.74,0 4.84,-0.77 6.32,-2.29 1.48,-1.53 2.21,-3.5 2.21,-5.92 0,-3.22 -1.02,-5.53 -3.06,-6.92 -2.04,-1.4 -5.2,-2.09 -9.5,-2.09l-2.33 0 0 -9.26 2.33 0c7.62,0 11.43,-2.55 11.43,-7.65 0,-2.31 -0.68,-4.1 -2.05,-5.39 -1.37,-1.29 -3.34,-1.93 -5.92,-1.93 -2.52,0 -4.47,0.68 -5.84,2.05 -1.37,1.37 -2.16,3.1 -2.37,5.19l-11.03 0z"/>
   </g>
  </g>
 </g>
</svg>
