<?xml version="1.0" encoding="UTF-8"?>
<!DOCTYPE svg PUBLIC "-//W3C//DTD SVG 1.1//EN" "http://www.w3.org/Graphics/SVG/1.1/DTD/svg11.dtd">
<!-- Creator: CorelDRAW -->
<svg xmlns="http://www.w3.org/2000/svg" xml:space="preserve" width="261.018mm" height="230.731mm" version="1.1" style="shape-rendering:geometricPrecision; text-rendering:geometricPrecision; image-rendering:optimizeQuality; fill-rule:evenodd; clip-rule:evenodd"
viewBox="0 0 4086.21 3612.06"
 xmlns:xlink="http://www.w3.org/1999/xlink"
 xmlns:xodm="http://www.corel.com/coreldraw/odm/2003">
 <defs>
  <style type="text/css">
   <![CDATA[
    .str0 {stroke:#FAB617;stroke-width:10.6;stroke-miterlimit:22.9256}
    .fil0 {fill:none}
    .fil1 {fill:#E7B32E}
   ]]>
  </style>
 </defs>
 <g id="Layer_x0020_1">
  <metadata id="CorelCorpID_0Corel-Layer"/>
  <g id="_2022565909584">
   <rect class="fil0" x="-0" width="4086.21" height="3612.06"/>
   <g>
    <g>
     <path class="fil1" d="M2680.97 2148.35l34.43 -34.43c-2.67,18.51 -18.78,28.1 -34.43,34.43z"/>
     <path class="fil1" d="M2704.93 2073.77l-119.56 119.56c-10.44,3.48 -20.41,5.92 -30,7.5l140.95 -140.95c3.33,4.89 6.2,9.52 8.6,13.89z"/>
     <path class="fil1" d="M2670.49 2035.11l-166.74 166.74c-6.58,-0.78 -13.01,-1.87 -19.34,-3.16l167.87 -167.87c6.59,1.07 12.84,2.41 18.2,4.29z"/>
     <path class="fil1" d="M2608.19 2024.31l-163.99 163.99c-5.85,-1.69 -11.67,-3.39 -17.5,-5l165.81 -165.81c2.5,1.58 5.16,3.03 8.05,4.31 2.21,0.98 4.78,1.8 7.62,2.51z"/>
     <path class="fil1" d="M2566.07 1993.33l-181.1 181.1c-6.94,-0.85 -14,-1.32 -21.21,-1.28l189.65 -189.65c4.58,2.36 8.64,5.84 12.66,9.83z"/>
     <path class="fil1" d="M2511.33 1974.96l-204.53 204.53c-9.56,1.25 -18.13,2.35 -25.8,3.3l209.7 -209.7c6.68,0.49 13.54,1.07 20.62,1.87z"/>
     <path class="fil1" d="M2444.07 1969.11l-218.54 218.54c-12.18,-0.47 -11.08,-4.27 -12.09,-10.4l211.78 -211.78c6.26,1.58 12.53,2.74 18.85,3.64z"/>
     <path class="fil1" d="M2389.22 1950.86l-201.27 201.27c-4.48,-2.77 -8.74,-6.02 -12.83,-9.67l200.49 -200.49c4.6,3.34 9.13,6.28 13.62,8.88zm-333.42 333.42l-98.22 98.22c-6.03,0.92 -12.32,1.43 -18.89,1.43 -1.5,0 -3.07,-0.13 -4.69,-0.35l124.87 -124.87c-0.13,8.26 -1.15,16.88 -3.07,25.56z"/>
     <path class="fil1" d="M2348.63 1918.35l-197 197c-3.08,-4.36 -6.07,-8.89 -8.98,-13.51l194.57 -194.57c3.11,2.71 6.26,5.73 9.48,9.09 0.65,0.68 1.29,1.33 1.93,1.99zm-298.87 298.87l-152 152c-4.68,-2.57 -9.46,-5.34 -14.28,-8.22l156.16 -156.16c3.99,3.36 7.37,7.54 10.12,12.38z"/>
     <path class="fil1" d="M2305.19 1888.68l-181.19 181.19c-2.73,-4.87 -5.42,-9.69 -8.1,-14.39l170.16 -170.16c6.52,0.42 12.84,1.45 19.13,3.36zm-280.91 280.91l-172.2 172.2c-4.89,-2.94 -9.66,-5.74 -14.24,-8.26l182.87 -182.87c1.85,6.83 2.91,13.2 3.57,18.93z"/>
     <path class="fil1" d="M2231.98 1888.79l-135.58 135.58c-3.33,-4.55 -6.72,-8.68 -10.21,-12.29l121.75 -121.75c8.54,-0.28 16.52,-0.86 24.04,-1.54zm-227.15 227.15l-206.76 206.76c-9.39,1.79 -15.79,0.75 -20.18,-2.32l217.22 -217.22c3.68,4.29 6.9,8.56 9.72,12.77z"/>
     <path class="fil1" d="M2159.53 1888.13l-108.44 108.44c-10.4,-0.45 -17.91,0.07 -23.53,1.04l111.75 -111.75c6.43,0.76 13.18,1.51 20.23,2.27zm-186.23 186.23l-205.91 205.91c-0.36,-6.85 -0.88,-13.79 -2.24,-20.25l200.27 -200.27c2.16,4.68 4.77,9.56 7.88,14.61z"/>
     <path class="fil1" d="M2094.68 1879.87l-113.08 113.08c-1.91,-1.23 -3.96,-2.57 -6.18,-4.04 -5.13,-3.39 -17.48,7.58 -18.97,29.19l-209.29 209.29c-2.97,-4.82 -5.6,-9.71 -7.9,-14.6l336.16 -336.16c6,1.09 12.41,2.17 19.27,3.23z"/>
     <path class="fil1" d="M2034.21 1867.25l-306.32 306.32c-0.86,-8.68 -0.42,-16.76 1.34,-23.83l288.04 -288.04c5.18,1.92 10.78,3.77 16.94,5.55z"/>
     <path class="fil1" d="M1982.93 1845.42l-210.76 210.76c1.17,-5.3 2.54,-9.53 5.41,-12.94 6.5,-7.73 10.54,-17.2 12.73,-27.69l178.44 -178.44c4.9,2.91 9.56,5.68 14.18,8.31z"/>
     <path class="fil1" d="M1936.56 1818.68l-146.74 146.74c-1.05,-6.24 -2.38,-12.48 -3.9,-18.6l135.82 -135.82c5.31,2.65 10.22,5.21 14.82,7.68z"/>
     <path class="fil1" d="M1887.14 1795l-113.49 113.49c-2.11,-5.43 -4.23,-10.47 -6.25,-14.97l-0.4 -0.87 104.28 -104.28c5.56,2.27 10.85,4.48 15.86,6.64z"/>
     <path class="fil1" d="M1836.12 1772.92l-86.41 86.41c-3.08,-5.04 -6.09,-9.49 -9.05,-13.45l84.33 -84.33c3.44,4.48 7.1,8.31 11.12,11.37z"/>
     <path class="fil1" d="M1806.31 1729.62l-91.83 91.83c-5.74,-3.19 -11.21,-4.96 -16.43,-6.07l100.74 -100.74c2.6,5.14 5.08,10.16 7.51,14.98z"/>
     <path class="fil1" d="M1780.75 1682.08l-121.8 121.8c-4.1,-3.69 -7.91,-7.36 -11.5,-11l124.23 -124.23c3.23,4.44 6.24,8.92 9.07,13.42z"/>
     <path class="fil1" d="M1748.84 1640.89l-124.48 124.48c-3.25,-4.67 -6.12,-9.27 -8.68,-13.82l124.88 -124.88c2.03,4.56 4.7,9.29 8.28,14.22z"/>
     <path class="fil1" d="M1731.21 1585.41l-130.03 130.03c-1.64,-6.58 -2.71,-12.95 -3.39,-19.11l126.37 -126.37c3.73,4.87 5.74,10 7.05,15.45z"/>
     <path class="fil1" d="M1693.44 1550.08l-94.62 94.62c0.71,-8.7 1.12,-16.3 0.14,-22.63l77.57 -77.57c6.35,1.83 11.96,3.69 16.91,5.58z"/>
     <path class="fil1" d="M1635.32 1535.1l-57.29 57.29c-3.81,-4.62 -7,-8.9 -9.64,-12.86l40.48 -40.48c3.42,1.49 5.96,3.23 7.1,5.06 -1.08,-1.75 -3.91,-6.09 -3.18,-8.97l2.32 -2.32c1.49,-0.52 3.78,-0.61 7.17,-0.03 4.55,0.76 8.87,1.54 13.05,2.31z"/>
    </g>
    <path class="fil0 str0" d="M1615.96 1544.11c-9.13,-14.71 -109.73,-24.16 -22.9,64.93 24.64,25.28 -36.53,102.71 66.06,195 26.29,23.65 59.92,-18.26 108.29,89.46 17.07,38 40.82,113.28 10.17,149.73 -11.08,13.18 0.22,38.49 -41.18,91.18 -17.15,21.83 -9.36,69.18 21.12,107.82 22.08,27.99 -7.68,92.39 43.97,79.73 26.46,-6.49 100.62,61.96 137.19,61.96 120.49,0 150.18,-162.55 90.04,-185.55 -8.44,-3.23 7.25,-49.03 -35.03,-96.81 -64.51,-72.91 -28.12,-119.16 -18.28,-112.65 50.56,33.42 16.07,2.78 83.38,8.14 49.92,3.97 72.58,125.61 133.89,157.81 56.45,29.65 -43.72,45.92 151.83,19.59 99.44,-13.39 162.78,81.28 307.76,-14.92 18.1,-12.01 111.28,-17.22 31.98,-115.86 -13.61,-16.93 -63.63,-13 -83.71,-21.89 -25.48,-11.27 -34.1,-36.09 -53.66,-40.73 -80.97,-19.22 -130.3,8.38 -200.21,-64.71 -53.29,-55.71 -89.29,-18.04 -179.91,-27.46 -215.37,-22.38 -145.31,-44.31 -320.75,-110.43 -35.26,-13.28 -42.71,-77.96 -89.36,-128.08 -53.77,-57.79 26.47,-90.55 -134.4,-117.6 -15.32,-2.58 -8.19,8.29 -6.31,11.32z"/>
   </g>
  </g>
 </g>
</svg>
