<?xml version="1.0" encoding="UTF-8"?>
<!DOCTYPE svg PUBLIC "-//W3C//DTD SVG 1.1//EN" "http://www.w3.org/Graphics/SVG/1.1/DTD/svg11.dtd">
<!-- Creator: CorelDRAW -->
<svg xmlns="http://www.w3.org/2000/svg" xml:space="preserve" width="261.019mm" height="230.731mm" version="1.1" style="shape-rendering:geometricPrecision; text-rendering:geometricPrecision; image-rendering:optimizeQuality; fill-rule:evenodd; clip-rule:evenodd"
viewBox="0 0 4997.95 4418.01"
 xmlns:xlink="http://www.w3.org/1999/xlink"
 xmlns:xodm="http://www.corel.com/coreldraw/odm/2003">
 <defs>
  <style type="text/css">
   <![CDATA[
    .str0 {stroke:#4F8250;stroke-width:5.06;stroke-miterlimit:22.9256}
    .fil0 {fill:none}
    .fil1 {fill:#4F8250}
    .fil2 {fill:white;fill-rule:nonzero}
   ]]>
  </style>
 </defs>
 <g id="Layer_x0020_1">
  <metadata id="CorelCorpID_0Corel-Layer"/>
  <g id="_2284971259024">
   <g>
    <rect class="fil0" width="4997.95" height="4418.01"/>
    <g>
     <path class="fil0" d="M2672.47 1706.13c-0.48,-1.32 -0.93,-2.66 -1.36,-4.02 -2.79,-8.92 -3.86,-18.74 -7.07,-27.29 -7.22,-19.24 -5.67,-28.22 -4.99,-48.13 0.27,-7.91 -14.88,-24.53 -20.37,-30.23 -5.43,-5.64 -11.13,-11 -16.91,-16.28 -3.44,-3.14 -7.94,-6.81 -10.97,-10.27l-11.31 -12.92 52.81 -11.48 2.61 0.85c13.86,4.53 27.72,9.09 41.58,13.65 16.87,5.55 33.98,10.97 50.72,16.88 19.7,6.95 18.44,37.2 17.62,54.26 -0.64,13.33 18.33,55.7 26.83,66.46 5.49,6.95 24.76,30.59 32.08,35.23 5.44,-1.05 29.34,-17.33 33.42,-20.02 13.91,-9.15 25.89,-11.61 39.59,-1.25 10.87,8.22 15.97,14.72 29.66,19.78 17.71,6.54 31.97,19.27 43.94,33.53 4.61,5.49 8.84,11.2 13.1,16.95 1.63,2.2 4.8,6.82 6.84,8.52 11.5,9.59 3.35,26.73 -3.86,36.21 -8.59,11.31 -21.79,21.16 -36.17,22.95 -11.78,1.47 -22.07,0.04 -33.55,-2.3 -6.4,-1.31 -14.47,-3.32 -20.99,-2.13 -6.97,1.27 -15.19,1.48 -22.27,1.65 -11.02,0.27 -22.1,0.09 -33.11,-0.41 -21.24,-0.98 -48.25,-3.18 -68.06,-10.39 -35.84,-13.03 -52.39,-63.81 -76.72,-92.09 -5.86,-6.81 -11.1,-13.84 -15.46,-21.39 0.03,0.09 0.07,0.18 0.1,0.27 2.92,7.67 5.83,15.29 9.07,22.84 9.14,21.3 20.42,41.38 35.01,59.46 7.25,8.98 20.6,25.24 31.56,30.01 2.93,1.28 5.88,1.81 8.99,2.38 5,0.91 9.47,1.93 14.23,3.83 48.34,19.34 96.57,38.92 144.96,58.13 15.46,6.14 29.89,12.54 44.58,20.27 7.21,3.79 10.77,4.96 19.03,6.33 27.3,4.55 60.36,20.84 85.64,32.51 10.58,4.88 21.21,11.19 31.28,17.08 13.27,7.75 26.43,15.7 39.66,23.52 9.65,5.7 48.44,29.12 58.16,30.28 14.13,1.69 35.57,5.62 38.93,22.42 2.77,13.82 4.97,28.27 12.35,40.57 4.34,7.23 8.13,16.18 7.45,24.79 -0.71,9.06 -6.34,15.98 -15.19,18.19 -10.71,2.75 -60.6,30.45 -66.67,39.05 -3.6,5.1 -8.68,10.24 -11.8,15.37 -1.69,2.79 -1.84,4.46 -0.63,7.58 3.54,8.58 40.55,33.88 49.62,39.68l9.62 6.13 -7.23 8.83c-13.92,17.01 -27.89,33.97 -41.9,50.9 -18.51,22.39 -37.19,45.63 -56.56,67.24 -1.61,1.79 -9.41,10.82 -9.23,13.53 0.04,0.69 0.78,2.34 1.03,2.96 1.32,3.35 2.22,6.42 2.46,10.05 0.37,5.57 4.07,13.01 6.91,17.65 10.39,16.98 27.89,30.75 44.78,40.76 13.33,7.91 32.45,13.71 47.33,17.95 22.35,6.38 45.25,11.48 68.03,16.03 22.3,4.45 44.74,8.36 67.22,11.75 14.98,2.26 30.49,4.55 45.6,5.73 18.32,1.44 46.91,7.74 61.16,20.74l2.36 2.16 0.7 3.12c9.56,42.79 17.58,87.38 22.82,130.87 2.53,21.01 5.27,42.2 9.35,62.97 2.26,11.53 4.97,22.96 7.16,34.52 4.8,25.36 78,88.42 99.33,106.7 12.58,10.78 23.97,23.18 31.3,38.18 4.36,8.92 5.97,16.99 9.32,25.92 4.32,11.52 18.7,24.32 28.11,32.18 5.1,2.79 22.12,6.37 27.85,7.68 18.17,4.15 36.49,7.81 54.75,11.52 19.45,3.95 38.92,7.85 58.29,12.14 13.36,2.96 28.77,6.16 41.58,10.88 9.92,3.66 20.95,6.8 30.57,10.87 7.93,3.36 13.42,8.08 19.81,13.76 8.98,7.98 11.41,13.75 13.31,25.12 2.32,13.94 5.94,24.65 11.88,37.61 6.46,14.1 13.59,27.85 23.06,40.19 7.29,9.5 15.58,18.18 22.92,27.72 8.6,11.19 29.33,23.21 41.44,30.77 14.41,9.01 35.76,21.87 44.74,36.47 5.14,8.34 10.45,16.79 7.1,26.85 -0.8,2.4 -1.84,4.58 -2.49,7.06 -1.11,4.24 -1.36,8.96 -1.36,13.32 0,29.36 -58.94,117.83 -79.21,147.26 -2.01,10.77 -1.9,24.99 -1.15,35.4 1.28,17.88 29.57,63.13 40.21,78.89l3.4 5.04 -2.84 5.37c-7.11,13.42 -14.87,28.51 -23.23,41.05 -8.7,13.04 -16.75,25.86 -22.9,40.37 -3.02,7.12 -5.58,14.63 -7.01,22.25 -4.6,24.55 13.71,62.89 25.16,84.15 13.59,25.23 10.23,51.67 4.48,78.53 -1.87,8.73 -2.67,18.77 -3.48,27.67 -1.31,14.44 -2.32,28.92 -3.31,43.39 -2.14,31.21 -3.9,62.63 -7.01,93.76 -2.04,20.43 -3.45,41.27 -6.39,61.57 -2.66,18.37 -7.03,35.17 -13.38,52.66 -4.4,12.11 -7.18,26.68 -9.54,39.35 -3.23,17.3 -5.86,34.77 -8.26,52.2 -2.97,21.56 -5.64,43.29 -7.84,64.94l-1.18 11.65 -11.35 -2.84c-8.41,-2.1 -16.99,-4.47 -25.2,-7.21 -6.26,-2.09 -18.73,-12.8 -23.98,-17.14 -12.07,-9.96 -23.91,-20.25 -35.67,-30.57 -13.87,-12.16 -27.66,-24.44 -41.36,-36.8 -10.12,10.69 -20.46,21.25 -30.91,31.57 -9.28,9.17 -18.8,18.37 -28.72,26.84 -5.95,5.08 -16.62,14.39 -24.79,14.39 -17.36,0 -51.5,-29.28 -65.71,-40.64 -5.55,-4.44 -19.44,-10.06 -26.14,-12.89 -14.94,-6.31 -30.18,-12.1 -45.4,-17.73 -12.7,-4.7 -25.46,-9.32 -38.26,-13.81 2.07,3.08 4.04,5.81 5.47,7.72 15.29,20.39 21.37,88.74 22.97,115.51l0.98 16.52 -15.14 -6.63c-9.43,-4.09 -18.25,-12.8 -22.47,-22.17 -3.18,-3.99 -15.92,-12.78 -20.01,-15.71 -13.46,-9.65 -27.06,-19.06 -40.41,-28.87 -21.67,-15.92 -60.02,-44.66 -70.81,-69.49 -4.91,-11.3 -25.6,-32.87 -34.27,-42 -21.45,-22.63 -44.09,-44.44 -66.75,-65.86 -38.8,-36.68 -78.47,-72.63 -118.49,-107.97 -1.33,-1.18 -2.67,-2.36 -4,-3.53 -16.2,-1.25 -34.26,-9.74 -46.15,-19.66 -6.21,-5.18 -11.74,-9.42 -18.77,-13.35 -9.77,-5.47 -18.56,-11.11 -27.74,-17.59 -11.18,-7.89 -22.02,-16.9 -27.82,-29.61 -3.95,-8.64 -5.51,-18.43 -8.97,-27.43 -0.53,-1.37 -1.99,-5.33 -2.98,-6.75 -0.9,-0.38 -2.46,-0.75 -3.29,-0.98 -3.42,-0.96 -6.74,-2 -10.06,-3.25 -13.58,-5.11 -26.94,-12.99 -39.08,-20.82 -9.74,-6.28 -19.56,-12.64 -29.01,-19.36 -4.4,-3.13 -8.96,-6.47 -12.88,-10.2 -2.19,-2.09 -4.01,-4.29 -6.04,-6.51 -2.75,-3.01 -5.84,-5.72 -8.96,-8.32 -7.51,-6.26 -17.55,-12.26 -25.89,-17.41 -12.8,-7.89 -25.81,-15.49 -38.85,-22.97 -16.76,-9.62 -33.65,-19.13 -50.63,-28.37l-1.11 -0.61 -122.29 -113.29 -0.54 -3.49c-2.86,-18.6 -5.62,-37.2 -8.71,-55.77 -1.4,-8.39 -9.79,-16.43 -15.81,-21.89 -9.91,-8.98 -20.68,-17.09 -29.2,-27.5 -4.42,-5.4 -17.99,-13.68 -24.03,-17.43 -14.4,-8.96 -29.22,-17.36 -43.92,-25.83 -14.97,-8.63 -30.05,-17.28 -44.6,-26.58 -8.85,-5.65 -22.88,-14.67 -29.18,-23.06 -7.67,-10.23 -15.8,-20.11 -23.67,-30.18 -14.2,-18.16 -27.76,-36.81 -41.11,-55.61 -7,-9.86 -14.2,-19.56 -21.77,-28.99 -4.09,-5.1 -8.43,-10.11 -12.35,-15.33 -8.57,-11.43 -12.1,-23.66 -16.21,-37.19 -9.57,-31.43 -104.54,-112.01 -132.82,-135.06 -0.56,-0.46 -1.12,-0.91 -1.68,-1.36l-1.51 -1.13 -1.04 -1.78c-13.85,-23.88 -27.64,-47.81 -41.84,-71.48 -9.3,-15.5 -14.06,-37.18 -17.62,-54.97 -1.7,-8.5 -3.21,-17.05 -4.98,-25.54 -0.84,-4.02 -2.15,-10.84 -3.98,-14.49 -3.48,-6.95 -6.06,-19.58 -7.87,-27.26 -3.48,-14.78 -6.73,-29.61 -10.18,-44.4 -3.78,-16.21 -7.73,-32.45 -12.34,-48.46 -3.49,-12.11 -7.63,-25.8 -13.27,-37.08 -9.3,-18.61 -22.39,-34.78 -35,-51.19 -16.75,-21.8 -31.25,-42.88 -43.6,-67.57 -14.85,-29.7 -29.78,-59.44 -43.79,-89.55 -6.04,-12.99 -23.65,-49.68 -23.64,-63.24 -1.94,-12.8 -50.72,-77.73 -63.33,-94.09 -17.06,-12.05 -33.93,-24.86 -50.28,-37.81 -14.21,-11.26 -28.25,-22.88 -41.65,-35.11 -11.53,-10.53 -23.85,-22.43 -33.14,-35 -8.33,-11.27 -18.25,-24.82 -22.48,-38.37 -1.1,-3.53 -1.91,-7.14 -3.07,-10.66 -1.72,-5.23 -4.12,-10.26 -6.7,-15.13 -7.31,-13.82 -9.73,-25.41 -13.71,-40.08 -2.23,-8.24 -4.44,-14.3 -12.14,-18.79 -19.76,-11.53 -39.52,-24.64 -58.44,-37.48 -11.7,-7.94 -23.33,-16.07 -34.64,-24.57 -8.8,-6.61 -18.22,-13.84 -26,-21.62 -17.09,-17.09 -15.46,-3.86 -35.88,-5.39 -1.4,-0.11 -2.8,-0.29 -4.18,-0.54 -8.19,-1.49 -14.38,-12.29 -18.24,-18.89 -6.72,-11.49 -12.66,-23.82 -18.32,-35.86 -16.49,-35.06 -31.52,-71.17 -46.12,-107.06 -14.97,-36.81 -29.49,-73.87 -43.39,-111.1 -5.03,-13.48 -10,-27.01 -14.7,-40.61 -2.42,-6.99 -5.63,-15.58 -7.08,-22.81 -5.63,-28.15 -3.69,-57.28 -3.69,-85.82 0,-15.92 -3.98,-28.44 -9.24,-43.34 -9.64,-27.24 -18.99,-53.48 -27.03,-81.34 -16.99,-58.81 -136.46,-114.51 -191.68,-134.19l-0.42 -0.15 -0.4 -0.18c-19.94,-9.12 -39.77,-18.75 -59.36,-28.58 -17.05,-8.55 -34,-17.35 -50.68,-26.6 -15.17,-8.42 -30.59,-17.33 -44.82,-27.27 -6.58,-4.6 -26.05,-17.04 -28.55,-25.11 -2.14,-6.91 2.08,-12.4 8.26,-14.08 -1.37,-5.82 -2.63,-11.73 -3.93,-17.49 -3.36,-14.83 -6.68,-29.67 -10.01,-44.5 -3.26,-14.56 -6.52,-29.12 -9.82,-43.67 -1.5,-6.63 -2.91,-14.04 -4.73,-20.65 -1.79,-1.39 -5.05,-3.23 -6.65,-4.28 -6.31,-4.14 -12.21,-8.65 -17.9,-13.6 -16.16,-14.05 -22.33,-21.25 -32.45,-39.8 -2.12,-3.86 -6.93,-9.5 -9.7,-13.04 -7.25,-9.23 -14.67,-18.33 -22.11,-27.4 -20.94,-25.54 -42.16,-50.88 -63.4,-76.17 -20.73,-24.68 -41.51,-49.3 -62.3,-73.94 -6.94,-8.23 -13.88,-16.45 -20.8,-24.7 -2.81,-3.34 -6.84,-7.68 -9.23,-11.26 -2.22,-3.24 -9.37,-9.18 -13.19,-12.35 -9.35,-5.27 -18.79,-10.42 -28.29,-15.4 -6.64,-3.48 -28.51,-15.2 -35.16,-16.15 -5.32,-0.66 -11.77,-0.58 -17.16,-0.67 -9.41,-0.15 -18.83,-0.17 -28.24,-0.17 -12.58,0.01 -25.18,0.07 -37.76,0.22l-4.69 0.05 -420.57 -484.66 -39.79 -175.03 12 -0.65c23,-1.24 46.02,-2.32 69.03,-3.28 17.04,-0.71 34.1,-1.37 51.15,-1.76 9.93,-0.22 23,-0.92 32.77,0.3 14.03,1.76 30.55,6.89 44.14,10.97 16.65,4.99 33.19,10.39 49.67,15.88 17.03,5.68 31.21,21.49 42.74,34.66 9.55,10.9 22.23,26.76 34.83,33.89 18.49,10.45 43.28,17.37 63.93,21.57 37.29,7.6 76.27,9.34 114.2,6.99 28.67,-1.77 58.37,-3.99 86.69,-9.05 11.12,-1.99 22.67,-5.22 33.92,-5.88 11.5,-0.68 22.99,-1.76 34.48,-2.58 10.79,-0.76 22.66,-1.63 33.45,-0.86 12.55,0.9 36.36,12.17 48.13,17.54 8.71,3.98 17.35,8.07 26.02,12.14 5.58,2.62 11.45,5.51 17.19,7.72 31.9,12.27 63.53,25.46 95.37,37.92 28.14,11.01 34.79,19.73 56.11,39.98 12.62,11.98 20.9,25.81 28.97,41.09 9.88,18.7 18.97,37.03 30.1,55.12 31.49,51.17 64.14,101.87 96.51,152.51 1.4,2.19 2.9,4.41 4.26,6.64 14.57,18.39 39.17,45.31 58.78,56.75 14.49,8.45 25.73,20.12 35.92,33.26 8.09,10.44 15.37,22.1 24.02,31.98 16.08,18.38 26.99,26.12 50.04,35.13 5.98,2.34 12.52,6.25 18.07,9.51 9.48,5.56 18.83,11.41 28.1,17.31 25.38,16.15 50.45,32.93 75.28,49.91 26.2,17.91 52.24,36.13 77.85,54.86 17.57,12.85 36.99,26.81 53.03,41.49 16.19,14.81 32.48,27.55 50.73,39.66 20.21,13.41 40.71,26.07 60.72,39.86 9.04,6.23 18.21,12.55 26.92,19.24 3.83,2.94 7.79,6.09 11.08,9.64 1.71,1.85 3.18,3.86 4.88,5.71 3.15,3.42 7.02,6.62 10.61,9.55 12.56,10.27 26.06,20.1 39.06,29.83 20.62,15.44 41.32,30.77 62.05,46.07 27.65,20.42 55.34,40.79 83.07,61.1l5.05 3.7 -1.05 6.18c-2.56,15.06 -4.69,31.39 -4.96,46.67 -0.08,4.52 -0.07,10.47 1.03,14.86 2.41,8.94 33.69,43.9 40.9,51.92 12.24,13.61 24.79,27.13 37.54,40.29 5.33,-0.57 16.17,-4.82 19.62,-6.24 9.06,-3.73 17.91,-8.08 25.91,-13.79 5.68,-4.06 10.63,-8.7 15.91,-13.23 18.31,-15.69 56.76,-13.98 79.12,-12.22 22.5,1.77 42.23,17.92 57.25,33.68 6.63,6.96 12.74,14.3 18.8,21.75 2.25,2.76 7.04,9.2 9.63,11.23 3.35,2.23 8.38,2.96 12.34,3.56 9.5,1.43 18.58,2.63 28,4.76 22.49,5.08 48.21,-0.25 71.01,-0.25 17,0 33.62,2.38 50.42,4.62 21.33,2.84 21.02,40.93 22.35,57.56 0.88,10.98 7.05,27.04 11.05,37.35 6.24,16.07 13.3,31.91 20.52,47.56 13.39,29.03 20.11,42.63 43.27,65.8 19.92,19.92 39.48,40.36 58.89,60.78 9.77,10.28 19.53,20.61 29.12,31.06 4.46,4.86 10.86,11.36 14.93,16.97zm-1804.8 -37.11l-23.11 -29.88 4.65 -6.18c11.69,-15.53 34.22,-25.78 52.95,-28.31 36.52,-4.94 42.85,11.15 65.65,33.96 9.64,9.64 19.13,14.04 31.47,18.97 17.17,6.87 31.31,13 46.85,23.48 38.18,25.75 46.54,56.53 60.24,97.62 8.37,25.11 -3.7,73.14 -10.67,98.23 -4.52,16.27 -9.64,32.44 -15.27,48.36 -3.08,8.71 -6.62,19.26 -10.75,27.51 -3.71,7.43 -11.68,12.67 -19.42,6.84 -3.91,-2.94 -5.66,-7.94 -7.01,-12.46 -2.7,-8.99 -4.4,-18.3 -7.97,-27.01 -4.4,-10.75 -6.61,-22.77 -9.13,-34.09 -2.98,-13.4 -6.39,-26.19 -11.81,-38.85 -4.63,-10.81 -11.84,-19.7 -21.12,-26.85 -3.15,-2.43 -6.44,-4.56 -9.86,-6.58 -2.69,-1.58 -6.1,-3.26 -7.93,-5.48 -1.33,-1.29 -3.1,-2.71 -4.66,-4.16 -3.66,-3.41 -7.14,-7.02 -10.47,-10.76 -12.39,-13.92 -23.18,-29.9 -32.73,-45.87 -4.75,-7.94 -15.44,-24.74 -24.53,-28.62 -1.64,-0.7 -2.93,-0.8 -4.67,-0.98 -5.08,-0.5 -9.19,-2.27 -11.84,-6.91 -2.69,-4.71 -4.65,-11.25 -6.65,-16.38 -3.46,-8.88 -7.5,-17.33 -12.21,-25.61zm-489.48 -485.03c-0.43,-0.73 -0.97,-1.49 -1.28,-1.91 -10.88,-14.89 -26.82,-30.16 -41.09,-41.83l-5.54 -4.53 12.59 -34.97 7.66 0.56c8.9,0.63 17.82,1.44 26.7,2.36 12.86,1.34 28.53,2.87 40.89,6.41 11.92,3.4 21.73,12.75 30.48,21.11 11.9,11.38 23.05,21.99 36.51,31.65 23.68,17 47.76,35.93 67.2,57.79 9.01,10.14 19.16,19.96 28.85,29.46 6.39,6.26 12.82,12.5 19.29,18.67l23.03 21.92 -31.47 -4.56c-25.9,-3.75 -80.19,-13.33 -100.72,-26.75 -9.07,-5.93 -16.6,-9.33 -26.53,-13.38 -18.68,-7.62 -36.62,-15.74 -54.74,-24.66 -8.03,-3.96 -26.45,-12.55 -32.33,-19.36 -3.86,-4.47 -4.75,-10.3 -1.6,-15.4 0.7,-1.13 1.39,-1.85 2.09,-2.58zm2706.61 622.46c5.48,3.82 11.03,7.57 16.6,11.26 6.71,4.44 15.58,10.64 22.82,13.93 14.15,6.43 17.29,34.82 18.04,48.76l0.19 3.44 -1.95 2.85c-2.91,4.24 -6.52,8.67 -10.11,12.34 -2.96,3.03 -6.48,6.09 -10.39,7.77 -7.16,3.07 -14.79,0.74 -18.36,-6.4 -6.55,-13.11 -15.53,-25.24 -29.83,-30.44 -16.22,-5.9 -17.76,-21.38 -13.05,-35.85 1.71,-5.25 4.06,-10.31 6.6,-15.19 1.33,-2.56 3.21,-5.57 4.33,-8.16l4.91 -11.45 10.21 7.13zm-1714.27 267.34c8.52,-4.26 60.96,-7.65 72.81,-7.65 14.03,0 23.52,5.88 28.41,18.92 3.41,9.09 -4.18,14.99 -11.59,17.87 -5.63,2.18 -11.96,3.67 -17.86,4.94 -12.2,2.63 -24.59,4.54 -36.93,6.39 -15.4,2.31 -41.47,-6.79 -55.76,-13.08l-22.09 -9.72 22.4 -8.96c6.7,-2.68 14.22,-5.5 20.62,-8.7zm-97.67 96.96c6.19,-7.04 16.95,-16.95 26.95,-15.69 7.72,0.97 11.04,6.31 14.92,12.19 3.24,4.92 6.41,8.32 11.45,11.5 19.25,12.16 21.88,26.28 22.81,47.61 0.68,15.59 -14.95,57.62 -20.67,73.06 -4.8,12.96 -9.87,25.98 -15.47,38.61 -3.44,7.75 -9.12,23.98 -20.06,22.16 -11.9,-1.98 -12.01,-19.3 -12.47,-28.52 -0.53,-10.67 -0.44,-21.36 -0.93,-32.02 -0.97,-21.27 11.02,-50.59 18.76,-70.73 2.67,-6.94 0.78,-11.3 -3.39,-17.07 -7.22,-10.01 -15.78,-18.18 -22.78,-28.86l-4.24 -6.47 5.12 -5.78zm3362.85 892.69c62.71,-9.03 128.49,-2.53 180.88,35.79 18.28,13.37 40.19,35.85 49.74,56.96l1.71 3.77 -1.42 3.88c-8.08,22.11 -21.96,46.73 -35.08,66.03 -2.24,3.29 -9.55,13.42 -7.29,17.95 1.9,3.81 3.57,6.22 4.46,10.63 1.37,6.83 -0.34,13.6 -2.99,19.89 -9.88,23.47 -37.21,46.28 -58.02,60.16 -8.92,5.95 -17.47,-0.42 -19.22,-9.68 -0.9,-4.78 -0.98,-10.24 -1.26,-15.12 -0.6,-10.21 -1.75,-23.68 -7.3,-32.56 -3.6,-5.75 -4.92,-7.91 -11.48,-6.24 -5.72,1.46 -11.97,4.28 -17.41,6.58 -9.82,4.15 -19.58,8.22 -29.58,11.94 -8.92,3.31 -17.81,6.76 -26.75,10.01 -4.57,1.66 -10.31,3.83 -15.14,4.32 -6.33,0.63 -11.78,-1.91 -14.63,-7.7 -1.41,-2.86 -1.95,-6.1 -2.87,-9.15 -1.16,-3.87 -1.57,-9.18 -1.93,-13.22 -0.66,-7.29 -1.09,-14.63 -1.45,-21.95 -1.03,-20.88 -1.46,-41.87 -1.46,-62.78 0,-23 0.5,-46.18 2.15,-69.12 1.2,-16.75 3.02,-37.49 8.19,-53.47l1.94 -6.01 6.25 -0.9zm-514.36 -79.41c9.8,5.6 22.17,11.81 26.24,13.91 42.57,21.95 87.5,39.65 131.98,57.29 17.43,6.91 35.1,13.79 52.19,21.53 9.05,4.1 24.27,11.05 30.73,18.68 17,20.09 33.3,41.86 49.22,62.88l14.21 18.75 -23.39 -2.57c-9.35,-1.02 -18.77,-2.36 -28.06,-3.8 -15.4,-2.4 -32.64,-5.33 -47.36,-10.23 -10.36,-3.45 -22.91,-9.07 -33.55,-10.62 -6.2,-0.9 -9.86,-0.55 -12.07,5.73 -3.31,9.37 -8.31,18.99 -11.03,28.32 -1.55,5.33 -1.86,9.3 1.52,13.95 3.99,5.49 8.64,8.61 14.13,12.34 7.48,5.07 13.65,11.44 10.37,21.26 -2.8,8.4 -8.71,16.51 -15.81,21.75 -12.39,9.15 -27.37,9.62 -41.67,5.07 -16.72,-5.32 -26.99,-15.63 -40.65,-25.79 -19.93,-14.83 -40.88,-23.3 -64.81,-29.74 -32.87,-8.85 -67.52,-16.79 -99.44,-28.44 -11.63,-4.24 -24.83,-9.69 -34.79,-17.15 -9.07,-6.8 -16.16,-16.19 -14.36,-28.15 2.13,-14.22 8.4,-22.98 12.63,-35.64 4.54,-13.62 1.42,-26.17 -3.85,-39.15 -4.26,-10.48 -6.48,-20.66 -8.25,-31.76 -1.26,-7.89 -2.3,-16.15 -5.09,-23.68 -8.24,-22.21 -35.15,-36.75 -55.05,-46.54 -25.77,-12.66 -54.71,-27.21 -82.1,-35.93 -15.5,-4.93 -27.72,-6.48 -43.77,-6.48 -29.87,0 -53.33,-3.14 -71.98,-28.58 -4.99,-6.8 -10.05,-13.59 -14.98,-20.43l-7.71 -10.7 12.32 -4.7c17.71,-6.75 37.2,-17.37 52.82,-28.22 5.51,-3.82 27.76,-20.47 26.35,-28.44 -1.6,-9.04 -12.38,-19.76 -15.5,-30.04 -7.34,-24.16 21.02,-34.53 38.9,-39.81 47.7,-14.09 149.23,-47.55 195.25,-36.81 19.76,4.61 31.3,12.16 36.67,32 2.05,7.59 3.3,15.47 5.22,23.13 2.66,10.6 6.3,20.58 11.08,30.41 7.58,15.58 14.05,32.14 20.11,48.36 7.13,19.1 13.77,38.42 20.12,57.8 5.77,17.62 11.31,35.34 16.52,53.13 3.29,11.23 6.82,23.04 9.23,34.49 2.24,10.64 -3.08,18.73 -12.5,22.62zm-2186.98 191.56c-2.33,-1.84 -7.25,-4.25 -9.78,-5.59 -6.25,-3.31 -12.54,-6.54 -18.75,-9.93 -9.7,-5.31 -28.97,-15.4 -31.48,-27.06 -2.38,-11.11 -3.49,-24.2 -4.77,-35.56 -0.98,-8.8 -1.92,-17.61 -2.81,-26.42l-2.65 -26.06 19.49 17.5c6.9,6.19 13.86,12.34 20.83,18.45 5.24,4.6 10.49,9.18 15.81,13.69 3.18,2.7 6.71,5.84 10.12,8.23 4.43,3.1 9.91,10.03 13.4,14.25 6.38,7.71 12.59,15.59 18.84,23.41 12.19,15.26 25.72,32.94 39.73,46.43 15.46,14.88 31.06,29.68 46.76,44.3l15.37 14.28 -20.73 3.15c-6.72,1.06 -23.77,5.39 -27.99,10.86 -2.92,6.02 5.98,31.39 8.64,37.71l2.5 5.93 -4.3 4.78c-1.76,1.95 -3.99,3.94 -6.16,5.42 -7.84,5.34 -18.1,3.97 -20.98,-6.09 -1.27,-3.87 -6.39,-11.75 -8.59,-15.44 -5.48,-9.2 -10.99,-18.37 -16.09,-27.79 -4,-7.38 -8.61,-13.34 -13.14,-20.25 -5.96,-9.1 -9.45,-18.28 -12.38,-28.72 -2.79,-9.91 -5.05,-19.81 -7.57,-29.77 -0.53,-2.1 -1.89,-7.68 -3.32,-9.71zm-204.16 -301.68c8.52,3.53 17.79,9.04 25.48,14.01 11.23,7.26 29.55,36.89 36.92,48.69 5.81,9.3 11.46,18.72 16.92,28.23 2.46,4.29 7.14,11.79 8.68,16.4 3.13,9.38 -5.85,15.9 -14.82,12.95 -2.63,-0.87 -5.3,-2.13 -7.8,-3.34 -7.58,-3.66 -15.06,-7.77 -22.43,-11.83 -15.45,-8.52 -30.7,-17.38 -46.06,-26.07 -25.34,-14.32 -13.99,-48.85 -10.81,-71.13l1.85 -12.93 12.07 5.01zm-330.83 -413.65c25.55,3.26 54.89,18.46 72.62,36.72 11.35,11.68 23.79,35.07 31.62,49.48 13.84,25.46 26.75,51.59 39.25,77.73 11.95,24.99 23.58,50.19 34.68,75.57 3.93,9 7.82,18.04 11.49,27.15 1.93,4.81 4.53,10.87 5.67,15.91 3.18,13.98 -5.86,29.89 -14.31,40.45 -7.08,8.86 -20.42,22.11 -32.59,22.11 -9.79,0 -26.66,-18.02 -33.19,-24.54 -16.2,-16.15 -31.79,-33.23 -46.98,-50.33 -16.33,-18.38 -32.39,-37.12 -47.8,-56.28 -9.69,-12.04 -22.55,-27.63 -29.85,-41.18 -11.45,-21.26 -9.49,-68 -8.11,-92.54 0.88,-15.61 2.22,-31.18 3.78,-46.73 0.53,-5.35 1.1,-10.7 1.64,-16.05 0.24,-2.34 0.63,-5.1 0.66,-7.43l0 -11.49 11.41 1.45z"/>
     <path class="fil0" d="M1815.22 1062.42c25.27,20.67 184.61,137.34 184.61,137.34 0,0 -4.73,27.11 -5.1,48.19 -0.12,6.85 0.22,13.06 1.33,17.5 4.53,18.12 83.06,98.92 83.06,98.92 0,0 3.02,4.53 28.7,-6.04 25.67,-10.57 33.98,-19.63 44.55,-28.69 10.57,-9.06 33.22,-12.84 71.73,-9.82 38.51,3.02 71.73,58.9 80.79,64.94 9.06,6.04 20.39,4.53 43.8,9.82 23.41,5.29 55.12,0 73.24,0 18.12,0 37.76,3.02 49.08,4.53 11.33,1.51 12.08,29.45 13.59,48.33 1.51,18.88 18.88,58.9 32.47,88.34 13.59,29.45 19.63,43.04 45.31,68.71 25.67,25.67 96.65,99.67 102.69,108.73 6.04,9.06 16.61,55.12 51.35,98.16 34.74,43.04 40.02,31.71 58.9,39.26 18.88,7.55 93.63,37.75 144.98,58.14 51.35,20.39 43.04,23.41 65.69,27.18 22.65,3.78 53.61,18.12 83.06,31.71 29.45,13.59 113.26,69.47 132.14,71.73 18.88,2.26 28.69,6.8 30.2,14.35 1.51,7.55 4.53,28.69 13.59,43.8 9.06,15.1 7.55,25.67 -1.51,27.94 -9.06,2.27 -63.43,30.2 -72.49,43.04 -9.06,12.84 -18.88,18.88 -13.59,32.47 5.28,13.59 53.61,44.55 53.61,44.55 0,0 -78.53,95.9 -98.16,117.79 -19.63,21.9 -9.06,22.65 -8.3,33.98 0.32,4.8 2.54,12.72 8.38,22.26 7.94,12.98 22.58,28.96 48.25,44.19 44.55,26.43 194.06,49.84 232.57,52.86 38.51,3.02 55.12,18.12 55.12,18.12 0,0 15.1,67.2 22.65,129.87 3.93,32.62 6.84,50.31 9.47,63.71 2.42,12.34 4.61,21.06 7.14,34.45 5.28,27.94 70.98,85.32 102.69,112.51 31.71,27.18 32.49,45.99 37.73,59.96 5.24,13.97 20.96,27.95 31.44,36.68 10.48,8.73 151.95,31.44 185.13,43.66 33.18,12.23 31.44,8.73 47.16,22.7 15.72,13.97 3.49,17.47 22.71,59.38 19.21,41.92 29.69,47.16 47.16,69.86 17.46,22.7 71.61,43.66 85.58,66.37 13.97,22.71 1.75,12.22 1.75,41.92 0,29.69 -78.59,143.21 -78.59,143.21 0,0 -3.49,15.72 -1.75,40.17 1.75,24.45 41.92,83.84 41.92,83.84 0,0 -15.72,29.69 -22.7,40.17 -4.92,7.38 -15.91,23.42 -23.8,42.03 -3.32,7.81 -6.09,16.08 -7.64,24.34 -5.24,27.94 13.97,68.11 26.2,90.82 12.23,22.7 8.73,47.16 3.49,71.61 -5.24,24.45 -8.73,113.53 -13.97,165.92 -5.24,52.4 -5.24,73.35 -19.21,111.78 -13.97,38.42 -26.2,158.93 -26.2,158.93 0,0 -13.97,-3.49 -24.45,-6.99 -10.48,-3.49 -104.79,-89.07 -104.79,-89.07 0,0 -71.61,76.85 -83.83,76.85 -12.23,0 -41.92,-24.45 -59.38,-38.42 -17.46,-13.97 -136.23,-54.14 -136.23,-54.14 0,0 1.75,10.48 17.46,31.44 15.72,20.96 20.96,110.03 20.96,110.03 0,0 -12.23,-5.24 -17.46,-17.47 -5.24,-12.23 -113.52,-73.35 -130.99,-113.52 -15.6,-35.89 -185.95,-187.48 -222.08,-219.39 -4.31,-3.81 -6.71,-5.91 -6.71,-5.91 0,0 -22.71,0 -43.66,-17.46 -20.96,-17.47 -17.46,-10.48 -47.16,-31.44 -29.69,-20.96 -24.45,-29.69 -33.18,-52.4 -8.73,-22.71 -5.24,-1.75 -59.38,-36.68 -54.14,-34.93 -34.93,-26.2 -55.89,-43.66 -20.96,-17.47 -117.02,-69.86 -117.02,-69.86l-118.76 -110.03c0,0 -5.24,-34.93 -8.73,-55.89 -3.49,-20.96 -31.44,-34.93 -47.16,-54.14 -15.72,-19.21 -125.75,-71.61 -141.47,-92.57 -15.72,-20.96 -26.2,-31.44 -64.62,-85.58 -38.42,-54.14 -36.68,-38.42 -48.9,-78.59 -11.35,-37.28 -120.49,-127.23 -136.12,-139.96 -1.21,-0.99 -1.86,-1.51 -1.86,-1.51 0,0 -26.2,-45.41 -41.92,-71.61 -15.72,-26.2 -19.21,-80.34 -26.2,-94.31 -6.99,-13.97 -24.45,-118.76 -43.66,-157.19 -19.21,-38.42 -50.65,-62.87 -78.59,-118.76 -27.94,-55.89 -66.37,-132.74 -66.37,-148.46 0,-15.72 -66.37,-101.3 -66.37,-101.3 0,0 -94.31,-66.37 -124,-106.54 -29.69,-40.17 -15.72,-33.19 -31.44,-62.88 -15.72,-29.69 -8.73,-50.65 -29.69,-62.88 -20.96,-12.23 -94.31,-59.38 -117.02,-82.09 -21.42,-21.41 -25.74,-7.09 -42.29,-8.33 -1,-0.07 -2.03,-0.2 -3.12,-0.4 -19.21,-3.49 -134.48,-302.15 -139.72,-328.35 -5.24,-26.2 -3.49,-50.65 -3.49,-83.83 0,-33.18 -13.97,-48.9 -36.68,-127.5 -22.71,-78.6 -198.02,-140.92 -198.02,-140.92 0,0 -105.71,-48.33 -153.28,-81.55 -47.57,-33.22 -11.33,-14.35 -14.35,-25.67 -3.02,-11.33 -29.45,-131.38 -30.96,-135.91 -1.51,-4.53 -9.82,-6.04 -27.18,-21.14 -17.37,-15.1 -21.14,-20.39 -30.2,-37 -9.06,-16.61 -184.99,-222.74 -188.01,-227.27 -3.02,-4.53 -15.85,-15.1 -15.85,-15.1 0,0 -55.88,-31.71 -67.96,-33.22 -12.08,-1.51 -84.54,-0.7 -84.54,-0.7l-415.83 -479.2 -36.56 -160.84c0,0 132.78,-7.1 151.15,-4.8 18.37,2.3 64.31,17.23 91.87,26.41 27.56,9.19 49.38,52.83 75.79,67.75 26.41,14.93 90.72,35.6 183.74,29.86 93.02,-5.74 101.06,-13.78 120.58,-14.93 19.52,-1.15 50.53,-4.59 66.61,-3.44 16.08,1.15 73.5,31.01 88.43,36.75 14.93,5.74 68.9,27.56 95.32,37.9 26.41,10.33 29.86,16.08 52.83,37.9 22.97,21.82 29.86,49.38 57.42,94.17 23.48,38.15 80.28,127.12 96.6,152.66 2.84,4.44 4.46,6.97 4.46,6.97 0,0 34.45,43.64 62.01,59.72 27.56,16.08 41.34,44.79 57.42,63.16 16.08,18.38 27.56,27.56 53.98,37.9 26.41,10.34 209.01,134.36 249.2,171.11 40.19,36.75 60.87,44.79 112.54,80.39 51.68,35.6 27.56,22.97 52.83,43.64zm-854.58 583.36c22.69,22.69 43.69,19.32 79.82,43.69 36.13,24.37 43.69,54.62 56.29,92.42 12.6,37.81 -29.41,152.92 -36.13,166.36 -6.72,13.44 -8.4,-13.45 -15.97,-31.93 -7.56,-18.49 -8.4,-43.69 -21.01,-73.1 -12.6,-29.41 -38.52,-39.08 -40.61,-41.58 -2.09,-2.51 -20.05,-14.62 -46.79,-59.32 -26.73,-44.7 -37.59,-30.49 -40.94,-36.34 -3.34,-5.85 -6.27,-20.05 -19.21,-42.61l-18.81 -24.32c0,0 15.12,-20.16 46.21,-24.37 31.09,-4.2 34.45,8.4 57.13,31.09zm-610.84 -534.38c0,0 47.89,3.36 65.54,8.4 17.64,5.04 31.09,27.73 63.86,51.25 32.77,23.53 52.09,41.17 65.54,56.29 13.45,15.12 48.73,48.73 48.73,48.73 0,0 -74.78,-10.92 -96.63,-25.21 -21.85,-14.28 -26.05,-10.92 -82.34,-38.65 -56.29,-27.73 -13.44,-14.29 -29.41,-36.13 -15.96,-21.84 -42.85,-43.69 -42.85,-43.69l7.56 -21.01zm2301.97 444.59c0,0 79.75,26.1 92.07,30.45 12.33,4.35 11.6,29 10.87,44.23 -0.73,15.22 18.13,59.45 29,73.22 10.88,13.77 29.72,35.53 36.25,38.43 6.53,2.9 15.23,-2.9 42.78,-21.03 27.55,-18.12 26.82,7.25 60.17,19.57 33.35,12.33 52.2,50.03 60.9,57.28 8.7,7.25 -11.6,38.43 -34.8,41.33 -23.2,2.9 -39.15,-7.25 -55.1,-4.35 -15.95,2.9 -86.27,2.9 -118.17,-8.7 -31.9,-11.6 -45.68,-58 -72.5,-89.18 -26.83,-31.17 -23.2,-48.57 -29.73,-65.97 -6.53,-17.4 -5.07,-23.2 -4.35,-44.23 0.72,-21.02 -45.68,-58 -50.75,-63.8l33.35 -7.25zm427.22 258.77c0,0 30.77,21.45 41.03,26.11 10.26,4.66 12.12,40.09 12.12,40.09 0,0 -16.79,24.24 -21.45,14.92 -4.66,-9.32 -14.92,-27.97 -35.43,-35.43 -20.51,-7.46 0.93,-39.16 3.73,-45.69zm-1703.93 268.09c4.94,-2.47 55.94,-6.58 68.28,-6.58 12.34,0 16.45,5.76 18.92,12.34 2.47,6.58 -41.95,13.16 -58.4,15.63 -16.45,2.47 -50.18,-12.34 -50.18,-12.34 0,0 16.45,-6.58 21.39,-9.05zm-76.5 82.26c6.58,0.82 6.58,12.34 22.21,22.21 15.63,9.87 17.28,20.57 18.1,39.49 0.82,18.92 -39.48,124.22 -44.42,123.39 -4.94,-0.82 -4.11,-32.9 -4.94,-51 -0.82,-18.1 9.87,-45.24 18.1,-66.63 8.22,-21.39 -11.52,-31.26 -27.15,-55.12 0,0 11.52,-13.16 18.1,-12.34zm3338.6 908.36c169.71,-24.44 219.95,86.89 219.95,86.89 0,0 -10.86,29.87 -33.94,63.81 -23.08,33.94 4.07,24.44 -6.79,50.23 -10.86,25.8 -46.16,50.23 -54.31,55.66 -8.15,5.43 0,-32.58 -13.58,-54.31 -13.58,-21.72 -23.08,-9.51 -70.6,8.15 -47.52,17.65 -42.09,17.65 -46.16,4.07 -4.07,-13.58 -9.51,-168.35 5.43,-214.52zm-494.2 -66.53c86.89,44.8 196.87,77.39 211.8,95.04 14.94,17.65 48.88,62.45 48.88,62.45 0,0 -48.88,-5.43 -73.32,-13.58 -24.44,-8.15 -50.23,-21.72 -58.38,1.36 -8.15,23.08 -19.01,36.66 -8.15,51.59 10.86,14.94 25.8,16.29 23.08,24.44 -2.72,8.15 -14.94,29.87 -44.8,20.37 -29.87,-9.51 -35.3,-36.66 -105.9,-55.66 -70.6,-19.01 -145.28,-35.3 -141.2,-62.45 4.07,-27.15 25.8,-36.66 8.15,-80.11 -17.65,-43.44 6.79,-67.88 -73.32,-107.26 -80.11,-39.37 -99.11,-43.45 -130.34,-43.45 -31.23,0 -48.88,-4.07 -63.81,-24.44 -14.93,-20.37 -14.93,-20.37 -14.93,-20.37 28.51,-10.86 89.61,-44.81 85.54,-67.88 -4.07,-23.08 -43.45,-40.73 16.29,-58.38 59.74,-17.65 149.35,-46.16 190.08,-36.66 40.73,9.51 21.72,29.87 46.16,80.1 24.44,50.24 59.74,165.64 65.17,191.44 5.43,25.8 -67.89,-1.36 19.01,43.45zm-2266.08 63.07c0,0 39.48,35.38 47.71,41.13 8.23,5.76 48.53,61.7 70.75,83.08 22.21,21.39 46.89,44.42 46.89,44.42 0,0 -26.32,4.11 -34.55,14.81 -8.22,10.69 7.4,47.71 7.4,47.71 0,0 -8.23,9.05 -9.87,3.29 -1.65,-5.76 -14.81,-25.5 -25.5,-45.25 -10.69,-19.74 -17.28,-20.56 -24.68,-46.89 -7.4,-26.32 -8.23,-37.84 -13.16,-43.6 -4.94,-5.76 -55.12,-26.33 -57.59,-37.84 -2.47,-11.52 -7.4,-60.88 -7.4,-60.88zm-150.54 -186.74c0,0 9.87,4.11 23.86,13.16 13.99,9.05 56.76,83.09 58.41,88.02 1.64,4.93 -57.59,-29.61 -76.51,-40.31 -18.92,-10.69 -8.23,-43.6 -5.76,-60.88zm-328.23 -412.96c0,0 38.66,4.93 66.63,33.73 27.97,28.79 115.99,222.94 120.11,241.03 4.11,18.1 -24.68,50.18 -37.02,50.18 -12.34,0 -131.62,-134.91 -148.9,-167 -17.27,-32.08 -0.82,-148.9 -0.82,-157.94z"/>
    </g>
   </g>
   <g>
    <path class="fil1 str0" d="M2528.38 2491.38c4.02,-0.42 8.46,-1.04 13.36,-1.9 45.14,-7.89 50.52,-20.13 91.14,-19.22 40.63,0.9 47.93,-2.23 95.94,15.51 48.01,17.74 77.23,50.1 105.41,41.75 28.18,-8.35 114.81,-45.93 115.85,-69.93 1.04,-24 -8.73,-51.81 6.44,-50.58 15.17,1.22 125.07,-2.64 132.38,0.49 7.31,3.13 20.8,6.36 20.8,6.36 -3.49,-6.97 -4.93,-12.73 -5.19,-16.52 -0.75,-11.33 -11.33,-12.08 8.3,-33.98 19.63,-21.9 98.16,-117.79 98.16,-117.79 0,0 -48.33,-30.96 -53.61,-44.55 -5.29,-13.59 4.53,-19.63 13.59,-32.47 9.06,-12.84 63.43,-40.78 72.49,-43.04 9.06,-2.27 10.57,-12.83 1.51,-27.94 -9.06,-15.1 -12.08,-36.24 -13.59,-43.8 -1.51,-7.55 -11.33,-12.08 -30.2,-14.35 -18.88,-2.27 -102.69,-58.14 -132.14,-71.73 -29.45,-13.59 -60.41,-27.94 -83.06,-31.71 -22.65,-3.78 -14.35,-6.8 -65.69,-27.18 -51.35,-20.39 -126.1,-50.59 -144.98,-58.14 -18.87,-7.55 -24.16,3.78 -58.9,-39.26 -34.73,-43.04 -45.3,-89.1 -51.35,-98.16 -6.04,-9.06 -77.02,-83.06 -102.69,-108.73 -25.67,-25.68 -31.71,-39.26 -45.31,-68.71 -13.59,-29.45 -30.96,-69.47 -32.47,-88.34 -1.51,-18.88 -2.27,-46.81 -13.59,-48.33 -11.32,-1.51 -30.96,-4.53 -49.08,-4.53 -18.12,0 -49.83,5.29 -73.24,0 -23.41,-5.29 -34.73,-3.78 -43.8,-9.82 -9.06,-6.04 -42.28,-61.92 -80.79,-64.94 -38.51,-3.02 -61.16,0.76 -71.73,9.82 -10.57,9.06 -18.88,18.12 -44.55,28.69 -25.67,10.57 -28.7,6.04 -28.7,6.04 0,0 -78.53,-80.79 -83.06,-98.92 -1.11,-4.44 -1.45,-10.65 -1.33,-17.5 0,0 -17.87,99.04 -19.47,132.58 -1.6,33.55 -3.2,47.12 -3.2,47.12l43.93 39.14c0,0 15.17,35.14 14.38,49.52 -0.8,14.38 -15.18,45.52 -20.77,51.92 -5.59,6.39 -88.66,52.71 -101.44,67.09 -12.78,14.38 9.1,41.96 12.09,50.91 2.99,8.95 24.47,35.22 31.64,55.52 7.16,20.29 -0.6,59.69 -0.6,73.42 0,12.11 -25.41,42.1 -31.41,49.01 0,0 -4.29,69.22 8.42,72.59 12.7,3.37 42.02,38.63 57.67,42.25 15.66,3.62 38.93,-8.98 38.93,-8.98 0,0 98.53,50.65 120.99,75.49 22.46,24.84 42.49,95.8 32.42,104.8 -10.07,9.01 -45.02,25.9 -45.02,25.9 0,0 18.05,47.01 44.29,72.86 26.25,25.85 60.51,17.8 60.51,17.8 0,0 20.01,64.42 32.53,73.81 12.52,9.39 74.23,45.87 93.93,48.01 19.7,2.13 75.15,13.57 84.54,32.35 9.39,18.79 20.34,57.21 31.25,60.7 9.72,3.11 15.01,13.07 48.02,9.62zm550.62 -676.62c-2.8,6.53 -24.24,38.23 -3.73,45.69 20.51,7.46 30.77,26.11 35.43,35.43 4.66,9.32 21.45,-14.92 21.45,-14.92 0,0 -1.87,-35.43 -12.12,-40.09 -10.26,-4.66 -41.03,-26.11 -41.03,-26.11zm-375.74 -77.52c26.82,31.18 40.6,77.57 72.5,89.18 31.9,11.6 102.22,11.6 118.17,8.7 15.95,-2.9 31.9,7.25 55.1,4.35 23.2,-2.9 43.5,-34.08 34.8,-41.33 -8.7,-7.25 -27.55,-44.95 -60.9,-57.28 -33.35,-12.32 -32.63,-37.7 -60.17,-19.57 -27.55,18.13 -36.25,23.93 -42.78,21.03 -6.53,-2.9 -25.37,-24.65 -36.25,-38.43 -10.88,-13.77 -29.73,-58 -29,-73.22 0.73,-15.23 1.45,-39.88 -10.87,-44.23 -12.33,-4.35 -92.07,-30.45 -92.07,-30.45l-33.35 7.25c5.07,5.8 51.47,42.77 50.75,63.8 -0.72,21.03 -2.18,26.83 4.35,44.23 6.53,17.4 2.9,34.8 29.73,65.97z"/>
    <polygon class="fil2" points="2465.82,1950.89 2465.82,1931.3 2502.42,1931.3 2502.42,2042.02 2480.55,2042.02 2480.55,1950.89 "/>
   </g>
  </g>
 </g>
</svg>
