<?xml version="1.0" encoding="UTF-8"?>
<!DOCTYPE svg PUBLIC "-//W3C//DTD SVG 1.1//EN" "http://www.w3.org/Graphics/SVG/1.1/DTD/svg11.dtd">
<!-- Creator: CorelDRAW -->
<svg xmlns="http://www.w3.org/2000/svg" xml:space="preserve" width="89.1632mm" height="26.6975mm" version="1.1" style="shape-rendering:geometricPrecision; text-rendering:geometricPrecision; image-rendering:optimizeQuality; fill-rule:evenodd; clip-rule:evenodd"
viewBox="0 0 1632.92 488.93"
 xmlns:xlink="http://www.w3.org/1999/xlink"
 xmlns:xodm="http://www.corel.com/coreldraw/odm/2003">
 <defs>
  <style type="text/css">
   <![CDATA[
    .fil0 {fill:white}
   ]]>
  </style>
 </defs>
 <g id="Layer_x0020_1">
  <metadata id="CorelCorpID_0Corel-Layer"/>
  <g id="_2381377379536">
   <path class="fil0" d="M-0 38.34c0,0 2.7,281.66 2.43,350.8 -0.26,69.15 -2.36,82.25 -2.36,82.25l22.78 11.78 6.55 -38.5 1.31 44.26 28.55 -18.6 8.38 -114.99 2.36 128.35 42.43 0.26 2.62 -171.82 44.27 2.62 60.77 170.77 30.38 -9.43 -13.09 -59.98 23.31 60.24 36.14 -17.02 -2.36 -19.12 10.74 15.45 13.09 -19.65 -61.55 -173.66 -60.76 -20.69 51.34 -22.53 2.62 -25.14 13.36 16.5 20.95 -17.02 -13.1 -128.34 -14.41 -2.88 15.98 -9.95 -10.21 -16.5 -188.59 -29.86 6.55 12.31 -25.4 -12.05 -36.15 7.86 -1.57 15.98 -6.81 -10.74 -10.55 19.03zm111.13 70.02l1.31 91.94 22 -11.79 2.62 19.65 7.07 -26.45 46.88 -19.65 -2.36 -26.19 -77.53 -27.5z"/>
   <polygon class="fil0" points="348.68,8.59 347.71,42.13 369.31,54.18 344.97,54.85 346.89,106.49 399.59,103.6 402.98,388.4 350.29,382.79 347.49,482.87 538.92,481.31 538.29,437.04 491.53,428.94 538.92,425.51 535.49,385.29 494.02,384.97 489.86,101.57 537.31,100.53 539.4,89.84 533.92,88.8 539.4,85.02 538.28,5.82 "/>
   <polygon class="fil0" points="596.77,17.48 596.8,474.69 607.65,475.71 608.15,481.47 645.44,481.13 650.69,465.03 657.98,484.35 702.72,484.18 703.9,235.9 760.68,390.63 789.32,389.45 811.86,320.64 810.67,308.77 814.06,316.57 849.82,227.26 848.28,468.29 867.58,481.74 876.16,434.77 883.17,485.64 923.71,482.33 935.8,459.32 950.42,456.6 951.27,18.68 930.96,4.17 928.42,47.16 916.08,10.16 853.14,7.62 778.95,204.43 699.86,12.88 657.05,7.98 659.41,29.38 644.35,0 622.4,0.72 627.12,37.91 618.77,12.51 "/>
   <path class="fil0" d="M1006.8 41.62c0,0 12.41,163.35 13.58,237.07 1.16,73.72 -8.15,190.9 -8.15,190.9l21.73 15.13 14.74 -55.87 -1.16 48.11 35.31 8.54 22.12 -25.22 1.94 20.95 130.76 0.39 18.73 -32.79 -4.86 25.48 17.77 -9.72 34.7 -94.39 -12.74 -27.49 15.09 10.06 12.74 -22.47 -92.37 -116.76 70.07 -37.47 -1.11 -15.3 -14.63 0.44 13.52 -12.2 -29.93 -88.69 -15.3 -4.66 10.42 -9.98 -13.08 -17.3 -211.75 -18.4c0,0 2.66,45.23 0.45,40.8 -2.22,-4.43 -16.63,-29.27 -16.63,-29.27l-11.94 20.1zm100.86 64.82c0,1.33 7.09,85.15 7.09,85.15l84.92 -46.56 -0.89 -15.52 -72.5 -30.38 1.11 15.74 -19.73 -8.43zm16.19 182.48l16.19 -22.84 72.5 96.45 -88.69 39.69 -2.22 -23.72 -10.87 -9.09 15.52 0.67 -2.44 -81.15z"/>
   <path class="fil0" d="M1359.39 344.58l-27.76 131.47 11.22 7.96 56.28 -2.17c0,0 18.1,-47.95 18.1,-45.96 0,1.99 -2.9,46.51 -2.9,46.51l12.67 -5.25 19.73 -136.26 15.56 -0.18 6.33 -13.39 1.08 13.03 38.73 -3.26 13.39 149.11 22.08 -13.03 -2.35 -57.72 16.28 61.34 32.39 -1.09 5.07 -11.4 5.43 12.85 32.21 1.08 -30.22 -131.55 12.12 2.17 3.08 -24.97 -33.48 -7.24 36.55 -3.8 -1.63 -70.39 -43.43 -4.16 15.74 -5.97 -38.59 -214.35 -34.54 -14.62 15.56 42.93 -32.67 -41.69 -74.36 4.36 -12.45 19.6 -0.31 -28.31 -14.31 0.31 -23.64 242.67 -33.6 -0.62 -1.55 25.2 22.4 18.05 -20.85 1.87 -4.78 53.29 21.42 3.61zm121.34 -239.89l-24.4 147.31 49.72 -0.92 -25.32 -146.39z"/>
  </g>
 </g>
</svg>
