<?xml version="1.0" encoding="UTF-8"?>
<!DOCTYPE svg PUBLIC "-//W3C//DTD SVG 1.1//EN" "http://www.w3.org/Graphics/SVG/1.1/DTD/svg11.dtd">
<!-- Creator: CorelDRAW -->
<svg xmlns="http://www.w3.org/2000/svg" xml:space="preserve" width="261.019mm" height="230.731mm" version="1.1" style="shape-rendering:geometricPrecision; text-rendering:geometricPrecision; image-rendering:optimizeQuality; fill-rule:evenodd; clip-rule:evenodd"
viewBox="0 0 8980.5 7938.44"
 xmlns:xlink="http://www.w3.org/1999/xlink"
 xmlns:xodm="http://www.corel.com/coreldraw/odm/2003">
 <defs>
  <style type="text/css">
   <![CDATA[
    .fil0 {fill:none}
    .fil2 {fill:white}
    .fil1 {fill:#4F8250}
   ]]>
  </style>
 </defs>
 <g id="Layer_x0020_1">
  <metadata id="CorelCorpID_0Corel-Layer"/>
  <g id="_2284805742672">
   <rect class="fil0" width="8980.5" height="7938.44"/>
   <g>
    <path class="fil1" d="M4801.99 3065.64c-0.86,-2.37 -1.67,-4.78 -2.44,-7.22 -5.02,-16.03 -6.94,-33.67 -12.7,-49.04 -12.97,-34.57 -10.19,-50.71 -8.96,-86.49 0.49,-14.22 -26.74,-44.08 -36.6,-54.32 -9.76,-10.13 -20,-19.77 -30.39,-29.25 -6.19,-5.64 -14.26,-12.23 -19.71,-18.46l-20.32 -23.22 94.9 -20.63 4.69 1.53c24.91,8.13 49.81,16.33 74.71,24.52 30.31,9.98 61.06,19.71 91.14,30.33 35.39,12.49 33.13,66.84 31.66,97.5 -1.14,23.96 32.94,100.08 48.22,119.42 9.86,12.49 44.49,54.97 57.65,63.31 9.77,-1.88 52.72,-31.14 60.05,-35.97 24.99,-16.44 46.52,-20.85 71.14,-2.24 19.53,14.76 28.7,26.46 53.3,35.55 31.82,11.76 57.44,34.62 78.95,60.24 8.28,9.86 15.88,20.12 23.53,30.46 2.93,3.96 8.62,12.25 12.29,15.3 20.67,17.23 6.01,48.02 -6.93,65.06 -15.44,20.32 -39.15,38.01 -65,41.25 -21.16,2.65 -39.65,0.08 -60.29,-4.14 -11.51,-2.35 -26,-5.97 -37.72,-3.84 -12.53,2.28 -27.29,2.66 -40.02,2.97 -19.8,0.48 -39.71,0.17 -59.5,-0.74 -38.16,-1.76 -86.69,-5.71 -122.3,-18.67 -64.4,-23.42 -94.13,-114.66 -137.85,-165.47 -10.52,-12.23 -19.94,-24.88 -27.78,-38.44 0.06,0.16 0.12,0.32 0.18,0.49 5.24,13.78 10.47,27.48 16.29,41.03 16.43,38.27 36.69,74.35 62.9,106.84 13.03,16.14 37.01,45.36 56.7,53.93 5.26,2.29 10.56,3.25 16.15,4.27 8.99,1.64 17.02,3.46 25.57,6.88 86.85,34.74 173.52,69.93 260.46,104.46 27.78,11.03 53.71,22.53 80.11,36.43 12.95,6.81 19.35,8.9 34.2,11.38 49.06,8.18 108.46,37.45 153.88,58.41 19.02,8.78 38.11,20.11 56.21,30.68 23.84,13.93 47.49,28.2 71.26,42.25 17.34,10.24 87.04,52.32 104.5,54.41 25.38,3.04 63.92,10.1 69.95,40.28 4.97,24.84 8.92,50.8 22.18,72.9 7.8,13 14.61,29.07 13.39,44.54 -1.28,16.27 -11.4,28.71 -27.3,32.69 -19.24,4.94 -108.89,54.72 -119.79,70.17 -6.47,9.17 -15.59,18.4 -21.19,27.62 -3.04,5.01 -3.31,8.02 -1.14,13.62 6.36,15.42 72.86,60.88 89.16,71.3l17.28 11.01 -12.99 15.86c-25.01,30.56 -50.12,61.04 -75.28,91.46 -33.27,40.23 -66.82,81.99 -101.63,120.82 -2.89,3.22 -16.91,19.45 -16.59,24.31 0.08,1.23 1.4,4.21 1.84,5.32 2.37,6.03 3.99,11.53 4.43,18.06 0.67,10 7.31,23.37 12.42,31.71 18.67,30.5 50.12,55.25 80.46,73.24 23.95,14.21 58.31,24.63 85.04,32.26 40.15,11.46 81.31,20.63 122.25,28.8 40.06,8 80.4,15.03 120.79,21.11 26.92,4.05 54.79,8.17 81.94,10.3 32.92,2.58 84.29,13.91 109.89,37.26l4.25 3.87 1.25 5.61c17.18,76.88 31.59,157 41.01,235.15 4.55,37.75 9.48,75.82 16.8,113.15 4.07,20.73 8.93,41.26 12.86,62.02 8.62,45.56 140.16,158.87 178.48,191.72 22.61,19.37 43.07,41.65 56.24,68.6 7.83,16.03 10.73,30.53 16.75,46.57 7.76,20.69 33.6,43.7 50.51,57.82 9.17,5.01 39.74,11.44 50.05,13.79 32.65,7.45 65.57,14.04 98.38,20.71 34.94,7.09 69.93,14.11 104.74,21.81 24.01,5.31 51.69,11.06 74.71,19.54 17.83,6.57 37.64,12.22 54.93,19.54 14.26,6.03 24.11,14.52 35.6,24.73 16.13,14.34 20.5,24.71 23.91,45.14 4.18,25.05 10.67,44.29 21.35,67.59 11.61,25.33 24.42,50.05 41.43,72.21 13.09,17.06 27.99,32.66 41.18,49.8 15.46,20.1 52.71,41.7 74.46,55.29 25.9,16.18 64.25,39.29 80.39,65.52 9.23,14.99 18.78,30.17 12.75,48.25 -1.44,4.32 -3.3,8.22 -4.47,12.68 -1.99,7.62 -2.45,16.09 -2.45,23.93 0,52.75 -105.9,211.72 -142.33,264.61 -3.62,19.36 -3.41,44.91 -2.07,63.61 2.29,32.12 53.14,113.43 72.25,141.75l6.11 9.05 -5.11 9.65c-12.77,24.12 -26.71,51.22 -41.73,73.76 -15.62,23.43 -30.09,46.47 -41.16,72.53 -5.43,12.8 -10.02,26.3 -12.59,39.98 -8.27,44.12 24.63,112.99 45.21,151.2 24.41,45.34 18.39,92.85 8.05,141.11 -3.36,15.68 -4.79,33.72 -6.24,49.71 -2.36,25.94 -4.17,51.97 -5.95,77.96 -3.84,56.08 -7,112.54 -12.6,168.47 -3.67,36.71 -6.2,74.15 -11.47,110.63 -4.78,33.02 -12.63,63.2 -24.05,94.62 -7.91,21.75 -12.9,47.94 -17.14,70.7 -5.8,31.09 -10.53,62.47 -14.84,93.8 -5.33,38.74 -10.14,77.78 -14.09,116.69l-2.12 20.93 -20.4 -5.1c-15.1,-3.77 -30.53,-8.03 -45.28,-12.95 -11.25,-3.75 -33.66,-23.01 -43.09,-30.79 -21.68,-17.89 -42.96,-36.38 -64.09,-54.92 -24.92,-21.86 -49.7,-43.91 -74.32,-66.12 -18.18,19.21 -36.77,38.18 -55.53,56.73 -16.67,16.47 -33.77,33.01 -51.6,48.22 -10.69,9.12 -29.87,25.85 -44.54,25.85 -31.19,0 -92.54,-52.61 -118.07,-73.03 -9.98,-7.99 -34.94,-18.08 -46.97,-23.15 -26.85,-11.33 -54.23,-21.73 -81.57,-31.85 -22.81,-8.44 -45.75,-16.74 -68.75,-24.81 3.71,5.53 7.25,10.45 9.83,13.88 27.47,36.63 38.4,159.46 41.27,207.55l1.77 29.68 -27.21 -11.9c-16.94,-7.35 -32.79,-23 -40.37,-39.84 -5.71,-7.17 -28.6,-22.96 -35.96,-28.24 -24.18,-17.34 -48.63,-34.25 -72.61,-51.87 -38.93,-28.6 -107.84,-80.25 -127.23,-124.86 -8.83,-20.3 -46,-59.05 -61.57,-75.47 -38.55,-40.67 -79.22,-79.85 -119.93,-118.34 -69.71,-65.9 -140.99,-130.5 -212.9,-194.01 -2.39,-2.12 -4.79,-4.23 -7.19,-6.34 -29.1,-2.24 -61.56,-17.51 -82.93,-35.32 -11.16,-9.3 -21.1,-16.93 -33.72,-23.99 -17.56,-9.83 -33.36,-19.97 -49.85,-31.61 -20.09,-14.18 -39.56,-30.37 -49.99,-53.2 -7.1,-15.53 -9.91,-33.12 -16.13,-49.29 -0.95,-2.47 -3.57,-9.57 -5.36,-12.12 -1.62,-0.69 -4.42,-1.35 -5.91,-1.77 -6.14,-1.73 -12.1,-3.59 -18.08,-5.84 -24.4,-9.18 -48.41,-23.33 -70.23,-37.41 -17.5,-11.29 -35.15,-22.71 -52.12,-34.78 -7.91,-5.63 -16.1,-11.62 -23.14,-18.32 -3.94,-3.75 -7.21,-7.71 -10.85,-11.7 -4.93,-5.41 -10.49,-10.28 -16.11,-14.96 -13.5,-11.25 -31.53,-22.04 -46.52,-31.28 -23,-14.18 -46.38,-27.83 -69.81,-41.28 -30.12,-17.28 -60.47,-34.38 -90.97,-50.97l-2 -1.09 -219.73 -203.57 -0.96 -6.27c-5.14,-33.42 -10.09,-66.85 -15.65,-100.2 -2.52,-15.08 -17.6,-29.53 -28.4,-39.33 -17.8,-16.14 -37.15,-30.71 -52.47,-49.42 -7.94,-9.7 -32.32,-24.57 -43.19,-31.33 -25.88,-16.09 -52.51,-31.2 -78.92,-46.42 -26.89,-15.5 -53.99,-31.04 -80.14,-47.75 -15.9,-10.16 -41.12,-26.36 -52.42,-41.44 -13.78,-18.38 -28.38,-36.14 -42.54,-54.24 -25.51,-32.63 -49.89,-66.15 -73.86,-99.92 -12.58,-17.72 -25.52,-35.15 -39.12,-52.1 -7.35,-9.16 -15.16,-18.17 -22.19,-27.54 -15.4,-20.54 -21.73,-42.51 -29.13,-66.82 -17.19,-56.48 -187.84,-201.27 -238.66,-242.68 -1,-0.82 -2.01,-1.64 -3.01,-2.45l-2.71 -2.04 -1.86 -3.2c-24.89,-42.91 -49.66,-85.91 -75.18,-128.44 -16.71,-27.85 -25.27,-66.81 -31.66,-98.76 -3.06,-15.28 -5.76,-30.64 -8.94,-45.89 -1.51,-7.23 -3.87,-19.48 -7.14,-26.03 -6.25,-12.49 -10.89,-35.18 -14.14,-48.98 -6.26,-26.55 -12.1,-53.2 -18.3,-79.77 -6.8,-29.13 -13.89,-58.31 -22.17,-87.07 -6.27,-21.76 -13.71,-46.36 -23.85,-66.63 -16.72,-33.43 -40.22,-62.49 -62.88,-91.98 -30.09,-39.17 -56.15,-77.04 -78.34,-121.42 -26.68,-53.37 -53.52,-106.81 -78.68,-160.9 -10.85,-23.33 -42.49,-89.27 -42.48,-113.64 -3.48,-23 -91.13,-139.67 -113.79,-169.06 -30.66,-21.65 -60.96,-44.66 -90.34,-67.94 -25.54,-20.23 -50.77,-41.12 -74.84,-63.09 -20.73,-18.92 -42.85,-40.3 -59.55,-62.89 -14.97,-20.25 -32.79,-44.6 -40.4,-68.94 -1.99,-6.35 -3.43,-12.83 -5.51,-19.16 -3.09,-9.4 -7.41,-18.44 -12.03,-27.18 -13.14,-24.83 -17.49,-45.67 -24.63,-72.01 -4.01,-14.8 -7.98,-25.69 -21.81,-33.76 -35.51,-20.71 -71.01,-44.27 -105.01,-67.35 -21.03,-14.27 -41.91,-28.88 -62.24,-44.14 -15.81,-11.87 -32.73,-24.87 -46.71,-38.85 -30.71,-30.71 -27.78,-6.94 -64.47,-9.69 -2.52,-0.19 -5.03,-0.52 -7.51,-0.97 -14.71,-2.68 -25.83,-22.07 -32.77,-33.94 -12.07,-20.64 -22.74,-42.8 -32.92,-64.43 -29.63,-63 -56.64,-127.88 -82.87,-192.37 -26.9,-66.14 -52.99,-132.73 -77.96,-199.62 -9.04,-24.22 -17.97,-48.53 -26.42,-72.97 -4.34,-12.57 -10.12,-28 -12.72,-40.99 -10.12,-50.59 -6.63,-102.92 -6.63,-154.2 0,-28.6 -7.14,-51.1 -16.61,-77.88 -17.31,-48.95 -34.11,-96.09 -48.58,-146.16 -30.53,-105.66 -245.2,-205.76 -344.42,-241.12l-0.75 -0.26 -0.72 -0.33c-35.82,-16.39 -71.46,-33.7 -106.67,-51.35 -30.63,-15.37 -61.1,-31.18 -91.07,-47.8 -27.27,-15.12 -54.96,-31.14 -80.53,-49 -11.82,-8.26 -46.8,-30.61 -51.3,-45.13 -3.84,-12.42 3.74,-22.28 14.84,-25.3 -2.47,-10.46 -4.73,-21.07 -7.07,-31.42 -6.04,-26.65 -12.01,-53.3 -17.98,-79.97 -5.87,-26.16 -11.72,-52.33 -17.64,-78.48 -2.7,-11.91 -5.23,-25.24 -8.51,-37.1 -3.21,-2.5 -9.07,-5.81 -11.94,-7.69 -11.34,-7.43 -21.93,-15.54 -32.17,-24.44 -29.04,-25.25 -40.13,-38.18 -58.3,-71.51 -3.82,-6.93 -12.45,-17.08 -17.44,-23.42 -13.02,-16.58 -26.37,-32.93 -39.74,-49.23 -37.63,-45.9 -75.76,-91.42 -113.93,-136.87 -37.24,-44.35 -74.59,-88.59 -111.94,-132.85 -12.47,-14.78 -24.94,-29.56 -37.37,-44.38 -5.04,-6.01 -12.29,-13.79 -16.59,-20.23 -3.98,-5.83 -16.83,-16.5 -23.7,-22.18 -16.79,-9.48 -33.76,-18.72 -50.83,-27.68 -11.93,-6.26 -51.23,-27.31 -63.18,-29.01 -9.55,-1.19 -21.15,-1.05 -30.83,-1.2 -16.91,-0.27 -33.84,-0.31 -50.75,-0.3 -22.61,0.02 -45.24,0.13 -67.84,0.39l-8.43 0.09 -755.7 -870.86 -71.49 -314.5 21.56 -1.16c41.32,-2.23 82.69,-4.16 124.04,-5.89 30.62,-1.28 61.27,-2.46 91.91,-3.15 17.84,-0.4 41.32,-1.66 58.89,0.54 25.21,3.15 54.89,12.39 79.32,19.71 29.91,8.97 59.63,18.67 89.25,28.54 30.6,10.2 56.07,38.62 76.8,62.27 17.16,19.59 39.94,48.09 62.58,60.89 33.22,18.77 77.77,31.2 114.88,38.76 67.01,13.65 137.05,16.78 205.2,12.57 51.52,-3.18 104.89,-7.17 155.77,-16.26 19.98,-3.57 40.74,-9.38 60.94,-10.57 20.66,-1.21 41.3,-3.17 61.95,-4.63 19.39,-1.37 40.72,-2.93 60.1,-1.55 22.55,1.61 65.33,21.86 86.49,31.52 15.64,7.15 31.18,14.51 46.75,21.81 10.02,4.7 20.58,9.91 30.89,13.88 57.32,22.05 114.15,45.74 171.37,68.13 50.56,19.78 62.51,35.45 100.83,71.85 22.67,21.53 37.55,46.38 52.05,73.82 17.75,33.6 34.08,66.53 54.09,99.04 56.59,91.95 115.26,183.05 173.41,274.04 2.52,3.93 5.21,7.93 7.65,11.92 26.18,33.05 70.38,81.42 105.62,101.98 26.03,15.18 46.23,36.15 64.54,59.77 14.53,18.75 27.62,39.7 43.16,57.46 28.9,33.03 48.5,46.93 89.92,63.13 10.75,4.2 22.5,11.24 32.47,17.08 17.04,9.98 33.83,20.5 50.5,31.1 45.61,29.02 90.64,59.17 135.27,89.67 47.07,32.17 93.87,64.91 139.89,98.58 31.56,23.09 66.46,48.18 95.29,74.54 29.1,26.6 58.37,49.5 91.16,71.26 36.31,24.1 73.15,46.85 109.11,71.62 16.25,11.2 32.72,22.55 48.38,34.56 6.88,5.28 14,10.94 19.91,17.33 3.07,3.32 5.71,6.94 8.77,10.26 5.66,6.14 12.61,11.89 19.06,17.17 22.57,18.46 46.82,36.12 70.18,53.61 37.05,27.74 74.25,55.29 111.49,82.79 49.68,36.69 99.43,73.3 149.27,109.78l9.08 6.64 -1.89 11.1c-4.6,27.07 -8.43,56.41 -8.91,83.86 -0.14,8.13 -0.13,18.81 1.85,26.7 4.34,16.06 60.54,78.88 73.49,93.29 21.99,24.46 44.55,48.75 67.46,72.39 9.58,-1.02 29.06,-8.66 35.26,-11.21 16.28,-6.7 32.19,-14.52 46.55,-24.77 10.2,-7.29 19.1,-15.64 28.58,-23.77 32.9,-28.19 101.99,-25.12 142.16,-21.96 40.43,3.17 75.88,32.19 102.87,60.51 11.91,12.5 22.9,25.69 33.79,39.07 4.04,4.96 12.64,16.54 17.31,20.18 6.02,4.01 15.05,5.32 22.18,6.39 17.06,2.57 33.38,4.73 50.31,8.56 40.42,9.13 86.62,-0.45 127.59,-0.45 30.54,0 60.41,4.28 90.59,8.3 38.32,5.11 37.77,73.54 40.17,103.43 1.58,19.74 12.66,48.59 19.86,67.11 11.21,28.87 23.89,57.33 36.87,85.45 24.07,52.16 36.14,76.61 77.75,118.22 35.79,35.79 70.95,72.53 105.81,109.21 17.56,18.48 35.09,37.03 52.32,55.81 8.01,8.73 19.52,20.42 26.83,30.49zm-3242.93 -66.68l-41.53 -53.69 8.35 -11.1c21,-27.91 61.49,-46.32 95.14,-50.87 65.63,-8.87 76.99,20.04 117.97,61.03 17.32,17.32 34.37,25.22 56.55,34.09 30.85,12.34 56.26,23.36 84.19,42.19 68.6,46.28 83.63,101.58 108.24,175.41 15.04,45.12 -6.65,131.42 -19.17,176.51 -8.11,29.23 -17.33,58.29 -27.43,86.89 -5.53,15.66 -11.89,34.6 -19.31,49.43 -6.67,13.35 -20.98,22.77 -34.9,12.3 -7.03,-5.29 -10.16,-14.26 -12.6,-22.38 -4.84,-16.15 -7.91,-32.88 -14.32,-48.54 -7.9,-19.31 -11.88,-40.92 -16.4,-61.26 -5.35,-24.08 -11.48,-47.06 -21.23,-69.81 -8.32,-19.42 -21.28,-35.39 -37.95,-48.24 -5.66,-4.36 -11.57,-8.2 -17.72,-11.82 -4.84,-2.85 -10.95,-5.86 -14.25,-9.85 -2.39,-2.32 -5.57,-4.88 -8.38,-7.48 -6.59,-6.13 -12.83,-12.61 -18.82,-19.33 -22.27,-25.01 -41.65,-53.73 -58.81,-82.42 -8.53,-14.27 -27.74,-44.45 -44.07,-51.43 -2.94,-1.26 -5.27,-1.45 -8.39,-1.75 -9.12,-0.9 -16.51,-4.08 -21.28,-12.42 -4.84,-8.47 -8.35,-20.21 -11.95,-29.44 -6.22,-15.96 -13.48,-31.14 -21.95,-46.01zm-879.51 -871.53c-0.78,-1.31 -1.74,-2.68 -2.29,-3.43 -19.55,-26.75 -48.19,-54.19 -73.82,-75.16l-9.96 -8.15 22.63 -62.84 13.76 1c15.99,1.14 32.02,2.58 47.97,4.24 23.1,2.4 51.26,5.16 73.48,11.52 21.41,6.12 39.04,22.9 54.76,37.94 21.38,20.45 41.41,39.51 65.59,56.87 42.55,30.55 85.82,64.56 120.75,103.85 16.19,18.21 34.42,35.86 51.85,52.94 11.48,11.25 23.03,22.46 34.67,33.54l41.39 39.39 -56.55 -8.2c-46.53,-6.74 -144.08,-23.95 -180.97,-48.07 -16.3,-10.66 -29.83,-16.77 -47.68,-24.05 -33.56,-13.68 -65.81,-28.27 -98.36,-44.3 -14.43,-7.11 -47.52,-22.56 -58.1,-34.78 -6.94,-8.02 -8.54,-18.51 -2.87,-27.67 1.26,-2.03 2.49,-3.32 3.76,-4.63zm4863.33 1118.47c9.84,6.87 19.82,13.61 29.83,20.23 12.05,7.98 28,19.12 41,25.03 25.43,11.56 31.06,62.56 32.42,87.61l0.34 6.19 -3.51 5.12c-5.24,7.62 -11.72,15.58 -18.16,22.17 -5.31,5.44 -11.64,10.95 -18.67,13.97 -12.86,5.52 -26.58,1.34 -32.99,-11.49 -11.78,-23.55 -27.91,-45.35 -53.61,-54.7 -29.14,-10.6 -31.9,-38.42 -23.45,-64.41 3.07,-9.43 7.3,-18.52 11.87,-27.3 2.39,-4.61 5.78,-10.01 7.77,-14.66l8.81 -20.57 18.34 12.82zm-3080.25 480.36c15.3,-7.66 109.54,-13.75 130.83,-13.75 25.21,0 42.26,10.57 51.04,33.99 6.13,16.34 -7.5,26.94 -20.83,32.11 -10.12,3.93 -21.49,6.59 -32.1,8.88 -21.92,4.73 -44.19,8.15 -66.36,11.48 -27.68,4.15 -74.51,-12.2 -100.2,-23.51l-39.69 -17.46 40.26 -16.11c12.04,-4.82 25.55,-9.88 37.04,-15.64zm-175.49 174.23c11.13,-12.66 30.45,-30.45 48.43,-28.2 13.87,1.73 19.85,11.34 26.8,21.91 5.81,8.83 11.52,14.96 20.57,20.67 34.59,21.85 39.32,47.23 40.98,85.55 1.22,28.01 -26.87,103.53 -37.14,131.28 -8.63,23.28 -17.73,46.68 -27.8,69.38 -6.18,13.92 -16.39,43.09 -36.05,39.81 -21.38,-3.56 -21.58,-34.67 -22.4,-51.24 -0.95,-19.17 -0.79,-38.38 -1.67,-57.54 -1.74,-38.21 19.8,-90.91 33.72,-127.09 4.79,-12.46 1.39,-20.3 -6.09,-30.67 -12.97,-17.98 -28.35,-32.66 -40.93,-51.86l-7.62 -11.63 9.19 -10.38zm6042.49 1604.01c112.68,-16.23 230.88,-4.55 325.02,64.3 32.84,24.02 72.22,64.41 89.37,102.35l3.07 6.78 -2.56 6.98c-14.52,39.72 -39.46,83.97 -63.03,118.64 -4.02,5.91 -17.17,24.11 -13.11,32.24 3.42,6.84 6.41,11.17 8.01,19.11 2.47,12.27 -0.62,24.43 -5.38,35.74 -17.75,42.17 -66.86,83.16 -104.26,108.1 -16.04,10.69 -31.4,-0.75 -34.54,-17.4 -1.62,-8.58 -1.75,-18.4 -2.27,-27.17 -1.08,-18.34 -3.15,-42.55 -13.12,-58.51 -6.46,-10.34 -8.84,-14.22 -20.63,-11.22 -10.28,2.61 -21.5,7.69 -31.29,11.82 -17.64,7.45 -35.19,14.78 -53.16,21.45 -16.03,5.96 -32,12.15 -48.06,17.99 -8.21,2.99 -18.52,6.88 -27.21,7.76 -11.38,1.14 -21.16,-3.43 -26.29,-13.83 -2.54,-5.13 -3.51,-10.97 -5.15,-16.44 -2.08,-6.95 -2.82,-16.5 -3.47,-23.75 -1.19,-13.1 -1.96,-26.29 -2.61,-39.43 -1.86,-37.53 -2.61,-75.24 -2.61,-112.81 0,-41.33 0.89,-82.97 3.86,-124.2 2.16,-30.09 5.42,-67.36 14.71,-96.08l3.49 -10.8 11.23 -1.62zm-924.21 -142.69c17.61,10.07 39.83,21.22 47.15,24.99 76.49,39.44 157.23,71.24 237.14,102.94 31.33,12.42 63.08,24.78 93.77,38.69 16.26,7.37 43.61,19.86 55.21,33.56 30.55,36.09 59.83,75.22 88.44,112.99l25.53 33.7 -42.02 -4.61c-16.8,-1.84 -33.73,-4.24 -50.42,-6.84 -27.67,-4.31 -58.64,-9.57 -85.09,-18.39 -18.61,-6.2 -41.17,-16.3 -60.29,-19.07 -11.14,-1.62 -17.71,-0.98 -21.69,10.3 -5.94,16.84 -14.93,34.12 -19.81,50.88 -2.79,9.58 -3.34,16.7 2.74,25.06 7.17,9.86 15.52,15.48 25.38,22.17 13.44,9.12 24.52,20.55 18.63,38.2 -5.03,15.09 -15.65,29.66 -28.42,39.08 -22.26,16.43 -49.19,17.28 -74.88,9.1 -30.04,-9.56 -48.49,-28.09 -73.04,-46.35 -35.81,-26.64 -73.45,-41.86 -116.46,-53.44 -59.06,-15.9 -121.31,-30.17 -178.68,-51.1 -20.9,-7.62 -44.62,-17.42 -62.5,-30.82 -16.29,-12.21 -29.03,-29.09 -25.8,-50.58 3.83,-25.56 15.1,-41.29 22.69,-64.05 8.16,-24.47 2.56,-47.03 -6.91,-70.34 -7.65,-18.82 -11.64,-37.13 -14.83,-57.07 -2.27,-14.18 -4.13,-29.02 -9.15,-42.55 -14.81,-39.91 -63.15,-66.04 -98.92,-83.62 -46.3,-22.76 -98.31,-48.89 -147.52,-64.56 -27.84,-8.86 -49.82,-11.65 -78.64,-11.65 -53.68,0 -95.83,-5.65 -129.34,-51.35 -8.96,-12.22 -18.06,-24.42 -26.92,-36.71l-13.86 -19.22 22.14 -8.44c31.83,-12.12 66.84,-31.21 94.9,-50.7 9.89,-6.87 49.87,-36.79 47.35,-51.1 -2.87,-16.24 -22.25,-35.51 -27.85,-53.99 -13.18,-43.42 37.77,-62.05 69.89,-71.54 85.7,-25.32 268.15,-85.44 350.83,-66.14 35.51,8.29 56.25,21.84 65.89,57.5 3.69,13.64 5.93,27.79 9.39,41.56 4.78,19.04 11.31,36.97 19.91,54.64 13.62,28 25.24,57.74 36.13,86.9 12.82,34.32 24.75,69.03 36.15,103.85 10.37,31.66 20.32,63.5 29.67,95.47 5.9,20.18 12.25,41.4 16.58,61.97 4.03,19.11 -5.53,33.66 -22.46,40.65zm-3929.65 344.21c-4.18,-3.31 -13.03,-7.63 -17.58,-10.05 -11.23,-5.96 -22.54,-11.74 -33.69,-17.84 -17.43,-9.53 -52.06,-27.68 -56.56,-48.63 -4.28,-19.96 -6.28,-43.48 -8.57,-63.89 -1.77,-15.82 -3.45,-31.64 -5.04,-47.48l-4.76 -46.83 35.03 31.45c12.4,11.12 24.9,22.17 37.42,33.16 9.41,8.26 18.86,16.49 28.41,24.59 5.72,4.85 12.06,10.5 18.19,14.79 7.96,5.57 17.81,18.03 24.08,25.6 11.46,13.86 22.62,28.01 33.84,42.06 21.9,27.42 46.21,59.18 71.39,83.43 27.78,26.74 55.81,53.32 84.02,79.6l27.62 25.67 -37.25 5.66c-12.08,1.9 -42.7,9.68 -50.29,19.51 -5.25,10.82 10.74,56.41 15.52,67.77l4.49 10.65 -7.73 8.59c-3.16,3.51 -7.17,7.08 -11.06,9.73 -14.08,9.59 -32.52,7.13 -37.69,-10.94 -2.28,-6.95 -11.48,-21.11 -15.44,-27.75 -9.84,-16.53 -19.74,-33.01 -28.9,-49.93 -7.18,-13.27 -15.47,-23.97 -23.61,-36.38 -10.71,-16.35 -16.98,-32.84 -22.25,-51.6 -5.01,-17.81 -9.07,-35.59 -13.61,-53.48 -0.96,-3.77 -3.4,-13.8 -5.96,-17.45zm-366.85 -542.07c15.3,6.35 31.96,16.24 45.78,25.18 20.18,13.05 53.11,66.29 66.34,87.49 10.43,16.71 20.6,33.64 30.4,50.73 4.43,7.72 12.83,21.19 15.59,29.46 5.62,16.86 -10.51,28.57 -26.62,23.27 -4.73,-1.56 -9.53,-3.83 -14.01,-5.99 -13.62,-6.57 -27.06,-13.96 -40.3,-21.26 -27.77,-15.31 -55.16,-31.24 -82.76,-46.84 -45.53,-25.73 -25.13,-87.78 -19.42,-127.81l3.32 -23.24 21.68 9zm-594.45 -743.27c45.92,5.85 98.62,33.17 130.48,65.97 20.39,20.98 42.74,63.01 56.82,88.91 24.87,45.75 48.06,92.7 70.52,139.67 21.47,44.9 42.37,90.18 62.32,135.79 7.07,16.17 14.06,32.42 20.65,48.79 3.47,8.64 8.14,19.54 10.19,28.58 5.71,25.12 -10.52,53.71 -25.71,72.69 -12.73,15.92 -36.69,39.72 -58.56,39.72 -17.59,0 -47.9,-32.38 -59.65,-44.09 -29.11,-29.02 -57.11,-59.71 -84.41,-90.44 -29.33,-33.02 -58.2,-66.7 -85.89,-101.12 -17.41,-21.63 -40.52,-49.64 -53.63,-73.99 -20.57,-38.21 -17.05,-122.18 -14.57,-166.28 1.58,-28.04 4,-56.03 6.78,-83.97 0.96,-9.62 1.97,-19.23 2.95,-28.84 0.43,-4.2 1.13,-9.16 1.19,-13.36l0 -20.65 20.51 2.61z"/>
    <path class="fil2" d="M3261.66 1909c45.4,37.14 331.71,246.77 331.71,246.77 0,0 -8.51,48.71 -9.17,86.6 -0.22,12.3 0.39,23.46 2.39,31.44 8.14,32.56 149.24,177.74 149.24,177.74 0,0 5.43,8.14 51.56,-10.85 46.13,-18.99 61.05,-35.28 80.05,-51.55 19,-16.28 59.7,-23.07 128.89,-17.64 69.2,5.43 128.89,105.83 145.17,116.68 16.28,10.85 36.63,8.14 78.69,17.64 42.06,9.5 99.04,0 131.6,0 32.56,0 67.84,5.43 88.19,8.14 20.35,2.71 21.71,52.91 24.42,86.83 2.71,33.92 33.92,105.82 58.34,158.74 24.42,52.92 35.28,77.33 81.41,123.47 46.13,46.13 173.67,179.09 184.52,195.37 10.86,16.28 29.85,99.05 92.26,176.38 62.42,77.33 71.91,56.98 105.82,70.55 33.92,13.57 168.24,67.84 260.5,104.47 92.26,36.63 77.34,42.06 118.04,48.84 40.7,6.78 96.33,32.56 149.24,56.98 52.91,24.42 203.52,124.82 237.44,128.89 33.92,4.07 51.55,12.21 54.27,25.78 2.71,13.57 8.14,51.56 24.42,78.69 16.28,27.14 13.57,46.13 -2.71,50.2 -16.28,4.07 -113.97,54.27 -130.25,77.34 -16.28,23.07 -33.92,33.92 -24.42,58.34 9.5,24.42 96.33,80.05 96.33,80.05 0,0 -141.1,172.31 -176.38,211.66 -35.28,39.35 -16.28,40.7 -14.92,61.06 0.57,8.62 4.56,22.85 15.06,40 14.27,23.32 40.57,52.03 86.7,79.39 80.05,47.49 348.69,89.55 417.88,94.97 69.19,5.43 99.04,32.56 99.04,32.56 0,0 27.14,120.75 40.71,233.36 7.06,58.62 12.29,90.4 17.01,114.48 4.36,22.18 8.28,37.83 12.84,61.9 9.5,50.2 127.53,153.31 184.52,202.15 56.99,48.84 58.38,82.64 67.79,107.74 9.42,25.1 37.66,50.21 56.49,65.91 18.83,15.69 273.02,56.49 332.65,78.46 59.62,21.97 56.49,15.69 84.73,40.79 28.25,25.11 6.28,31.38 40.8,106.7 34.52,75.32 53.35,84.73 84.73,125.53 31.38,40.79 128.67,78.46 153.77,119.25 25.11,40.8 3.14,21.96 3.14,75.32 0,53.35 -141.22,257.33 -141.22,257.33 0,0 -6.28,28.25 -3.14,72.18 3.14,43.93 75.32,150.64 75.32,150.64 0,0 -28.24,53.35 -40.79,72.18 -8.84,13.26 -28.58,42.09 -42.77,75.52 -5.96,14.04 -10.94,28.89 -13.72,43.74 -9.41,50.21 25.1,122.39 47.07,163.19 21.97,40.79 15.69,84.73 6.28,128.66 -9.41,43.94 -15.69,203.99 -25.11,298.14 -9.42,94.15 -9.42,131.8 -34.52,200.85 -25.1,69.04 -47.07,285.58 -47.07,285.58 0,0 -25.11,-6.28 -43.94,-12.55 -18.83,-6.28 -188.29,-160.04 -188.29,-160.04 0,0 -128.67,138.08 -150.63,138.08 -21.97,0 -75.32,-43.94 -106.7,-69.04 -31.38,-25.1 -244.78,-97.29 -244.78,-97.29 0,0 3.14,18.83 31.38,56.49 28.24,37.66 37.66,197.71 37.66,197.71 0,0 -21.97,-9.42 -31.38,-31.38 -9.42,-21.97 -203.98,-131.8 -235.37,-203.98 -28.04,-64.49 -334.12,-336.88 -399.05,-394.21 -7.74,-6.84 -12.06,-10.62 -12.06,-10.62 0,0 -40.8,0 -78.46,-31.38 -37.66,-31.38 -31.38,-18.83 -84.73,-56.49 -53.35,-37.66 -43.93,-53.35 -59.62,-94.15 -15.69,-40.8 -9.42,-3.14 -106.7,-65.9 -97.29,-62.77 -62.77,-47.07 -100.43,-78.46 -37.66,-31.38 -210.26,-125.53 -210.26,-125.53l-213.4 -197.71c0,0 -9.41,-62.76 -15.69,-100.43 -6.28,-37.66 -56.49,-62.76 -84.73,-97.28 -28.25,-34.52 -225.95,-128.67 -254.2,-166.33 -28.24,-37.66 -47.07,-56.49 -116.12,-153.77 -69.04,-97.28 -65.9,-69.04 -87.87,-141.22 -20.39,-66.99 -216.51,-228.61 -244.58,-251.49 -2.17,-1.77 -3.34,-2.71 -3.34,-2.71 0,0 -47.08,-81.59 -75.32,-128.67 -28.25,-47.07 -34.52,-144.36 -47.07,-169.46 -12.55,-25.1 -43.93,-213.4 -78.46,-282.44 -34.52,-69.04 -91.01,-112.97 -141.22,-213.4 -50.21,-100.42 -119.25,-238.51 -119.25,-266.75 0,-28.25 -119.26,-182.02 -119.26,-182.02 0,0 -169.46,-119.26 -222.81,-191.43 -53.35,-72.18 -28.25,-59.63 -56.49,-112.98 -28.24,-53.35 -15.69,-91.01 -53.35,-112.98 -37.66,-21.97 -169.46,-106.7 -210.26,-147.5 -38.49,-38.48 -46.25,-12.74 -75.98,-14.97 -1.79,-0.13 -3.65,-0.37 -5.61,-0.73 -34.52,-6.28 -241.64,-542.91 -251.05,-589.99 -9.41,-47.07 -6.28,-91.01 -6.28,-150.63 0,-59.62 -25.11,-87.87 -65.9,-229.09 -40.8,-141.22 -355.8,-253.21 -355.8,-253.21 0,0 -189.94,-86.83 -275.42,-146.53 -85.48,-59.69 -20.35,-25.78 -25.78,-46.13 -5.43,-20.35 -52.91,-236.07 -55.63,-244.21 -2.71,-8.14 -17.64,-10.85 -48.84,-37.99 -31.2,-27.13 -37.99,-36.63 -54.27,-66.48 -16.28,-29.85 -332.4,-400.23 -337.83,-408.37 -5.43,-8.14 -28.49,-27.14 -28.49,-27.14 0,0 -100.4,-56.98 -122.11,-59.69 -21.71,-2.71 -151.9,-1.26 -151.9,-1.26l-747.19 -861.04 -65.69 -289c0,0 238.58,-12.75 271.6,-8.62 33.02,4.13 115.55,30.95 165.08,47.46 49.52,16.51 88.73,94.92 136.19,121.74 47.46,26.82 163.02,63.97 330.16,53.65 167.14,-10.31 181.59,-24.76 216.67,-26.83 35.08,-2.06 90.79,-8.25 119.68,-6.19 28.89,2.06 132.07,55.71 158.89,66.03 26.83,10.32 123.81,49.52 171.27,68.1 47.46,18.57 53.65,28.89 94.92,68.09 41.27,39.21 53.65,88.73 103.17,169.21 42.18,68.55 144.25,228.42 173.58,274.31 5.1,7.99 8.01,12.52 8.01,12.52 0,0 61.91,78.41 111.43,107.3 49.52,28.89 74.28,80.47 103.17,113.49 28.89,33.02 49.52,49.52 96.99,68.1 47.46,18.57 375.55,241.43 447.77,307.46 72.22,66.03 109.37,80.47 202.22,144.44 92.86,63.97 49.52,41.27 94.92,78.41zm-1535.53 1048.2c40.76,40.77 78.51,34.72 143.42,78.5 64.92,43.78 78.51,98.14 101.15,166.07 22.65,67.94 -52.84,274.77 -64.92,298.93 -12.08,24.16 -15.1,-24.16 -28.69,-57.37 -13.59,-33.22 -15.1,-78.51 -37.74,-131.35 -22.64,-52.84 -69.22,-70.21 -72.97,-74.72 -3.75,-4.5 -36.03,-26.27 -84.07,-106.59 -48.04,-80.31 -67.55,-54.79 -73.56,-65.3 -6,-10.51 -11.26,-36.03 -34.53,-76.56l-33.81 -43.71c0,0 27.17,-36.23 83.04,-43.78 55.86,-7.55 61.9,15.1 102.66,55.86zm-1097.57 -960.19c0,0 86.05,6.04 117.76,15.1 31.7,9.06 55.86,49.82 114.74,92.09 58.88,42.27 93.6,73.98 117.76,101.15 24.16,27.17 87.57,87.57 87.57,87.57 0,0 -134.37,-19.62 -173.62,-45.29 -39.25,-25.67 -46.8,-19.63 -147.95,-69.45 -101.15,-49.82 -24.15,-25.67 -52.84,-64.92 -28.68,-39.25 -77,-78.51 -77,-78.51l13.59 -37.74zm4136.27 798.86c0,0 143.3,46.89 165.44,54.71 22.15,7.82 20.85,52.11 19.54,79.47 -1.3,27.36 32.57,106.82 52.11,131.57 19.55,24.75 53.41,63.83 65.13,69.05 11.73,5.21 27.36,-5.21 76.86,-37.78 49.5,-32.56 48.2,13.03 108.12,35.17 59.92,22.15 93.8,89.89 109.43,102.91 15.63,13.03 -20.85,69.05 -62.53,74.26 -41.69,5.21 -70.35,-13.03 -99.01,-7.82 -28.66,5.21 -155.02,5.21 -212.34,-15.63 -57.32,-20.85 -82.07,-104.21 -130.27,-160.23 -48.2,-56.02 -41.69,-87.28 -53.41,-118.54 -11.73,-31.26 -9.11,-41.69 -7.81,-79.47 1.3,-37.78 -82.07,-104.21 -91.19,-114.64l59.92 -13.03zm767.64 464.96c0,0 55.29,38.53 73.72,46.91 18.43,8.38 21.78,72.04 21.78,72.04 0,0 -30.16,43.56 -38.53,26.81 -8.38,-16.75 -26.81,-50.26 -63.67,-63.66 -36.86,-13.4 1.68,-70.37 6.7,-82.1zm-3061.69 481.72c8.87,-4.44 100.52,-11.83 122.69,-11.83 22.17,0 29.56,10.35 34,22.17 4.43,11.83 -75.38,23.65 -104.94,28.09 -29.56,4.43 -90.17,-22.17 -90.17,-22.17 0,0 29.56,-11.83 38.43,-16.26zm-137.46 147.81c11.83,1.48 11.83,22.17 39.91,39.91 28.08,17.74 31.04,36.96 32.52,70.95 1.48,34 -70.95,223.2 -79.82,221.72 -8.87,-1.48 -7.39,-59.12 -8.87,-91.64 -1.48,-32.52 17.74,-81.3 32.52,-119.73 14.78,-38.43 -20.69,-56.17 -48.78,-99.04 0,0 20.69,-23.65 32.52,-22.17zm5998.91 1632.17c304.94,-43.92 395.21,156.13 395.21,156.13 0,0 -19.51,53.67 -60.98,114.66 -41.47,60.99 7.31,43.91 -12.2,90.26 -19.51,46.35 -82.95,90.26 -97.58,100.02 -14.64,9.76 0,-58.55 -24.4,-97.58 -24.4,-39.03 -41.47,-17.08 -126.86,14.64 -85.38,31.72 -75.63,31.71 -82.94,7.31 -7.32,-24.4 -17.08,-302.5 9.76,-385.45zm-888 -119.54c156.14,80.5 353.74,139.06 380.57,170.77 26.84,31.72 87.83,112.22 87.83,112.22 0,0 -87.83,-9.76 -131.74,-24.4 -43.91,-14.64 -90.26,-39.03 -104.9,2.44 -14.64,41.47 -34.15,65.87 -14.64,92.7 19.51,26.84 46.35,29.28 41.47,43.91 -4.88,14.64 -26.84,53.68 -80.51,36.6 -53.67,-17.08 -63.43,-65.87 -190.28,-100.02 -126.86,-34.16 -261.04,-63.43 -253.72,-112.22 7.32,-48.79 46.35,-65.87 14.64,-143.94 -31.71,-78.06 12.2,-121.97 -131.74,-192.72 -143.94,-70.75 -178.09,-78.07 -234.2,-78.07 -56.11,0 -87.83,-7.32 -114.66,-43.91 -26.83,-36.59 -26.83,-36.59 -26.83,-36.59 51.23,-19.52 161.01,-80.51 153.69,-121.98 -7.32,-41.47 -78.07,-73.18 29.27,-104.9 107.34,-31.72 268.36,-82.95 341.54,-65.87 73.18,17.08 39.03,53.67 82.94,143.93 43.91,90.27 107.34,297.63 117.1,343.98 9.76,46.35 -121.98,-2.44 34.15,78.07zm-4071.78 113.32c0,0 70.95,63.56 85.73,73.91 14.78,10.35 87.21,110.86 127.12,149.29 39.91,38.43 84.25,79.82 84.25,79.82 0,0 -47.3,7.39 -62.08,26.61 -14.78,19.22 13.3,85.73 13.3,85.73 0,0 -14.78,16.26 -17.74,5.91 -2.96,-10.35 -26.61,-45.82 -45.82,-81.3 -19.22,-35.48 -31.04,-36.95 -44.35,-84.25 -13.3,-47.3 -14.78,-68 -23.65,-78.34 -8.87,-10.35 -99.04,-47.3 -103.47,-68 -4.43,-20.69 -13.3,-109.39 -13.3,-109.39zm-270.5 -335.54c0,0 17.74,7.39 42.87,23.65 25.13,16.26 101.99,149.29 104.95,158.16 2.96,8.87 -103.47,-53.21 -137.47,-72.43 -34,-19.22 -14.78,-78.34 -10.35,-109.39zm-589.77 -742.02c0,0 69.47,8.87 119.73,60.6 50.26,51.74 208.42,400.58 215.81,433.1 7.39,32.52 -44.35,90.17 -66.52,90.17 -22.17,0 -236.5,-242.41 -267.54,-300.06 -31.04,-57.65 -1.48,-267.54 -1.48,-283.8z"/>
   </g>
  </g>
 </g>
</svg>
