<?xml version="1.0" encoding="UTF-8"?>
<!DOCTYPE svg PUBLIC "-//W3C//DTD SVG 1.1//EN" "http://www.w3.org/Graphics/SVG/1.1/DTD/svg11.dtd">
<!-- Creator: CorelDRAW -->
<svg xmlns="http://www.w3.org/2000/svg" xml:space="preserve" width="261.019mm" height="230.731mm" version="1.1" style="shape-rendering:geometricPrecision; text-rendering:geometricPrecision; image-rendering:optimizeQuality; fill-rule:evenodd; clip-rule:evenodd"
viewBox="0 0 3462.47 3060.7"
 xmlns:xlink="http://www.w3.org/1999/xlink"
 xmlns:xodm="http://www.corel.com/coreldraw/odm/2003">
 <defs>
  <style type="text/css">
   <![CDATA[
    .str0 {stroke:#6DAA76;stroke-width:3.51;stroke-miterlimit:22.9256}
    .fil0 {fill:none}
    .fil1 {fill:#6DAA76}
    .fil2 {fill:white;fill-rule:nonzero}
   ]]>
  </style>
 </defs>
 <g id="Layer_x0020_1">
  <metadata id="CorelCorpID_0Corel-Layer"/>
  <g id="_2284970915968">
   <g>
    <rect class="fil0" width="3462.47" height="3060.7"/>
    <g>
     <path class="fil0" d="M1836.07 1169.79c-0.33,-0.92 -0.64,-1.84 -0.94,-2.78 -1.94,-6.18 -2.68,-12.98 -4.9,-18.91 -5,-13.33 -3.93,-19.55 -3.46,-33.34 0.19,-5.48 -10.31,-17 -14.11,-20.94 -3.76,-3.9 -7.71,-7.62 -11.72,-11.28 -2.39,-2.18 -5.5,-4.72 -7.6,-7.12l-7.83 -8.95 36.59 -7.95 1.81 0.59c9.61,3.14 19.21,6.29 28.8,9.45 11.69,3.85 23.54,7.6 35.14,11.69 13.64,4.82 12.77,25.77 12.21,37.59 -0.44,9.24 12.7,38.59 18.59,46.04 3.8,4.81 17.15,21.19 22.23,24.41 3.77,-0.72 20.33,-12.01 23.15,-13.87 9.64,-6.34 17.94,-8.04 27.43,-0.86 7.53,5.69 11.07,10.2 20.55,13.71 12.27,4.53 22.15,13.35 30.44,23.23 3.19,3.8 6.12,7.76 9.07,11.74 1.13,1.53 3.32,4.72 4.74,5.9 7.97,6.64 2.32,18.52 -2.67,25.08 -5.95,7.83 -15.09,14.66 -25.06,15.9 -8.16,1.02 -15.29,0.03 -23.24,-1.59 -4.44,-0.91 -10.02,-2.3 -14.54,-1.48 -4.83,0.88 -10.52,1.03 -15.43,1.15 -7.63,0.19 -15.31,0.06 -22.94,-0.29 -14.71,-0.68 -33.42,-2.2 -47.15,-7.2 -24.83,-9.03 -36.29,-44.21 -53.15,-63.8 -4.06,-4.72 -7.69,-9.59 -10.71,-14.82 0.02,0.06 0.05,0.12 0.07,0.19 2.02,5.31 4.04,10.59 6.28,15.82 6.33,14.75 14.14,28.67 24.25,41.19 5.02,6.22 14.27,17.49 21.86,20.79 2.03,0.88 4.07,1.25 6.23,1.65 3.46,0.63 6.56,1.33 9.86,2.65 33.49,13.4 66.9,26.96 100.42,40.27 10.71,4.25 20.71,8.69 30.89,14.04 4.99,2.63 7.46,3.43 13.19,4.39 18.91,3.15 41.82,14.44 59.33,22.52 7.33,3.38 14.7,7.75 21.67,11.83 9.19,5.37 18.31,10.87 27.48,16.29 6.68,3.95 33.56,20.17 40.29,20.98 9.79,1.17 24.64,3.9 26.97,15.53 1.92,9.58 3.44,19.59 8.55,28.11 3.01,5.01 5.63,11.21 5.16,17.17 -0.49,6.27 -4.39,11.07 -10.53,12.6 -7.42,1.91 -41.98,21.1 -46.19,27.06 -2.5,3.54 -6.01,7.09 -8.17,10.65 -1.17,1.93 -1.28,3.09 -0.44,5.25 2.45,5.95 28.09,23.47 34.37,27.49l6.66 4.25 -5.01 6.12c-9.64,11.78 -19.32,23.53 -29.02,35.26 -12.83,15.51 -25.76,31.61 -39.18,46.58 -1.11,1.24 -6.52,7.5 -6.4,9.37 0.03,0.47 0.54,1.62 0.71,2.05 0.92,2.32 1.54,4.45 1.71,6.96 0.26,3.86 2.82,9.01 4.79,12.23 7.2,11.76 19.32,21.3 31.02,28.24 9.23,5.48 22.48,9.5 32.79,12.44 15.48,4.42 31.35,7.96 47.13,11.11 15.45,3.08 31,5.79 46.57,8.14 10.38,1.56 21.12,3.15 31.59,3.97 12.69,0.99 32.5,5.36 42.37,14.37l1.64 1.49 0.48 2.16c6.62,29.64 12.18,60.53 15.81,90.66 1.75,14.55 3.65,29.23 6.48,43.63 1.57,7.99 3.44,15.91 4.96,23.91 3.32,17.57 54.04,61.25 68.81,73.92 8.72,7.47 16.61,16.06 21.68,26.45 3.02,6.18 4.14,11.77 6.46,17.95 2.99,7.98 12.95,16.85 19.47,22.29 3.54,1.93 15.32,4.41 19.3,5.32 12.59,2.87 25.28,5.41 37.93,7.98 13.47,2.74 26.96,5.44 40.38,8.41 9.26,2.05 19.93,4.26 28.81,7.53 6.87,2.53 14.51,4.71 21.18,7.53 5.5,2.33 9.3,5.6 13.73,9.54 6.22,5.53 7.9,9.53 9.22,17.4 1.61,9.66 4.11,17.08 8.23,26.06 4.48,9.77 9.42,19.3 15.98,27.84 5.05,6.58 10.79,12.59 15.88,19.2 5.96,7.75 20.32,16.08 28.71,21.32 9.98,6.24 24.77,15.15 30.99,25.26 3.56,5.78 7.24,11.63 4.92,18.6 -0.55,1.66 -1.27,3.17 -1.72,4.89 -0.77,2.94 -0.94,6.2 -0.94,9.23 0,20.34 -40.83,81.63 -54.87,102.02 -1.39,7.46 -1.32,17.31 -0.8,24.52 0.88,12.39 20.49,43.73 27.86,54.65l2.35 3.49 -1.97 3.72c-4.92,9.3 -10.3,19.75 -16.09,28.44 -6.02,9.03 -11.6,17.92 -15.87,27.96 -2.09,4.93 -3.86,10.14 -4.85,15.41 -3.19,17.01 9.5,43.57 17.43,58.3 9.41,17.48 7.09,35.8 3.1,54.41 -1.3,6.05 -1.85,13 -2.41,19.17 -0.91,10 -1.61,20.04 -2.29,30.06 -1.48,21.62 -2.7,43.39 -4.86,64.95 -1.42,14.15 -2.39,28.59 -4.42,42.65 -1.84,12.73 -4.87,24.37 -9.27,36.48 -3.05,8.39 -4.97,18.48 -6.61,27.26 -2.24,11.99 -4.06,24.09 -5.72,36.17 -2.05,14.94 -3.91,29.99 -5.43,44.99l-0.82 8.07 -7.87 -1.97c-5.82,-1.46 -11.77,-3.09 -17.46,-4.99 -4.34,-1.44 -12.98,-8.87 -16.61,-11.87 -8.36,-6.9 -16.56,-14.03 -24.71,-21.18 -9.61,-8.43 -19.16,-16.93 -28.65,-25.49 -7.01,7.41 -14.18,14.72 -21.41,21.87 -6.43,6.35 -13.02,12.73 -19.89,18.59 -4.12,3.52 -11.52,9.97 -17.17,9.97 -12.03,0 -35.68,-20.28 -45.52,-28.16 -3.85,-3.08 -13.47,-6.97 -18.11,-8.93 -10.35,-4.37 -20.91,-8.38 -31.45,-12.28 -8.79,-3.25 -17.64,-6.45 -26.51,-9.57 1.43,2.13 2.8,4.03 3.79,5.35 10.59,14.12 14.81,61.48 15.91,80.02l0.68 11.44 -10.49 -4.59c-6.53,-2.83 -12.64,-8.87 -15.57,-15.36 -2.2,-2.76 -11.03,-8.85 -13.86,-10.89 -9.32,-6.68 -18.75,-13.2 -27.99,-20 -15.01,-11.03 -41.58,-30.94 -49.05,-48.14 -3.4,-7.83 -17.74,-22.77 -23.74,-29.1 -14.86,-15.68 -30.54,-30.79 -46.24,-45.63 -26.88,-25.41 -54.36,-50.32 -82.09,-74.8 -0.92,-0.82 -1.85,-1.63 -2.77,-2.45 -11.22,-0.86 -23.74,-6.75 -31.97,-13.62 -4.3,-3.59 -8.14,-6.53 -13,-9.25 -6.77,-3.79 -12.86,-7.7 -19.22,-12.19 -7.74,-5.47 -15.25,-11.71 -19.27,-20.51 -2.74,-5.99 -3.82,-12.77 -6.22,-19 -0.37,-0.95 -1.38,-3.69 -2.07,-4.67 -0.62,-0.27 -1.71,-0.52 -2.28,-0.68 -2.37,-0.67 -4.67,-1.38 -6.97,-2.25 -9.41,-3.54 -18.66,-9 -27.08,-14.42 -6.75,-4.35 -13.55,-8.76 -20.1,-13.41 -3.05,-2.17 -6.21,-4.48 -8.92,-7.07 -1.52,-1.45 -2.78,-2.97 -4.18,-4.51 -1.9,-2.08 -4.04,-3.96 -6.21,-5.77 -5.2,-4.34 -12.16,-8.5 -17.94,-12.06 -8.87,-5.47 -17.88,-10.73 -26.92,-15.91 -11.61,-6.66 -23.31,-13.25 -35.07,-19.65l-0.77 -0.42 -84.72 -78.49 -0.37 -2.42c-1.98,-12.88 -3.89,-25.77 -6.04,-38.63 -0.97,-5.82 -6.78,-11.38 -10.95,-15.16 -6.86,-6.22 -14.33,-11.84 -20.23,-19.05 -3.06,-3.74 -12.46,-9.47 -16.65,-12.08 -9.98,-6.2 -20.25,-12.03 -30.43,-17.9 -10.37,-5.98 -20.82,-11.97 -30.9,-18.41 -6.13,-3.92 -15.85,-10.17 -20.21,-15.98 -5.31,-7.09 -10.94,-13.93 -16.4,-20.91 -9.84,-12.58 -19.23,-25.5 -28.48,-38.53 -4.85,-6.83 -9.84,-13.55 -15.08,-20.09 -2.83,-3.53 -5.84,-7 -8.55,-10.62 -5.94,-7.92 -8.38,-16.39 -11.23,-25.76 -6.63,-21.78 -72.42,-77.6 -92.02,-93.56 -0.39,-0.32 -0.77,-0.63 -1.16,-0.94l-1.05 -0.79 -0.72 -1.23c-9.59,-16.54 -19.15,-33.12 -28.99,-49.52 -6.44,-10.74 -9.74,-25.76 -12.21,-38.08 -1.18,-5.89 -2.22,-11.81 -3.45,-17.69 -0.58,-2.79 -1.49,-7.51 -2.75,-10.04 -2.41,-4.82 -4.2,-13.56 -5.45,-18.88 -2.41,-10.24 -4.67,-20.51 -7.06,-30.76 -2.62,-11.23 -5.36,-22.48 -8.55,-33.57 -2.42,-8.39 -5.29,-17.87 -9.19,-25.69 -6.45,-12.89 -15.51,-24.09 -24.24,-35.46 -11.6,-15.1 -21.65,-29.7 -30.2,-46.81 -10.29,-20.58 -20.63,-41.18 -30.33,-62.04 -4.18,-9 -16.38,-34.42 -16.38,-43.81 -1.34,-8.87 -35.13,-53.85 -43.87,-65.18 -11.82,-8.35 -23.5,-17.22 -34.83,-26.19 -9.85,-7.8 -19.57,-15.85 -28.85,-24.32 -7.99,-7.29 -16.52,-15.54 -22.96,-24.25 -5.77,-7.81 -12.64,-17.2 -15.57,-26.58 -0.77,-2.45 -1.32,-4.95 -2.12,-7.39 -1.19,-3.63 -2.86,-7.11 -4.64,-10.48 -5.07,-9.57 -6.74,-17.61 -9.5,-27.76 -1.55,-5.71 -3.08,-9.91 -8.41,-13.02 -13.69,-7.98 -27.38,-17.07 -40.49,-25.97 -8.11,-5.5 -16.16,-11.14 -24,-17.02 -6.1,-4.58 -12.62,-9.59 -18.01,-14.98 -11.84,-11.84 -10.71,-2.68 -24.86,-3.74 -0.97,-0.07 -1.94,-0.2 -2.9,-0.37 -5.67,-1.03 -9.96,-8.51 -12.64,-13.09 -4.65,-7.96 -8.77,-16.5 -12.69,-24.84 -11.42,-24.29 -21.84,-49.31 -31.95,-74.17 -10.37,-25.5 -20.43,-51.17 -30.06,-76.97 -3.48,-9.34 -6.93,-18.71 -10.19,-28.13 -1.67,-4.85 -3.9,-10.8 -4.9,-15.8 -3.9,-19.5 -2.56,-39.68 -2.56,-59.45 0,-11.03 -2.75,-19.7 -6.4,-30.03 -6.68,-18.87 -13.15,-37.05 -18.73,-56.35 -11.77,-40.74 -94.54,-79.33 -132.79,-92.97l-0.29 -0.1 -0.28 -0.13c-13.81,-6.32 -27.55,-12.99 -41.13,-19.8 -11.81,-5.92 -23.56,-12.02 -35.11,-18.43 -10.51,-5.83 -21.19,-12.01 -31.05,-18.89 -4.56,-3.18 -18.04,-11.8 -19.78,-17.4 -1.48,-4.79 1.44,-8.59 5.72,-9.75 -0.95,-4.03 -1.82,-8.12 -2.73,-12.11 -2.33,-10.27 -4.63,-20.55 -6.93,-30.83 -2.26,-10.09 -4.52,-20.18 -6.8,-30.26 -1.04,-4.59 -2.02,-9.73 -3.28,-14.31 -1.24,-0.97 -3.5,-2.24 -4.6,-2.96 -4.37,-2.87 -8.46,-5.99 -12.4,-9.42 -11.2,-9.74 -15.47,-14.72 -22.48,-27.57 -1.47,-2.67 -4.8,-6.58 -6.72,-9.03 -5.02,-6.39 -10.17,-12.7 -15.32,-18.98 -14.51,-17.7 -29.21,-35.25 -43.93,-52.77 -14.36,-17.1 -28.76,-34.16 -43.16,-51.22 -4.81,-5.7 -9.62,-11.4 -14.41,-17.11 -1.94,-2.32 -4.74,-5.32 -6.4,-7.8 -1.53,-2.25 -6.49,-6.36 -9.14,-8.55 -6.47,-3.65 -13.02,-7.22 -19.6,-10.67 -4.6,-2.41 -19.75,-10.53 -24.36,-11.19 -3.68,-0.46 -8.16,-0.4 -11.89,-0.46 -6.52,-0.1 -13.05,-0.12 -19.57,-0.12 -8.72,0.01 -17.44,0.05 -26.16,0.15l-3.25 0.04 -291.36 -335.76 -27.56 -121.26 8.31 -0.45c15.93,-0.86 31.88,-1.61 47.82,-2.27 11.81,-0.49 23.62,-0.95 35.44,-1.22 6.88,-0.16 15.93,-0.64 22.7,0.21 9.72,1.22 21.16,4.78 30.58,7.6 11.53,3.46 22.99,7.2 34.41,11 11.8,3.93 21.62,14.89 29.61,24.01 6.62,7.55 15.4,18.54 24.13,23.48 12.81,7.24 29.98,12.03 44.29,14.94 25.84,5.26 52.84,6.47 79.12,4.85 19.86,-1.23 40.44,-2.76 60.06,-6.27 7.7,-1.38 15.71,-3.62 23.5,-4.08 7.96,-0.47 15.92,-1.22 23.89,-1.78 7.48,-0.53 15.7,-1.13 23.17,-0.6 8.7,0.62 25.19,8.43 33.34,12.15 6.03,2.76 12.02,5.59 18.03,8.41 3.86,1.81 7.93,3.82 11.91,5.35 22.1,8.5 44.01,17.64 66.07,26.27 19.49,7.63 24.1,13.67 38.87,27.7 8.74,8.3 14.48,17.88 20.07,28.46 6.84,12.95 13.14,25.65 20.85,38.19 21.82,35.45 44.44,70.58 66.86,105.66 0.97,1.52 2.01,3.06 2.95,4.6 10.09,12.74 27.14,31.39 40.72,39.32 10.04,5.85 17.83,13.94 24.88,23.04 5.6,7.23 10.65,15.31 16.64,22.15 11.14,12.73 18.7,18.09 34.67,24.34 4.14,1.62 8.68,4.33 12.52,6.58 6.57,3.85 13.05,7.9 19.47,11.99 17.59,11.19 34.95,22.81 52.15,34.57 18.15,12.4 36.19,25.03 53.94,38.01 12.17,8.9 25.62,18.58 36.74,28.74 11.22,10.26 22.5,19.08 35.15,27.48 14,9.29 28.2,18.06 42.07,27.61 6.27,4.32 12.61,8.69 18.65,13.33 2.65,2.04 5.4,4.22 7.68,6.68 1.18,1.28 2.2,2.68 3.38,3.95 2.18,2.37 4.86,4.59 7.35,6.62 8.7,7.12 18.05,13.93 27.06,20.67 14.29,10.7 28.63,21.32 42.98,31.92 19.15,14.15 38.34,28.26 57.55,42.33l3.5 2.56 -0.73 4.28c-1.77,10.44 -3.25,21.75 -3.44,32.33 -0.05,3.13 -0.05,7.25 0.71,10.3 1.67,6.19 23.34,30.41 28.34,35.97 8.48,9.43 17.18,18.79 26.01,27.91 3.69,-0.39 11.21,-3.34 13.59,-4.32 6.28,-2.58 12.41,-5.6 17.95,-9.55 3.93,-2.81 7.36,-6.03 11.02,-9.16 12.68,-10.87 39.32,-9.68 54.81,-8.47 15.59,1.22 29.26,12.41 39.66,23.33 4.59,4.82 8.83,9.91 13.03,15.07 1.56,1.91 4.87,6.38 6.67,7.78 2.32,1.55 5.8,2.05 8.55,2.46 6.58,0.99 12.87,1.83 19.4,3.3 15.58,3.52 33.4,-0.17 49.19,-0.17 11.77,0 23.29,1.65 34.93,3.2 14.78,1.97 14.56,28.35 15.49,39.88 0.61,7.61 4.88,18.73 7.66,25.88 4.32,11.13 9.21,22.11 14.21,32.95 9.28,20.11 13.93,29.54 29.98,45.58 13.8,13.8 27.35,27.96 40.8,42.11 6.77,7.12 13.53,14.28 20.17,21.52 3.09,3.37 7.53,7.87 10.34,11.75zm-1250.32 -25.71l-16.01 -20.7 3.22 -4.28c8.1,-10.76 23.71,-17.86 36.68,-19.61 25.3,-3.42 29.68,7.73 45.48,23.53 6.68,6.68 13.25,9.72 21.8,13.14 11.89,4.76 21.69,9.01 32.46,16.27 26.45,17.84 32.25,39.16 41.73,67.63 5.8,17.4 -2.56,50.67 -7.39,68.05 -3.13,11.27 -6.68,22.47 -10.58,33.5 -2.13,6.04 -4.59,13.34 -7.44,19.06 -2.57,5.15 -8.09,8.78 -13.45,4.74 -2.71,-2.04 -3.92,-5.5 -4.86,-8.63 -1.87,-6.23 -3.05,-12.68 -5.52,-18.71 -3.05,-7.45 -4.58,-15.78 -6.32,-23.62 -2.06,-9.29 -4.43,-18.14 -8.18,-26.92 -3.21,-7.49 -8.2,-13.65 -14.63,-18.6 -2.18,-1.68 -4.46,-3.16 -6.83,-4.56 -1.87,-1.1 -4.22,-2.26 -5.5,-3.8 -0.92,-0.89 -2.15,-1.88 -3.23,-2.89 -2.54,-2.36 -4.95,-4.86 -7.25,-7.45 -8.59,-9.64 -16.06,-20.72 -22.67,-31.78 -3.29,-5.5 -10.7,-17.14 -16.99,-19.83 -1.13,-0.48 -2.03,-0.56 -3.23,-0.68 -3.52,-0.35 -6.37,-1.57 -8.2,-4.79 -1.87,-3.27 -3.22,-7.79 -4.61,-11.35 -2.4,-6.15 -5.2,-12.01 -8.46,-17.74zm-339.1 -336.02c-0.3,-0.51 -0.67,-1.03 -0.88,-1.32 -7.54,-10.31 -18.58,-20.89 -28.46,-28.98l-3.84 -3.14 8.72 -24.23 5.3 0.38c6.17,0.44 12.35,0.99 18.5,1.63 8.91,0.93 19.77,1.99 28.33,4.44 8.26,2.36 15.05,8.83 21.11,14.63 8.24,7.88 15.97,15.23 25.29,21.93 16.41,11.78 33.09,24.89 46.55,40.04 6.24,7.02 13.27,13.83 19.99,20.41 4.43,4.34 8.88,8.66 13.37,12.93l15.96 15.19 -21.8 -3.16c-17.94,-2.6 -55.55,-9.23 -69.78,-18.53 -6.28,-4.11 -11.5,-6.46 -18.38,-9.27 -12.94,-5.28 -25.37,-10.9 -37.92,-17.08 -5.56,-2.74 -18.32,-8.7 -22.4,-13.41 -2.68,-3.09 -3.29,-7.14 -1.1,-10.67 0.48,-0.78 0.96,-1.28 1.45,-1.79zm1875.08 431.23c3.8,2.65 7.64,5.25 11.5,7.8 4.65,3.08 10.79,7.37 15.81,9.65 9.8,4.46 11.98,24.12 12.5,33.78l0.13 2.39 -1.35 1.97c-2.02,2.94 -4.52,6.01 -7,8.55 -2.05,2.1 -4.49,4.22 -7.2,5.39 -4.96,2.13 -10.25,0.52 -12.72,-4.43 -4.54,-9.08 -10.76,-17.48 -20.67,-21.09 -11.24,-4.09 -12.3,-14.81 -9.04,-24.84 1.18,-3.63 2.81,-7.14 4.58,-10.52 0.92,-1.78 2.23,-3.86 3,-5.65l3.4 -7.93 7.07 4.94zm-1187.6 185.2c5.9,-2.95 42.23,-5.3 50.44,-5.3 9.72,0 16.29,4.08 19.68,13.1 2.36,6.3 -2.89,10.39 -8.03,12.38 -3.9,1.51 -8.29,2.54 -12.38,3.43 -8.45,1.83 -17.04,3.14 -25.59,4.43 -10.67,1.6 -28.73,-4.71 -38.63,-9.06l-15.3 -6.73 15.52 -6.21c4.64,-1.86 9.85,-3.81 14.28,-6.03zm-67.66 67.18c4.29,-4.88 11.74,-11.74 18.67,-10.87 5.35,0.67 7.65,4.37 10.33,8.45 2.24,3.41 4.44,5.77 7.93,7.97 13.34,8.42 15.16,18.21 15.8,32.99 0.47,10.8 -10.36,39.92 -14.32,50.61 -3.33,8.98 -6.84,18 -10.72,26.75 -2.38,5.37 -6.32,16.61 -13.9,15.35 -8.24,-1.37 -8.32,-13.37 -8.64,-19.75 -0.37,-7.39 -0.31,-14.8 -0.64,-22.18 -0.67,-14.73 7.64,-35.05 13,-49 1.85,-4.8 0.54,-7.83 -2.35,-11.83 -5,-6.93 -10.93,-12.59 -15.78,-19.99l-2.94 -4.48 3.54 -4zm2329.71 618.43c43.44,-6.26 89.02,-1.75 125.31,24.79 12.66,9.26 27.84,24.83 34.46,39.46l1.18 2.61 -0.99 2.69c-5.6,15.31 -15.21,32.38 -24.3,45.74 -1.55,2.28 -6.62,9.3 -5.05,12.43 1.32,2.64 2.47,4.31 3.09,7.37 0.95,4.73 -0.24,9.42 -2.07,13.78 -6.84,16.26 -25.78,32.06 -40.2,41.68 -6.18,4.12 -12.1,-0.29 -13.32,-6.71 -0.63,-3.31 -0.68,-7.1 -0.88,-10.47 -0.42,-7.07 -1.21,-16.41 -5.06,-22.56 -2.49,-3.99 -3.41,-5.48 -7.96,-4.32 -3.96,1.01 -8.29,2.96 -12.06,4.56 -6.8,2.87 -13.57,5.7 -20.49,8.27 -6.18,2.3 -12.34,4.68 -18.53,6.94 -3.17,1.15 -7.14,2.65 -10.49,2.99 -4.39,0.44 -8.16,-1.32 -10.14,-5.33 -0.98,-1.98 -1.35,-4.23 -1.99,-6.34 -0.8,-2.68 -1.09,-6.36 -1.34,-9.16 -0.46,-5.05 -0.75,-10.14 -1.01,-15.2 -0.72,-14.47 -1.01,-29.01 -1.01,-43.5 0,-15.94 0.34,-31.99 1.49,-47.89 0.83,-11.6 2.09,-25.97 5.67,-37.05l1.35 -4.16 4.33 -0.62zm-356.33 -55.01c6.79,3.88 15.36,8.18 18.18,9.63 29.49,15.21 60.62,27.47 91.43,39.69 12.08,4.79 24.32,9.55 36.15,14.92 6.27,2.84 16.81,7.66 21.29,12.94 11.78,13.92 23.07,29 34.1,43.56l9.84 12.99 -16.2 -1.78c-6.48,-0.71 -13,-1.63 -19.44,-2.64 -10.67,-1.66 -22.61,-3.69 -32.81,-7.09 -7.18,-2.39 -15.87,-6.28 -23.24,-7.35 -4.3,-0.62 -6.83,-0.38 -8.36,3.97 -2.29,6.49 -5.76,13.16 -7.64,19.62 -1.08,3.69 -1.29,6.44 1.05,9.66 2.76,3.8 5.98,5.97 9.79,8.55 5.18,3.52 9.45,7.92 7.18,14.73 -1.94,5.82 -6.04,11.44 -10.96,15.07 -8.58,6.34 -18.96,6.66 -28.87,3.51 -11.58,-3.69 -18.7,-10.83 -28.16,-17.87 -13.81,-10.27 -28.32,-16.14 -44.9,-20.6 -22.77,-6.13 -46.77,-11.63 -68.89,-19.7 -8.06,-2.94 -17.2,-6.71 -24.1,-11.88 -6.28,-4.71 -11.19,-11.22 -9.95,-19.5 1.48,-9.85 5.82,-15.92 8.75,-24.69 3.15,-9.44 0.99,-18.13 -2.66,-27.12 -2.95,-7.26 -4.49,-14.31 -5.72,-22 -0.87,-5.47 -1.59,-11.19 -3.53,-16.41 -5.71,-15.39 -24.35,-25.46 -38.14,-32.24 -17.85,-8.77 -37.9,-18.85 -56.88,-24.89 -10.74,-3.42 -19.21,-4.49 -30.32,-4.49 -20.7,0 -36.95,-2.18 -49.87,-19.8 -3.46,-4.71 -6.96,-9.41 -10.38,-14.16l-5.34 -7.41 8.54 -3.25c12.27,-4.67 25.77,-12.03 36.59,-19.55 3.81,-2.65 19.23,-14.18 18.26,-19.7 -1.11,-6.26 -8.58,-13.69 -10.74,-20.81 -5.08,-16.74 14.56,-23.92 26.95,-27.58 33.04,-9.76 103.39,-32.94 135.27,-25.5 13.69,3.2 21.69,8.42 25.4,22.17 1.42,5.26 2.29,10.72 3.62,16.02 1.84,7.34 4.36,14.25 7.68,21.07 5.25,10.79 9.73,22.26 13.93,33.51 4.94,13.23 9.54,26.62 13.94,40.04 4,12.21 7.84,24.48 11.44,36.81 2.28,7.78 4.72,15.96 6.39,23.89 1.55,7.37 -2.13,12.98 -8.66,15.67zm-1515.09 132.71c-1.61,-1.27 -5.02,-2.94 -6.78,-3.87 -4.33,-2.3 -8.69,-4.53 -12.99,-6.88 -6.72,-3.68 -20.07,-10.67 -21.81,-18.75 -1.65,-7.7 -2.42,-16.76 -3.3,-24.63 -0.68,-6.1 -1.33,-12.2 -1.94,-18.3l-1.83 -18.06 13.51 12.13c4.78,4.29 9.6,8.55 14.43,12.79 3.63,3.18 7.27,6.36 10.95,9.48 2.2,1.87 4.65,4.05 7.01,5.7 3.07,2.15 6.87,6.95 9.28,9.87 4.42,5.34 8.72,10.8 13.05,16.22 8.44,10.57 17.82,22.82 27.52,32.17 10.71,10.31 21.52,20.56 32.39,30.69l10.65 9.9 -14.36 2.18c-4.66,0.73 -16.46,3.73 -19.39,7.52 -2.02,4.17 4.14,21.75 5.98,26.13l1.73 4.11 -2.98 3.31c-1.22,1.35 -2.77,2.73 -4.27,3.75 -5.43,3.7 -12.54,2.75 -14.53,-4.22 -0.88,-2.68 -4.43,-8.14 -5.95,-10.7 -3.79,-6.37 -7.61,-12.73 -11.14,-19.25 -2.77,-5.12 -5.97,-9.24 -9.1,-14.03 -4.13,-6.3 -6.55,-12.66 -8.58,-19.9 -1.93,-6.87 -3.5,-13.72 -5.25,-20.62 -0.37,-1.45 -1.31,-5.32 -2.3,-6.73zm-141.44 -209c5.9,2.45 12.32,6.26 17.65,9.71 7.78,5.03 20.47,25.56 25.58,33.73 4.02,6.44 7.94,12.97 11.72,19.56 1.71,2.98 4.95,8.17 6.01,11.36 2.17,6.5 -4.05,11.02 -10.26,8.97 -1.82,-0.6 -3.67,-1.48 -5.4,-2.31 -5.25,-2.53 -10.43,-5.38 -15.54,-8.2 -10.71,-5.9 -21.27,-12.04 -31.91,-18.06 -17.55,-9.92 -9.69,-33.84 -7.49,-49.28l1.28 -8.96 8.36 3.47zm-229.19 -286.57c17.7,2.26 38.02,12.79 50.31,25.44 7.86,8.09 16.48,24.29 21.91,34.28 9.59,17.64 18.53,35.74 27.19,53.85 8.28,17.31 16.34,34.77 24.03,52.35 2.73,6.23 5.42,12.5 7.96,18.81 1.34,3.33 3.14,7.53 3.93,11.02 2.2,9.68 -4.06,20.71 -9.91,28.02 -4.91,6.14 -14.15,15.31 -22.58,15.31 -6.78,0 -18.47,-12.48 -23,-17 -11.22,-11.19 -22.02,-23.02 -32.54,-34.87 -11.31,-12.73 -22.44,-25.72 -33.12,-38.99 -6.71,-8.34 -15.62,-19.14 -20.68,-28.53 -7.93,-14.73 -6.57,-47.11 -5.62,-64.11 0.61,-10.81 1.54,-21.6 2.62,-32.38 0.37,-3.71 0.76,-7.41 1.14,-11.12 0.16,-1.62 0.44,-3.53 0.46,-5.15l0 -7.96 7.91 1.01z"/>
     <path class="fil0" d="M1242.19 723.84c17.5,14.32 127.89,95.14 127.89,95.14 0,0 -3.28,18.78 -3.54,33.39 -0.08,4.74 0.15,9.05 0.92,12.12 3.14,12.56 57.54,68.53 57.54,68.53 0,0 2.09,3.14 19.88,-4.19 17.78,-7.32 23.54,-13.6 30.86,-19.88 7.33,-6.28 23.02,-8.89 49.7,-6.8 26.68,2.09 49.69,40.8 55.97,44.99 6.28,4.19 14.12,3.14 30.34,6.8 16.22,3.66 38.19,0 50.74,0 12.56,0 26.16,2.09 34,3.14 7.85,1.05 8.37,20.4 9.42,33.48 1.05,13.08 13.08,40.8 22.49,61.2 9.42,20.4 13.6,29.82 31.39,47.6 17.78,17.79 66.96,69.05 71.14,75.33 4.19,6.28 11.51,38.19 35.57,68.01 24.06,29.82 27.73,21.97 40.8,27.2 13.08,5.23 64.87,26.16 100.44,40.28 35.57,14.12 29.82,16.22 45.51,18.83 15.69,2.62 37.14,12.55 57.54,21.97 20.4,9.42 78.47,48.13 91.54,49.7 13.08,1.57 19.88,4.71 20.92,9.94 1.05,5.23 3.14,19.88 9.42,30.34 6.28,10.46 5.23,17.79 -1.05,19.36 -6.28,1.57 -43.94,20.92 -50.22,29.82 -6.28,8.89 -13.08,13.08 -9.42,22.49 3.66,9.42 37.14,30.86 37.14,30.86 0,0 -54.4,66.43 -68,81.6 -13.6,15.17 -6.28,15.69 -5.75,23.54 0.22,3.32 1.76,8.81 5.8,15.42 5.5,8.99 15.64,20.06 33.43,30.61 30.86,18.31 134.44,34.53 161.12,36.62 26.68,2.09 38.19,12.55 38.19,12.55 0,0 10.46,46.56 15.69,89.97 2.72,22.6 4.74,34.85 6.56,44.14 1.68,8.55 3.19,14.59 4.95,23.87 3.66,19.36 49.17,59.11 71.14,77.94 21.97,18.83 22.51,31.86 26.14,41.54 3.63,9.68 14.52,19.36 21.78,25.41 7.26,6.05 105.26,21.78 128.25,30.25 22.99,8.47 21.78,6.05 32.67,15.73 10.89,9.68 2.42,12.1 15.73,41.14 13.31,29.04 20.57,32.67 32.67,48.4 12.1,15.73 49.61,30.25 59.29,45.98 9.68,15.73 1.21,8.47 1.21,29.04 0,20.57 -54.45,99.22 -54.45,99.22 0,0 -2.42,10.89 -1.21,27.83 1.21,16.94 29.04,58.08 29.04,58.08 0,0 -10.89,20.57 -15.73,27.83 -3.41,5.11 -11.02,16.23 -16.49,29.12 -2.3,5.41 -4.22,11.14 -5.29,16.86 -3.63,19.36 9.68,47.19 18.15,62.92 8.47,15.73 6.05,32.67 2.42,49.61 -3.63,16.94 -6.05,78.65 -9.68,114.95 -3.63,36.3 -3.63,50.82 -13.31,77.44 -9.68,26.62 -18.15,110.11 -18.15,110.11 0,0 -9.68,-2.42 -16.94,-4.84 -7.26,-2.42 -72.6,-61.71 -72.6,-61.71 0,0 -49.61,53.24 -58.08,53.24 -8.47,0 -29.04,-16.94 -41.14,-26.62 -12.1,-9.68 -94.38,-37.51 -94.38,-37.51 0,0 1.21,7.26 12.1,21.78 10.89,14.52 14.52,76.23 14.52,76.23 0,0 -8.47,-3.63 -12.1,-12.1 -3.63,-8.47 -78.65,-50.82 -90.75,-78.65 -10.81,-24.86 -128.82,-129.88 -153.86,-151.99 -2.98,-2.64 -4.65,-4.09 -4.65,-4.09 0,0 -15.73,0 -30.25,-12.1 -14.52,-12.1 -12.1,-7.26 -32.67,-21.78 -20.57,-14.52 -16.94,-20.57 -22.99,-36.3 -6.05,-15.73 -3.63,-1.21 -41.14,-25.41 -37.51,-24.2 -24.2,-18.15 -38.72,-30.25 -14.52,-12.1 -81.07,-48.4 -81.07,-48.4l-82.28 -76.23c0,0 -3.63,-24.2 -6.05,-38.72 -2.42,-14.52 -21.78,-24.2 -32.67,-37.51 -10.89,-13.31 -87.12,-49.61 -98.01,-64.13 -10.89,-14.52 -18.15,-21.78 -44.77,-59.29 -26.62,-37.51 -25.41,-26.62 -33.88,-54.45 -7.86,-25.83 -83.48,-88.14 -94.3,-96.96 -0.84,-0.68 -1.29,-1.05 -1.29,-1.05 0,0 -18.15,-31.46 -29.04,-49.61 -10.89,-18.15 -13.31,-55.66 -18.15,-65.34 -4.84,-9.68 -16.94,-82.28 -30.25,-108.9 -13.31,-26.62 -35.09,-43.56 -54.45,-82.28 -19.36,-38.72 -45.98,-91.96 -45.98,-102.85 0,-10.89 -45.98,-70.18 -45.98,-70.18 0,0 -65.34,-45.98 -85.91,-73.81 -20.57,-27.83 -10.89,-22.99 -21.78,-43.56 -10.89,-20.57 -6.05,-35.09 -20.57,-43.56 -14.52,-8.47 -65.34,-41.14 -81.07,-56.87 -14.84,-14.84 -17.83,-4.91 -29.29,-5.77 -0.69,-0.05 -1.41,-0.14 -2.16,-0.28 -13.31,-2.42 -93.17,-209.32 -96.79,-227.47 -3.63,-18.15 -2.42,-35.09 -2.42,-58.08 0,-22.99 -9.68,-33.88 -25.41,-88.33 -15.73,-54.45 -137.18,-97.63 -137.18,-97.63 0,0 -73.23,-33.48 -106.19,-56.5 -32.96,-23.02 -7.85,-9.94 -9.94,-17.78 -2.09,-7.85 -20.4,-91.02 -21.45,-94.16 -1.05,-3.14 -6.8,-4.19 -18.83,-14.65 -12.03,-10.46 -14.65,-14.12 -20.92,-25.63 -6.28,-11.51 -128.16,-154.31 -130.25,-157.45 -2.09,-3.14 -10.98,-10.46 -10.98,-10.46 0,0 -38.71,-21.97 -47.08,-23.02 -8.37,-1.05 -58.56,-0.48 -58.56,-0.48l-288.08 -331.98 -25.33 -111.42c0,0 91.98,-4.92 104.72,-3.32 12.73,1.59 44.55,11.93 63.65,18.3 19.09,6.36 34.21,36.6 52.51,46.94 18.3,10.34 62.85,24.66 127.29,20.69 64.44,-3.98 70.01,-9.55 83.54,-10.34 13.53,-0.79 35.01,-3.18 46.14,-2.39 11.14,0.79 50.92,21.48 61.26,25.46 10.34,3.98 47.73,19.09 66.03,26.25 18.3,7.16 20.68,11.14 36.6,26.25 15.91,15.12 20.68,34.21 39.78,65.24 16.26,26.43 55.61,88.07 66.92,105.76 1.97,3.08 3.09,4.83 3.09,4.83 0,0 23.87,30.23 42.96,41.37 19.09,11.14 28.64,31.03 39.78,43.76 11.14,12.73 19.09,19.09 37.39,26.25 18.3,7.16 144.8,93.08 172.64,118.54 27.85,25.46 42.17,31.03 77.97,55.69 35.8,24.66 19.09,15.91 36.6,30.23zm-592.03 404.14c15.72,15.72 30.27,13.39 55.3,30.27 25.03,16.88 30.27,37.84 39,64.03 8.73,26.19 -20.37,105.94 -25.03,115.25 -4.66,9.31 -5.82,-9.31 -11.06,-22.12 -5.24,-12.81 -5.82,-30.27 -14.55,-50.64 -8.73,-20.37 -26.69,-27.07 -28.13,-28.81 -1.45,-1.74 -13.89,-10.13 -32.41,-41.1 -18.52,-30.96 -26.04,-21.13 -28.36,-25.18 -2.31,-4.05 -4.34,-13.89 -13.31,-29.52l-13.03 -16.85c0,0 10.48,-13.97 32.02,-16.88 21.54,-2.91 23.87,5.82 39.58,21.54zm-423.17 -370.21c0,0 33.18,2.33 45.4,5.82 12.22,3.49 21.54,19.21 44.24,35.51 22.7,16.3 36.09,28.52 45.4,39 9.31,10.48 33.76,33.76 33.76,33.76 0,0 -51.81,-7.57 -66.94,-17.46 -15.13,-9.9 -18.04,-7.57 -57.04,-26.78 -39,-19.21 -9.31,-9.9 -20.37,-25.03 -11.06,-15.13 -29.69,-30.27 -29.69,-30.27l5.24 -14.55zm1594.75 308c0,0 55.25,18.08 63.79,21.09 8.54,3.01 8.04,20.09 7.53,30.64 -0.5,10.55 12.56,41.18 20.09,50.73 7.54,9.54 20.59,24.61 25.11,26.62 4.52,2.01 10.55,-2.01 29.63,-14.57 19.08,-12.56 18.58,5.02 41.69,13.56 23.1,8.54 36.16,34.66 42.19,39.68 6.03,5.02 -8.04,26.62 -24.11,28.63 -16.07,2.01 -27.12,-5.02 -38.17,-3.02 -11.05,2.01 -59.77,2.01 -81.87,-6.03 -22.1,-8.04 -31.64,-40.18 -50.23,-61.78 -18.58,-21.6 -16.07,-33.65 -20.59,-45.71 -4.52,-12.05 -3.51,-16.07 -3.01,-30.64 0.5,-14.57 -31.64,-40.18 -35.16,-44.2l23.1 -5.02zm295.97 179.27c0,0 21.32,14.86 28.42,18.09 7.1,3.23 8.4,27.78 8.4,27.78 0,0 -11.63,16.8 -14.86,10.34 -3.23,-6.46 -10.34,-19.38 -24.55,-24.55 -14.21,-5.17 0.65,-27.13 2.58,-31.65zm-1180.45 185.73c3.42,-1.71 38.75,-4.56 47.3,-4.56 8.55,0 11.4,3.99 13.11,8.55 1.71,4.56 -29.06,9.12 -40.46,10.83 -11.4,1.71 -34.76,-8.55 -34.76,-8.55 0,0 11.4,-4.56 14.82,-6.27zm-53 56.99c4.56,0.57 4.56,8.55 15.39,15.39 10.83,6.84 11.97,14.25 12.54,27.36 0.57,13.11 -27.35,86.06 -30.77,85.48 -3.42,-0.57 -2.85,-22.79 -3.42,-35.33 -0.57,-12.54 6.84,-31.34 12.54,-46.16 5.7,-14.82 -7.98,-21.66 -18.81,-38.18 0,0 7.98,-9.12 12.54,-8.55zm2312.9 629.29c117.57,-16.93 152.37,60.2 152.37,60.2 0,0 -7.52,20.69 -23.51,44.21 -15.99,23.52 2.82,16.93 -4.7,34.8 -7.52,17.87 -31.98,34.8 -37.62,38.56 -5.64,3.76 0,-22.57 -9.41,-37.62 -9.41,-15.05 -15.99,-6.58 -48.91,5.64 -32.92,12.23 -29.16,12.23 -31.98,2.82 -2.82,-9.41 -6.58,-116.63 3.76,-148.61zm-342.37 -46.09c60.2,31.04 136.38,53.61 146.73,65.84 10.35,12.23 33.86,43.27 33.86,43.27 0,0 -33.86,-3.76 -50.79,-9.41 -16.93,-5.64 -34.8,-15.05 -40.45,0.94 -5.64,15.99 -13.17,25.39 -5.64,35.74 7.52,10.35 17.87,11.29 15.99,16.93 -1.88,5.64 -10.35,20.7 -31.04,14.11 -20.69,-6.58 -24.45,-25.39 -73.36,-38.56 -48.91,-13.17 -100.64,-24.46 -97.82,-43.27 2.82,-18.81 17.87,-25.4 5.64,-55.5 -12.23,-30.1 4.71,-47.03 -50.79,-74.31 -55.5,-27.28 -68.66,-30.1 -90.3,-30.1 -21.63,0 -33.86,-2.82 -44.21,-16.93 -10.35,-14.11 -10.35,-14.11 -10.35,-14.11 19.75,-7.53 62.08,-31.04 59.26,-47.03 -2.82,-15.99 -30.1,-28.22 11.29,-40.45 41.39,-12.23 103.47,-31.98 131.68,-25.4 28.22,6.58 15.05,20.69 31.98,55.49 16.93,34.8 41.38,114.75 45.15,132.62 3.76,17.87 -47.03,-0.94 13.17,30.1zm-1569.89 43.69c0,0 27.35,24.51 33.05,28.5 5.7,3.99 33.62,42.74 49.01,57.56 15.39,14.82 32.48,30.78 32.48,30.78 0,0 -18.24,2.85 -23.94,10.26 -5.7,7.41 5.13,33.05 5.13,33.05 0,0 -5.7,6.27 -6.84,2.28 -1.14,-3.99 -10.26,-17.67 -17.67,-31.35 -7.41,-13.68 -11.97,-14.25 -17.1,-32.48 -5.13,-18.24 -5.7,-26.22 -9.12,-30.2 -3.42,-3.99 -38.18,-18.24 -39.89,-26.22 -1.71,-7.98 -5.13,-42.17 -5.13,-42.17zm-104.29 -129.37c0,0 6.84,2.85 16.53,9.12 9.69,6.27 39.32,57.56 40.46,60.98 1.14,3.42 -39.89,-20.52 -53,-27.92 -13.11,-7.41 -5.7,-30.2 -3.99,-42.17zm-227.39 -286.09c0,0 26.78,3.42 46.16,23.36 19.38,19.95 80.36,154.45 83.21,166.98 2.85,12.54 -17.1,34.76 -25.65,34.76 -8.55,0 -91.19,-93.46 -103.15,-115.69 -11.97,-22.23 -0.57,-103.15 -0.57,-109.42z"/>
    </g>
   </g>
   <path class="fil1 str0" d="M1593.06 2036.74c0.02,-0.05 0.03,-0.09 0.05,-0.14l-0.05 0.14zm-275.1 106.4c-5.7,-3.99 -33.05,-28.5 -33.05,-28.5 0,0 3.42,34.2 5.13,42.17 1.71,7.98 36.47,22.23 39.89,26.22 3.42,3.99 3.99,11.97 9.12,30.2 5.13,18.24 9.69,18.8 17.1,32.48 7.41,13.68 16.53,27.36 17.67,31.35 1.14,3.99 6.84,-2.28 6.84,-2.28 0,0 -10.83,-25.65 -5.13,-33.05 5.7,-7.41 23.94,-10.26 23.94,-10.26 0,0 -17.1,-15.96 -32.48,-30.78 -15.39,-14.82 -43.31,-53.57 -49.01,-57.56zm-120.82 -148.75c-9.69,-6.27 -16.53,-9.12 -16.53,-9.12 -1.71,11.97 -9.12,34.77 3.99,42.17 13.11,7.41 54.14,31.34 53,27.92 -1.14,-3.42 -30.78,-54.71 -40.46,-60.98zm-114.55 -104.86c-2.85,-12.54 -63.83,-147.04 -83.21,-166.98 -19.38,-19.95 -46.16,-23.36 -46.16,-23.36 0,6.27 -11.4,87.19 0.57,109.42 11.97,22.23 94.6,115.69 103.15,115.69 8.55,0 28.5,-22.23 25.65,-34.76zm653.66 -175.75c-22.87,2.39 -26.53,-4.51 -33.27,-6.66 -7.56,-2.42 -15.14,-29.04 -21.65,-42.05 -6.51,-13.01 -44.92,-20.94 -58.57,-22.41 -13.65,-1.48 -56.4,-26.75 -65.08,-33.26 -8.68,-6.51 -22.54,-51.13 -22.54,-51.13 0,0 -23.74,5.58 -41.92,-12.33 -18.18,-17.91 -30.69,-50.47 -30.69,-50.47 0,0 24.21,-11.7 31.19,-17.94 6.97,-6.24 -6.9,-55.4 -22.46,-72.6 -15.56,-17.21 -83.82,-52.3 -83.82,-52.3 0,0 -16.13,8.73 -26.97,6.22 -10.85,-2.51 -31.15,-26.94 -39.95,-29.27 -8.8,-2.33 -5.83,-50.29 -5.83,-50.29 -0.56,0.64 -0.87,0.99 -0.87,0.99l-92 -30.48c0,0 18.4,58.65 22.43,63.25 4.02,4.6 -13.23,23 -17.25,24.73 -4.02,1.72 -47.15,2.88 -52.33,3.45 -3.67,0.41 -58.29,37.11 -89.76,58.42 11.46,0.86 14.46,-9.07 29.29,5.77 15.73,15.73 66.55,48.4 81.07,56.87 14.52,8.47 9.68,22.99 20.57,43.56 10.89,20.57 1.21,15.73 21.78,43.56 20.57,27.83 85.91,73.81 85.91,73.81 0,0 45.98,59.29 45.98,70.18 0,10.89 26.62,64.13 45.98,102.85 19.36,38.72 41.14,55.66 54.45,82.28 13.31,26.62 25.41,99.22 30.25,108.9 4.84,9.68 7.26,47.19 18.15,65.34 10.89,18.15 29.04,49.61 29.04,49.61 0,0 0.45,0.36 1.29,1.05 8.89,-16.71 14.65,-27.41 15.87,-29.03 6.9,-9.2 23.58,-28.75 27.6,-35.65 0.35,-0.6 0.66,-1.26 0.93,-1.98l5.26 2.58 -1.8 -0.88c-0.96,-8.9 -3.01,-27.93 -3.57,-32.47 -0.74,-5.99 -6.63,-14.36 -11.16,-22.5 -4.52,-8.14 -17.7,-20.91 -19.6,-22.31 -1.9,-1.4 -2.68,-9.25 -3.36,-14.41 -0.69,-5.16 -7,-30.27 -10.81,-34.14 -3.81,-3.87 -0.3,-8.74 5.34,-13.71 5.64,-4.97 17.28,0.74 27.54,2.24 10.26,1.5 13.26,3.03 29.67,0.49 16.41,-2.54 15.55,-4.7 19.42,-9.59 3.87,-4.89 20.55,-11.39 27.46,-15.77 6.9,-4.38 18.73,-11.3 25.91,-17.28 7.18,-5.98 23.27,-13.62 24.2,-21.74 0.92,-8.12 1.19,-22.34 4.74,-37.83 3.55,-15.5 19.06,-30.34 21.25,-36.64 2.19,-6.3 3.34,-22.97 3.84,-27.29 0.43,-3.75 -0.33,-16.12 -1.14,-21.69z"/>
   <path class="fil2" d="M1437.78 1655.92c6.73,-5.61 12.1,-10.29 16.1,-14.05 4,-3.75 7.33,-7.66 10,-11.73 2.66,-4.07 4,-8.07 4,-11.99 0,-3.58 -0.84,-6.38 -2.53,-8.42 -1.68,-2.03 -4.28,-3.05 -7.79,-3.05 -3.51,0 -6.21,1.18 -8.1,3.52 -1.89,2.35 -2.88,5.56 -2.95,9.63l-14.31 0c0.28,-8.42 2.79,-14.8 7.52,-19.15 4.73,-4.35 10.75,-6.52 18.04,-6.52 8,0 14.13,2.12 18.41,6.36 4.28,4.24 6.42,9.84 6.42,16.78 0,5.47 -1.47,10.7 -4.42,15.68 -2.95,4.98 -6.31,9.31 -10.1,12.99 -3.79,3.68 -8.73,8.12 -14.84,13.31l31.04 0 0 12.21 -51.98 0 0 -10.94 5.47 -4.63z"/>
  </g>
 </g>
</svg>
